<svg xmlns="http://www.w3.org/2000/svg" width="166" height="94" fill="#0080ff" fill-rule="nonzero"><path d="M83.5 49.006h-8.164V40.87h8.188v8.1A12.96 12.96 0 0 0 95.602 31.31a12.26 12.26 0 0 0-7.323-7.255C79.13 20.75 70.5 27.433 70.5 36.072h-8.188c0-13.77 13.398-24.508 27.925-19.998 6.34 1.98 11.405 6.992 13.374 13.292 4.55 14.437-6.256 27.754-20.11 27.754v-8.114zm-8.164 6.228H69.07v-6.228h6.267v6.228zm-6.267-6.228H63.8V43.78h5.258v5.226zm-20.577 16.37c.6.382 1.056.955 1.393 1.67.312.716.48 1.55.48 2.482s-.168 1.8-.48 2.506c-.336.716-.792 1.3-1.37 1.694-1.056.788-2.4 1.17-3.938 1.17H41.19v-10.62h3.362c1.537 0 2.88.358 3.938 1.098zm-5.33.692v7.04h1.08c1.2 0 2.16-.24 2.857-.692.816-.525 1.225-1.503 1.225-2.887 0-1.336-.408-2.267-1.225-2.768-.744-.453-1.705-.692-2.88-.692h-1.06zm9.532-1.933a1.25 1.25 0 0 1 .84.334 1.09 1.09 0 0 1 .336.81 1.15 1.15 0 0 1-.336.835c-.24.215-.528.334-.84.334-.336 0-.624-.12-.84-.334-.216-.24-.336-.5-.336-.835s.12-.597.336-.8a1.2 1.2 0 0 1 .84-.334zm-.96 3.27h1.897v7.493h-1.897v-7.493zm8.788.62h-.048v-.644h1.873v6.8c0 1.122-.336 2.028-1.008 2.72s-1.585 1.026-2.713 1.026c-.84 0-1.56-.2-2.113-.55-.576-.358-.984-.74-1.273-1.122l-.024-.048 1.297-1.24c.672.907 1.225 1.24 2.1 1.24.576 0 1.032-.167 1.37-.5s.504-.8.504-1.432V74.1c-.504.406-1.153.597-1.873.597-1.032 0-1.92-.358-2.593-1.05-.676-.707-1.01-1.613-1.01-2.663 0-1.098.36-2.005 1.032-2.697.672-.716 1.537-1.074 2.593-1.074.696 0 1.32.3 1.897.8zm-.504 4.44c.336-.382.504-.86.504-1.456s-.168-1.098-.504-1.48a1.67 1.67 0 0 0-1.297-.549c-.528 0-.984.167-1.297.55s-.48.86-.48 1.48c0 .597.144 1.074.48 1.456a1.67 1.67 0 0 0 1.297.549c.528 0 .96-.167 1.297-.55zm3.986-5.06H65.9v7.493h-1.897v-7.493zm.96-3.27c.336 0 .6.12.84.334a1.09 1.09 0 0 1 .336.81 1.15 1.15 0 0 1-.336.835c-.24.215-.528.334-.84.334-.336 0-.624-.12-.84-.334-.216-.24-.336-.5-.336-.835s.12-.597.336-.8a1.2 1.2 0 0 1 .84-.334zm5.1 1.24v2.005h1.777v1.72h-1.777v2.84c0 .5.072.835.216 1.002s.432.24.888.24l.648-.024v1.718H71.7c-.288.024-.6.024-.912.024-.96 0-1.657-.2-2.04-.597s-.576-1.098-.576-2.076v-3.102H67.1v-1.718h1.08V65.38h1.873zm10.66-1.122h1.897v10.643h-1.897v-10.64zm21.058 7.97l1.25 1.193a3.83 3.83 0 0 1-3.242 1.67c-1.056 0-1.945-.382-2.7-1.122-.72-.74-1.105-1.67-1.105-2.792s.36-2.052 1.105-2.792 1.657-1.122 2.7-1.122c1.25 0 2.28.5 3.097 1.55L101.637 70c-.552-.644-1.2-1.026-1.8-1.026a1.76 1.76 0 0 0-1.369.62c-.36.406-.552.93-.552 1.575 0 .62.192 1.17.552 1.575.36.43.816.62 1.37.62a1.83 1.83 0 0 0 .984-.262c.264-.167.624-.5.96-.883zm7.804-3.77a4.04 4.04 0 0 1 .576 1.217 5.21 5.21 0 0 1 .192 1.384l-.024.692h-5.018c.048.477.24.86.552 1.145.336.3.768.453 1.297.453.36 0 .672-.072.96-.215.192-.095.36-.24.552-.406l.432-.43 1.25 1.193-.048.048c-.792 1.002-1.85 1.527-3.12 1.527-1.13 0-2.04-.358-2.737-1.074-.672-.716-1.032-1.647-1.032-2.792 0-1.122.336-2.052.96-2.816.648-.764 1.513-1.145 2.57-1.145.576 0 1.105.12 1.56.334s.816.5 1.08.883zm-4.154 1.766h2.93c-.024-.358-.168-.644-.384-.883-.24-.263-.6-.382-1.056-.382-.384 0-.72.12-.984.382-.24.215-.408.525-.504.883zm11.43-2.243c.576.477.864 1.193.936 2.076v4.82h-1.873v-.62c-.624.5-1.297.787-2.017.787s-1.32-.215-1.825-.62c-.504-.43-.744-.978-.744-1.694 0-.8.288-1.456.864-1.885s1.345-.644 2.28-.644c.456 0 .912.072 1.393.215v-.358c0-.334-.144-.597-.384-.8-.264-.215-.576-.3-.984-.3-.744 0-1.297.286-1.8 1.074l-1.225-1.145-.024-.024a3.1 3.1 0 0 1 1.297-1.193 3.94 3.94 0 0 1 1.753-.406c.984 0 1.777.263 2.353.74zm-3.362 4.057c-.216.143-.312.334-.312.597 0 .24.096.406.264.55.192.143.432.215.768.215.672 0 1.225-.2 1.633-.573v-.74c-.504-.167-.984-.263-1.44-.263-.384 0-.696.072-.912.215zm11.525-3.914c.528.573.792 1.408.792 2.434v4.343h-1.897v-4.343c0-.477-.12-.883-.36-1.17s-.552-.43-.984-.43c-.504 0-.864.167-1.13.477s-.408.764-.408 1.336v4.128h-1.897v-7.47h1.85v.453c.456-.43 1.08-.644 1.825-.644.936 0 1.68.286 2.2.883zm-46.678-.143c.576.477.864 1.193.936 2.076v4.82H77.4v-.62c-.624.5-1.297.787-2.017.787s-1.32-.215-1.825-.62c-.504-.43-.744-.978-.744-1.694 0-.8.288-1.456.864-1.885s1.345-.644 2.28-.644c.456 0 .912.072 1.393.215v-.358c0-.334-.144-.597-.384-.8-.264-.215-.576-.3-.984-.3-.744 0-1.297.286-1.8 1.074L72.96 68.86l-.024-.024a3.1 3.1 0 0 1 1.297-1.193 3.94 3.94 0 0 1 1.753-.406c.984 0 1.777.263 2.353.74zm-3.362 4.057c-.216.143-.312.334-.312.597 0 .24.096.406.264.55.192.143.432.215.768.215.672 0 1.225-.2 1.633-.573v-.74c-.504-.167-.984-.263-1.44-.263-.384 0-.696.072-.912.215zm14.527 3.03c-3.05 0-5.523-2.458-5.523-5.5s2.473-5.5 5.523-5.5 5.523 2.458 5.523 5.5-2.473 5.5-5.523 5.5zm0-9.044c-1.97 0-3.578 1.6-3.578 3.556s1.6 3.556 3.578 3.556 3.578-1.6 3.578-3.556-1.6-3.556-3.578-3.556z"/></svg>