<svg xmlns="http://www.w3.org/2000/svg" xmlns:xlink="http://www.w3.org/1999/xlink" width="166" height="94"><g fill-rule="nonzero"><path d="M59.88 64.508v-4.186c0-.55.344-.992.913-.992h.158c.57 0 .91.442.91.992v8.812c0 2.15-1.062 3.86-2.912 4.948a5.47 5.47 0 0 1-2.8.764h-.393c-2.15 0-3.857-1.062-4.948-2.91-.503-.847-.767-1.815-.763-2.8v-.393c0-2.15 1.062-3.858 2.91-4.95a5.45 5.45 0 0 1 2.801-.764h.393c1.455 0 2.69.564 3.73 1.48zm-7.852 4.43c0 1.552.752 2.72 2.113 3.464.55.3 1.147.463 1.775.463 1.524 0 2.654-.72 3.433-2 .362-.6.53-1.258.53-1.956 0-1.346-.637-2.396-1.72-3.176a3.7 3.7 0 0 0-2.205-.71c-1.66 0-2.856.84-3.573 2.33a3.64 3.64 0 0 0-.353 1.596zm16.71-5.91h.275c2.297 0 4.043 1.114 5.15 3.12a5.33 5.33 0 0 1 .679 2.594v.393c0 2.15-1.06 3.86-2.912 4.948a5.48 5.48 0 0 1-2.799.763h-.393c-2.15 0-3.857-1.062-4.948-2.91-.503-.847-.767-1.815-.764-2.8v-.393c0-2.15 1.067-3.853 2.9-4.95.857-.51 1.806-.764 2.802-.764zm-3.73 5.91c0 1.507.74 2.615 2.012 3.395.598.366 1.256.532 1.954.532 1.49 0 2.59-.755 3.355-2.01.365-.6.53-1.257.53-1.955 0-1.4-.675-2.47-1.83-3.247-.632-.425-1.336-.64-2.097-.64-1.66 0-2.856.84-3.573 2.33-.243.504-.353 1.04-.353 1.596zm18.075-3.767c-.3-.14-.86-.187-1.183-.2-1.656-.062-2.854.87-3.557 2.33-.243.504-.354 1.037-.354 1.595 0 1.698.892 2.887 2.407 3.61.554.265 1.268.315 1.873.315.532 0 1.284-.326 1.756-.55l.082-.04h.367l.04.008c.45.094.79.38.79.865v.196c0 1.207-2.206 1.483-3.047 1.542-2.97.205-5.19-1.426-6.038-4.26-.147-.492-.213-.98-.213-1.493V68.7c0-2.15 1.067-3.852 2.9-4.947.857-.51 1.805-.765 2.8-.765h.393c1.057 0 2.03.3 2.902.896l.072.05.045.075c.094.156.175.337.175.522v.196c0 .506-.38.778-.835.866l-.038.007h-.117c-.296 0-.968-.306-1.232-.43zm6.43 1.342l2.324-2.3c.218-.212 1.042-1.107 1.367-1.107h.355l.04.008c.452.094.79.38.79.866v.196c0 .332-.388.717-.602.944l-3.796 3.854 3.084 3.11.844.87c.098.104.244.233.326.376.09.135.143.286.143.448v.205l-.012.047c-.11.452-.398.817-.9.817h-.158c-.328 0-.698-.37-.923-.583l-2.886-2.835v2.388c0 .55-.344.992-.913.992h-.156c-.57 0-.913-.442-.913-.992V60.36c0-.55.344-1 .913-1h.156c.57 0 .913.44.913 1v6.152zm24.706-3.406h.197c.595 0 .99.4.99.992 0 .82-.785 1.03-1.463 1.03-.9 0-1.74.54-2.354 1.143-.765.754-1.1 1.72-1.1 2.783v4.8c0 .55-.344.992-.913.992h-.157c-.57 0-.913-.44-.913-.992V68.78c0-1.95.95-3.54 2.53-4.655a5.45 5.45 0 0 1 3.182-1.018zm-14.09 9.5c.72.252 1.544.216 2.284.087.38-.16 1.347-.583 1.703-.52l.056.01.05.025c.217.105.425.255.536.476.26.52.135 1.04-.375 1.334l-.17.098c-1.88 1.085-3.88.935-5.755-.08-.896-.485-1.582-1.204-2.087-2.08l-.118-.205c-1.207-2.09-1.044-4.29.317-6.277.47-.687 1.084-1.218 1.802-1.633l.272-.157c1.77-1.022 3.67-.952 5.487-.055.978.482 1.77 1.202 2.316 2.147l.098.17c.397.687-.117 1.286-.647 1.695l-1.827 1.555-3.943 3.4zm-1.702-1.196l5.958-5.126c-.4-.503-1.066-.865-1.632-1.082-1.143-.436-2.27-.29-3.32.316-1.372.793-1.957 2.054-1.906 3.625a3.48 3.48 0 0 0 .515 1.741c.116.185.245.36.384.526zM87.73 31.7h5.85v5.98h2.957c1.366 0 2.77-.243 4.064-.68.636-.216 1.35-.515 1.976-.893-.826-1.078-1.247-2.44-1.37-3.78-.17-1.825.2-4.2 1.435-5.63l.615-.71.733.59c1.845 1.482 3.396 3.553 3.67 5.914 2.22-.653 4.83-.5 6.787.63l.803.464-.423.825c-1.656 3.23-5.118 4.233-8.502 4.055-5.064 12.614-16.1 18.586-29.46 18.586-6.907 0-13.243-2.582-16.852-8.7l-.06-.1-.526-1.07c-1.22-2.697-1.625-5.652-1.35-8.605l.083-.884h5.002V31.7h5.85v-5.85h11.7V20h7.02v11.7z" fill="#364548"/><path d="M106.68 33.91c.392-3.048-1.89-5.442-3.304-6.58-1.63 1.885-1.884 6.825.674 8.904-1.427 1.268-4.435 2.417-7.515 2.417H59.048c-.3 3.215.265 6.175 1.554 8.71l.426.78c.27.458.565.9.884 1.326l4.263.104c2.555-.056 4.64-.358 6.22-.906a.45.45 0 0 1 .559.283.45.45 0 0 1-.264.568l-.656.206c-1.244.355-2.578.594-4.3.7.102.002-.106.015-.107.015l-.19.015-2.156.046a48.2 48.2 0 0 1-2.523-.061l-.023.015c3.123 3.51 8.007 5.616 14.13 5.616 12.956 0 23.946-5.744 28.813-18.638 3.452.354 6.77-.526 8.28-3.473-2.404-1.387-5.496-.945-7.276-.05" fill="#22a0c8"/><path d="M106.68 33.91c.392-3.048-1.89-5.442-3.304-6.58-1.63 1.885-1.884 6.825.674 8.904-1.427 1.268-4.435 2.417-7.515 2.417H61.268c-.153 4.923 1.674 8.66 4.907 10.92 2.556-.056 4.64-.358 6.22-.906a.45.45 0 0 1 .559.283.45.45 0 0 1-.264.568c-.2.073-.43.14-.655.206-1.245.355-2.693.625-4.415.73-.001 0-.042-.04-.042-.04 4.41 2.262 10.803 2.254 18.133-.562 8.22-3.158 15.868-9.173 21.204-16.054-.08.036-.16.073-.235.112" fill="#37b1d9"/><path d="M59.118 42.56c.233 1.722.737 3.335 1.484 4.803l.426.78c.27.458.565.9.884 1.326l4.263.104c2.555-.056 4.64-.358 6.22-.906a.45.45 0 0 1 .559.283.45.45 0 0 1-.264.568l-.656.206c-1.244.355-2.685.6-4.406.716l-.222.008-2.148.06c-.817 0-1.653-.016-2.553-.06 3.123 3.51 8.038 5.624 14.16 5.624 11.092 0 20.742-4.2 26.343-13.513h-44.09" fill="#1b81a5"/><path d="M61.606 42.56c.663 3.024 2.257 5.397 4.57 7.014 2.555-.056 4.64-.358 6.22-.906a.45.45 0 0 1 .559.283.45.45 0 0 1-.264.568l-.656.206c-1.244.355-2.715.6-4.437.716 4.41 2.26 10.784 2.23 18.114-.587 4.434-1.704 8.702-4.24 12.53-7.295H61.606" fill="#1d91b4"/><path d="M64.136 32.674h5.07v5.07h-5.07v-5.07zm.422.423h.4v4.225h-.4v-4.225zm.752 0h.416v4.225h-.416v-4.225zm.768 0h.416v4.225h-.416v-4.225zm.768 0h.416v4.225h-.416v-4.225zm.768 0h.416v4.225h-.416v-4.225zm.768 0h.4v4.225h-.4v-4.225zm1.602-6.272h5.07v5.07h-5.07v-5.07zm.423.423h.4v4.225h-.4v-4.225zm.752 0h.416v4.225h-.416v-4.225zm.768 0h.416v4.225h-.416v-4.225zm.768 0h.416v4.225h-.416v-4.225zm.768 0h.416v4.225h-.416v-4.225zm.768 0h.4v4.225h-.4v-4.225z" fill="#23a3c2"/><use xlink:href="#B" fill="#34bbde"/><path d="M75.835 32.674h5.07v5.07h-5.07v-5.07zm.422.423h.4v4.225h-.4v-4.225zm.752 0h.416v4.225H77v-4.225zm.768 0h.416v4.225h-.416v-4.225zm.768 0h.416v4.225h-.416v-4.225zm.768 0h.416v4.225h-.416v-4.225zm.768 0h.4v4.225h-.4v-4.225z" fill="#23a3c2"/><path d="M75.835 26.824h5.07v5.07h-5.07v-5.07zm.422.423h.4v4.225h-.4v-4.225zm.752 0h.416v4.225H77v-4.225zm.768 0h.416v4.225h-.416v-4.225zm.768 0h.416v4.225h-.416v-4.225zm.768 0h.416v4.225h-.416v-4.225zm.768 0h.4v4.225h-.4v-4.225zm1.602 5.427h5.07v5.07h-5.07v-5.07zm.423.423h.4v4.225h-.4v-4.225zm.752 0h.416v4.225h-.416v-4.225zm.768 0h.416v4.225h-.416v-4.225zm.768 0h.416v4.225h-.416v-4.225zm.768 0h.416v4.225h-.416v-4.225zm.768 0h.4v4.225h-.4v-4.225z" fill="#34bbde"/><use xlink:href="#B" x="11.699" y="-5.85" fill="#23a3c2"/><path d="M81.685 20.975h5.07v5.07h-5.07v-5.07zm.423.422h.4v4.225h-.4v-4.225zm.752 0h.416v4.225h-.416v-4.225zm.768 0h.416v4.225h-.416v-4.225zm.768 0h.416v4.225h-.416v-4.225zm.768 0h.416v4.225h-.416v-4.225zm.768 0h.4v4.225h-.4v-4.225z" fill="#34bbde"/><path d="M87.534 32.674h5.07v5.07h-5.07v-5.07zm.422.423h.4v4.225h-.4v-4.225zm.752 0h.416v4.225h-.416v-4.225zm.768 0h.416v4.225h-.416v-4.225zm.768 0h.416v4.225h-.416v-4.225zm.768 0h.416v4.225h-.416v-4.225zm.768 0h.4v4.225h-.4v-4.225z" fill="#23a3c2"/><path d="M74.738 45.963a1.4 1.4 0 0 1 1.227 2.104 1.4 1.4 0 0 1-2.607-.705 1.4 1.4 0 0 1 1.38-1.398" fill="#d3ecec"/><path d="M74.738 46.36a1 1 0 0 1 .362.068.41.41 0 0 0 .204.762.41.41 0 0 0 .359-.213 1 1 0 0 1-1.481 1.217 1 1 0 0 1 .556-1.835M50 43.065h65.06c-1.416-.36-4.482-.845-3.976-2.7-2.576 2.98-8.788 2.09-10.356.622-1.746 2.532-11.91 1.57-12.618-.403-2.19 2.57-8.97 2.57-11.16 0-.71 1.973-10.873 2.935-12.62.403-1.568 1.47-7.78 2.36-10.355-.62.505 1.856-2.56 2.342-3.977 2.7" fill="#364548"/><path d="M78.456 56.042c-3.464-1.644-5.365-3.878-6.422-6.317-1.287.367-2.833.602-4.63.703l-2.136.057c-.862 0-1.77-.026-2.723-.076 3.176 3.175 7.084 5.62 14.32 5.663.534 0 1.064-.01 1.592-.03" fill="#bdd9d7"/><path d="M73.32 51.975c-.48-.65-.944-1.468-1.286-2.25-1.287.368-2.834.602-4.63.703 1.235.67 3 1.29 5.917 1.548" fill="#d3ecec"/></g><defs ><path id="B" d="M69.986 32.674h5.07v5.07h-5.07v-5.07zm.423.423h.4v4.225h-.4v-4.225zm.752 0h.416v4.225h-.416v-4.225zm.768 0h.416v4.225h-.416v-4.225zm.768 0h.416v4.225h-.416v-4.225zm.768 0h.416v4.225h-.416v-4.225zm.768 0h.4v4.225h-.4v-4.225z"/></defs></svg>