<svg xmlns="http://www.w3.org/2000/svg" width="166" height="94"><style><![CDATA[.B{fill:#000}.C{fill-rule:nonzero}.D{fill:#6ad7e5}]]></style><g fill-rule="evenodd"><path d="M61.617 49.462c-.99-.47 0-1.676.47-2.043.99-.733 2.296-.995 3.496-.9l-.104 2.148c-.052 1.1-.313.63-1.096 1.205-.835.576-2.66 1.414-2.765-.42zM98.61 72.3c1.41.9 4.017 3.562 1.878 4.87-2.035 1.886-3.183-2.095-5.01-2.62.783-1.048 1.774-2.043 3.13-2.252zm-25.46 3.038c-1.67.262-2.61 1.78-4.017 2.567-1.304.786-1.826-.262-1.93-.47-.21-.105-.21.105-.522-.2-1.2-1.938 1.252-3.352 2.557-4.295 1.826-.42 2.974 1.152 3.913 2.4zm33.34-26.138c-.104 1.833-1.93.995-2.765.42-.783-.576-1.043-.105-1.096-1.205l-.104-2.148c1.2-.105 2.504.157 3.496.9.522.42 1.46 1.57.47 2.043z" fill="#f6d2a2"/><path d="M62.61 50.77c-.365 0-1.043-.157-1.148-1.205-.313-.2-.417-.47-.417-.63-.052-.63.626-1.362.99-1.624.835-.63 1.93-.943 3.078-.943h.678v.157c.052.576 0 1.152-.052 1.676 0 .157 0 .314-.052.47-.052.786-.21.9-.574 1.048-.157.052-.313.105-.574.314-.26.157-1.148.733-1.93.733zm2.504-4.086c-1.096 0-2.087.314-2.87.9-.365.262-.887.9-.835 1.3 0 .157.104.314.313.42l.104.052v.105c.052.838.47.943.783.943.522 0 1.252-.367 1.722-.68.313-.2.522-.262.678-.314.26-.105.313-.105.365-.733 0-.157 0-.314.052-.47.052-.47.052-.995.052-1.467-.157-.052-.26-.052-.365-.052z" class="B C"/><path d="M61.617 49.462c.26-.105.574-.157.73-.42" fill="#c6b198"/><path d="M61.617 49.62c-.052 0-.157-.052-.157-.105-.052-.105 0-.2.104-.2.052 0 .104-.052.104-.052.21-.105.417-.157.522-.314.052-.052.157-.105.26-.052.052.052.104.157.052.262a1.21 1.21 0 0 1-.678.419l-.104.052h-.104z" class="B C"/><path d="M65.896 27.305c-7.096-2-1.826-11.052 3.86-7.333l-3.86 7.333z" class="D"/><path d="M66 27.514l-.157-.052c-3.652-1.048-3.6-3.667-3.496-4.452.26-2 2.14-4.086 4.643-4.086.99 0 1.93.314 2.87.943l.157.105L66 27.514zm.99-8.224c-2.348 0-4.07 1.938-4.33 3.77-.26 1.886.887 3.352 3.13 4.033l3.704-7.07c-.783-.47-1.617-.733-2.504-.733z" class="B C"/><path d="M97.357 19.3c5.583-3.93 10.696 4.976 4.174 7.23l-4.174-7.23z" class="D"/><g class="B C"><path d="M101.478 26.73l-4.33-7.5.157-.105c1-.68 1.983-1.048 2.974-1.048 2.4 0 4.122 2 4.487 3.93.157.786.313 3.457-3.13 4.6l-.157.105zm-3.86-7.333l4.017 6.967c2.035-.733 3.078-2.305 2.765-4.2-.313-1.78-1.93-3.614-4.122-3.614-.887-.052-1.774.2-2.66.838zM99.4 77.852c-.835 0-1.565-.838-2.2-1.624-.574-.63-1.148-1.3-1.774-1.52l-.26-.052.157-.2c.626-.9 1.67-2.043 3.235-2.305h.052l.052.052c.887.576 2.817 2.2 2.765 3.72 0 .576-.313 1.048-.887 1.414-.365.367-.73.524-1.148.524zm-3.652-3.405c.626.262 1.148.943 1.67 1.52.626.786 1.252 1.467 1.93 1.467.313 0 .626-.157.94-.47h.052c.47-.314.73-.68.73-1.152 0-1.205-1.513-2.724-2.557-3.405-.94.262-1.878.9-2.765 2.043zm4.748 2.88c-.052 0-.104-.052-.157-.105a3.28 3.28 0 0 1-.26-.68c-.157-.42-.313-.838-.626-1.152-.052-.052-.052-.157 0-.262.052-.052.157-.052.26 0 .365.367.574.838.73 1.3l.26.63c.052.105 0 .2-.052.262h-.157z"/><path d="M68.243 78.324c-.678 0-1.043-.576-1.148-.786h-.052c-.157 0-.26-.052-.47-.262v-.052c-1.148-1.833.835-3.248 2.14-4.2l.47-.314h.104c.2-.052.365-.052.574-.052 1.565 0 2.557 1.362 3.4 2.462l.26.367-.313.052c-1 .157-1.722.786-2.452 1.414-.47.42-.94.786-1.46 1.1-.417.157-.73.262-1.043.262zm-1.148-1.1c.052 0 .104 0 .2.052h.052l.052.052c.104.157.365.63.887.63.26 0 .522-.105.783-.262.522-.262 1-.68 1.4-1.048.678-.576 1.4-1.205 2.348-1.467-.783-1.048-1.722-2.2-3.026-2.2-.157 0-.313 0-.47.052l-.417.314c-1.357.943-3.026 2.148-2.035 3.72.052.105.104.157.2.157zm.104.367c-.104 0-.2-.105-.157-.2.052-.524.313-.9.574-1.3a3.91 3.91 0 0 0 .365-.629c.052-.105.157-.105.2-.105.104.052.104.157.104.2-.104.262-.26.47-.417.68-.26.367-.47.68-.522 1.1 0 .2-.052.262-.157.262zm-.99-52.748c-.94-.47-1.617-1.152-1.043-2.252.522-.995 1.513-.9 2.452-.42l-1.4 2.67zm33.86-.943c.94-.47 1.617-1.152 1.043-2.252-.522-.995-1.513-.9-2.452-.42l1.4 2.67zm5.478 26.6c-.783 0-1.67-.576-1.93-.733s-.417-.262-.574-.314c-.417-.157-.522-.262-.574-1.048 0-.157 0-.314-.052-.47-.052-.524-.104-1.1-.052-1.676v-.16h.678c1.148 0 2.243.314 3.078.943.365.262 1.043.995 1 1.624 0 .2-.104.47-.417.63-.104 1.048-.783 1.205-1.148 1.205zm-2.87-4.033l.052 1.467c0 .157 0 .314.052.47.052.63.104.63.365.733.157.052.365.157.678.314.47.314 1.2.68 1.722.68.313 0 .73-.105.783-.943v-.105l.104-.052c.2-.105.313-.2.313-.42.052-.42-.47-1.048-.835-1.3-.783-.576-1.826-.9-2.87-.9-.104.052-.2.052-.365.052z"/></g><path d="M106.487 49.2c-.26-.105-.574-.157-.73-.42" fill="#c6b198"/><path d="M106.487 49.4h-.052l-.104-.052c-.26-.105-.522-.157-.678-.42-.052-.052-.052-.2.052-.262.052-.052.21-.052.26.052.104.157.313.2.522.314.052 0 .104.052.104.052.104.052.157.157.104.2s-.157.105-.21.105z" class="B C"/><path d="M83.374 15.57c7.096 0 13.722.995 17.217 7.857 3.13 7.648 1.983 15.924 2.504 24.043.417 6.967 1.304 14.98-1.878 21.424-3.39 6.757-11.843 8.486-18.783 8.224-5.478-.2-12.052-2-15.183-7.02-3.6-5.867-1.93-14.614-1.67-21.162.313-7.752-2.087-15.557.47-23.1 2.557-7.9 9.652-9.7 17.322-10.267" class="D"/><path d="M83.635 77.33H82.33c-2.14-.052-5.374-.42-8.557-1.73-3.078-1.257-5.322-3.038-6.783-5.395-2.922-4.767-2.4-11.314-1.93-17.13l.26-4.138c.104-2.724-.104-5.552-.365-8.224-.417-4.924-.835-10.005.783-14.93 1.252-3.667 3.496-6.286 6.887-7.962 2.66-1.3 5.948-2.043 10.643-2.4 6.99-.052 13.93.943 17.426 7.9 2.296 5.605 2.296 11.63 2.348 17.443 0 2.2 0 4.452.157 6.652.052.68.104 1.362.104 2.043.417 6.4.887 13.62-2.035 19.486-1.46 2.986-4.017 5.186-7.513 6.6-2.817 1.152-6.365 1.78-10.122 1.78zm-.26-61.6c-7.357.576-14.557 2.2-17.217 10.162-1.617 4.87-1.2 9.9-.783 14.77.21 2.724.47 5.5.365 8.276-.052 1.3-.157 2.67-.26 4.138-.47 5.762-.99 12.257 1.878 16.92 1.2 1.938 5.06 6.548 15.026 6.914h1.304c11.53 0 15.81-5.133 17.374-8.17 2.87-5.762 2.4-13 2.035-19.33-.052-.68-.104-1.362-.104-2.043-.104-2.2-.157-4.452-.157-6.652-.052-5.762-.052-11.786-2.296-17.338-1.565-3.1-3.913-5.186-7.148-6.4-3.34-1.1-7.096-1.257-10.017-1.257z" class="B C"/><path d="M84.626 25.105c-.417-6.862 10.07-8.748 11.635-2.043 1.722 7.5-10.383 9.48-11.635 2.043zM70.174 26.3c-1.617-7.962 11.113-9.43 11.583-1.676.365 6.495-9.913 8.12-11.583 1.676z" fill="#fff"/><path d="M90.365 29.976c-2.348 0-5.322-1.257-5.948-4.82-.104-1.676.417-3.195 1.513-4.348 1.2-1.3 3.026-2.043 4.904-2.043 2.2 0 4.8 1.152 5.53 4.348.417 1.78.104 3.352-.887 4.6-1.096 1.362-3.026 2.252-5.113 2.252zm-5.583-4.87c.26 1.467.94 2.62 2.035 3.457.94.733 2.243 1.1 3.548 1.1 1.93 0 3.8-.838 4.852-2.148.94-1.152 1.2-2.67.835-4.348-.678-2.986-3.13-4.033-5.217-4.033-1.774 0-3.496.733-4.643 1.938-1 1.048-1.513 2.462-1.4 4.033zm4.54-.314c0 1.048-.783 1.886-1.722 1.886s-1.722-.838-1.722-1.886.783-1.886 1.722-1.886 1.722.838 1.722 1.886zm-13.67 5.813c-2.243 0-4.852-1.1-5.687-4.243-.365-1.833 0-3.5 1.043-4.767 1.148-1.414 3.026-2.252 5.06-2.252 2.713 0 5.583 1.624 5.8 5.3.104 1.52-.365 2.88-1.4 3.98-1.096 1.205-2.922 2-4.8 2zM76.07 19.7c-1.93 0-3.704.786-4.8 2.095-1 1.205-1.304 2.724-.94 4.452.73 2.933 3.235 3.98 5.322 3.98 1.774 0 3.496-.68 4.6-1.886a4.81 4.81 0 0 0 1.304-3.72c-.104-2.252-1.617-4.924-5.478-4.924zm-1.304 5.552c0 1.048-.783 1.886-1.722 1.886s-1.722-.838-1.722-1.886.783-1.886 1.722-1.886 1.722.838 1.722 1.886z" class="B C"/><path d="M86.087 34c0 .943.21 2.043.052 3.1-.26.47-.73.524-1.148.68-.574-.105-1.043-.47-1.304-.995-.157-1.152.052-2.305.104-3.457l2.296.68z" fill="#fff"/><path d="M84.99 38c-.678-.105-1.2-.524-1.46-1.1-.104-.838-.052-1.624 0-2.4.052-.367.052-.733.052-1.1v-.2l2.66.838v.105c0 .314.052.63.052.995.052.68.104 1.414 0 2.095v.052c-.21.42-.574.524-.94.68-.104-.052-.21 0-.365.052zm-1.148-1.257c.21.47.626.786 1.096.9.104-.052.21-.052.26-.105.313-.105.574-.2.73-.47.104-.63.052-1.3 0-2 0-.314-.052-.63-.052-.9l-1.983-.63c0 .314-.052.63-.052.9-.052.838-.104 1.57 0 2.305z" class="B C"/><path d="M74.2 25.68c0 .262-.2.47-.417.47s-.417-.2-.417-.47.2-.47.417-.47c.26 0 .417.2.417.47m14.6-.48c0 .262-.157.47-.417.47-.2 0-.417-.2-.417-.47s.157-.47.417-.47c.2 0 .417.2.417.47m-7.722 8.705c-.783 1.833.417 5.552 2.504 2.83-.157-1.152.052-2.305.104-3.457l-2.6.63z" fill="#fff"/><path d="M82.174 37.886c-.365 0-.73-.2-.99-.63-.574-.838-.678-2.4-.26-3.405l.052-.105 2.87-.733v.2l-.052 1.152c-.052.786-.104 1.52 0 2.305v.052l-.052.052c-.522.733-1.043 1.1-1.565 1.1zm-.94-3.824c-.313.9-.21 2.305.26 2.986.21.314.417.47.678.47.365 0 .783-.314 1.2-.838-.104-.786-.052-1.57.052-2.305l.052-.9-2.243.576z" class="B C"/><path d="M81.34 30.343c-1.41.105-2.557 1.833-1.826 3.143.99 1.78 3.13-.157 4.487 0 1.565.052 2.817 1.676 4.07.314 1.41-1.52-.626-2.986-2.14-3.667l-4.59.2z" fill="#f6d2a2"/><g class="C"><path d="M86.974 34.533c-.47 0-.94-.2-1.41-.42s-.99-.42-1.565-.42h-.157c-.417 0-.887.157-1.41.367-.574.2-1.148.367-1.67.367-.626 0-1.096-.262-1.41-.838-.365-.63-.313-1.362.052-2.043.417-.786 1.148-1.257 1.93-1.362l4.696-.2c1.148.47 2.452 1.362 2.713 2.4.104.524-.052 1.048-.47 1.52s-.835.63-1.304.63zm-2.922-1.152c.574 0 1.148.262 1.67.47.47.2.887.367 1.304.367.365 0 .678-.157.99-.47a1.39 1.39 0 0 0 .417-1.205c-.21-.9-1.46-1.73-2.452-2.148l-4.54.2c-.678.052-1.304.524-1.67 1.152-.313.576-.313 1.205-.052 1.73.26.47.574.68 1.096.68.47 0 .99-.2 1.513-.367.574-.2 1.043-.367 1.565-.367 0-.105.052-.105.157-.052z" fill="#231f20"/><path d="M81.183 30.3c-.104-2.462 4.59-2.776 5.113-.733.574 2.095-4.904 2.567-5.113.733" class="B"/></g></g></svg>