<svg xmlns="http://www.w3.org/2000/svg" width="166" height="94"><style><![CDATA[.B{fill:#dcd9d8}.C{fill:#231f20}.D{fill:#d33833}.E{stroke:#d33833}.F{stroke-width:1.702}]]></style><g fill-rule="nonzero"><path d="M64.905 45.68c0 9.717-7.666 17.6-17.128 17.6S30.65 55.398 30.65 45.68s7.666-17.6 17.128-17.6 17.128 7.884 17.128 17.6" class="D"/><path d="M31.354 50.04S30.11 31.69 46.948 31.16l-1.174-1.97-9.13 3.082-2.61 3.012-2.28 4.386-1.3 5.108.387 3.415" fill="#ef3d3a"/><path d="M36.05 33.674c-2.997 3.095-4.862 7.357-4.862 12.077s1.865 8.98 4.862 12.076c3.01 3.095 7.14 4.997 11.727 4.997s8.716-1.902 11.727-4.997c2.997-3.096 4.862-7.357 4.862-12.077s-1.865-8.98-4.862-12.077c-3.01-3.082-7.14-4.997-11.727-4.997-4.572 0-8.716 1.902-11.727 4.997zm-.76 24.89c-3.19-3.276-5.166-7.815-5.166-12.812S32.1 36.214 35.3 32.924c3.19-3.276 7.61-5.316 12.487-5.316s9.296 2.04 12.487 5.316S65.43 40.74 65.43 45.75c0 4.997-1.975 9.536-5.166 12.812-3.19 3.3-7.61 5.316-12.487 5.316S38.48 61.852 35.3 58.563z" class="C"/><path fill="#f0d6b7" d="M54.987 45.778l-2.61.39-3.522.403-2.28.056-2.224-.07-1.7-.527-1.506-1.638-1.174-3.345-.262-.722-1.56-.527-.912-1.513-.65-2.166.718-1.902 1.7-.597 1.367.652.65 1.444.787-.125.262-.333-.262-1.513-.07-1.902.387-2.623-.014-1.5 1.188-1.916 2.086-1.513 3.647-1.568 4.047.597 3.522 2.554 1.63 2.623 1.05 1.902.263 4.72-.787 4.067-1.437 3.61-1.353 1.93"/><path fill="#335061" d="M52.777 57.12l-9.324.39v1.568l.787 5.51-.387.458-6.52-2.235-.456-.79-.65-7.412-1.533-4.442-.33-1.055 5.22-3.61 1.63-.652 1.436 1.777 1.243 1.11 1.437.458.65.194.787 3.415.594.722 1.506-.528-1.05 2.04 5.663 2.693-.704.39"/><path fill="#6d6b6d" d="M37.307 34.243l1.7-.597 1.367.652.65 1.444.787-.125.193-.79-.387-1.513.387-3.61-.33-1.97 1.174-1.374 2.54-2.027-.718-.986-3.59 1.777-1.506 1.18-.843 1.832-1.298 1.777-.387 2.096.262 2.235"/><path d="M39.987 28.08s.98-2.43 4.9-3.61.193-.847.193-.847l-4.24 1.638L39.2 26.9l-.718 1.305 1.506-.125m-1.96 5.705s-1.368-4.595 3.854-5.247l-.193-.79-3.59.847-1.05 3.415.262 2.235.718-.458" class="B"/><path d="M40.1 39.88l.856-.833a.55.55 0 0 0 .456.5c.07.458.262 4.595 3.066 6.816.262.208-2.086-.333-2.086-.333l-2.086-3.276m11.796-4.123s.152-1.985.7-1.832.54.694.54.694-1.298.833-1.23 1.138m5.415-7.274s-1.077.222-1.174 1.18 1.174.194 1.367.125m-8.08-1.235s-1.437.194-1.437 1.1 1.63.847 2.086.458m-9.517 2.693s-2.472-1.513-2.735-.07-.843 2.485.387 3.998l-.843-.264-.787-2.027-.263-1.97 1.506-1.568 1.7.125.98.8.055.986m1.174-4.137s1.105-5.775 6.713-6.885c4.613-.916 7.044.194 7.956 1.25 0 0-4.116-4.914-8.025-3.415-3.9 1.513-6.782 4.26-6.713 6.024l.07 3.026m15.125-4.983s-1.892-.07-1.96 1.638a1.38 1.38 0 0 0 .124.528s1.506-1.707 2.417-.8m-8.853.98s-.33-2.6-2.54-1.097c-1.437.986-1.3 2.36-1.05 2.624.262.264.193.8.387.43s.138-1.54.856-1.874c.704-.333 1.892-.694 2.348-.083" fill="#f7e4cd"/><path d="M42.666 46.625l-6.133 2.748s2.542 10.16 1.243 13.312l-.912-.333-.07-3.873-1.7-7.33-.718-2.027 6.395-4.33 1.892 1.832m.622 5.622l.87 1.07v3.928h-1.036l-.124-3.08c0-.333.124-1.513.124-1.513m.193 5.19l-2.942.125.843.597 2.086.333" fill="#49728b"/><g fill="#335061"><path d="M53.357 57.188l2.417-.07.594 6.024-2.472.333-.54-6.288"/><path d="M54.006 57.188l3.646-.194 1.506-3.998c0-.194 1.298-5.51 1.298-5.51l-2.942-3.082-.594-.527-1.56 1.568v6.094l-1.354 5.65"/></g><path d="M55.636 56.73l-2.28.458.332 1.832c.842.39 2.28-.652 2.28-.652m-.263-13.117l4.572 3.415.124-1.57-3.453-3.206-1.243 1.36" fill="#49728b"/><path fill="#fff" d="M45.58 70.098l-1.354-5.51-.677-4.067-.11-3.012 6.12-.333h3.798l-.345 6.885.594 5.316-.07.986-4.96.39-2.997-.652"/><path d="M52.514 57.12s-.33 6.816.65 11.674c0 0-1.96 1.25-4.82 1.568l5.484-.194.65-.39-.787-10.744-.207-2.304" class="B"/><path fill="#fff" d="M56.465 62.63l2.54-.722 4.82-.264.718-2.235-1.3-3.873-1.506-.194-2.086.652-1.99.986-1.064-.194-.83.333"/><path d="M56.424 61.31s1.7-.79 1.96-.722l-.718-3.61.843-.333.594 3.803 3.978.194s.787-1.513.594-3.082l.718 2.096.07 1.18-1.05 1.568-1.174.264-1.96-.07-.65-.847-2.28.333-.718.264" class="B"/><path d="M53.854 56.66l-1.437-3.665-1.506-2.166s.332-.916.787-.916h1.506l1.437.527-.124 2.43-.663 3.79" fill="#fff"/><path d="M54.144 55.412s-1.823-3.54-1.823-4.067c0 0 .332-.79.787-.597s1.437.722 1.437.722v-1.25l-2.224-.458-1.506.194 2.54 6.052.525.07" class="B"/><path fill="#fff" d="M46.16 46.764l-1.81-.194-1.7-.527v.597l.83.916 2.61 1.18"/><path d="M43.246 46.958s2.017.847 2.68.652l.07.79-1.823-.39-1.105-.79.18-.264" class="B"/><path d="M56.465 50.137c-1.105-.028-2.113-.167-2.984-.416.055-.36-.055-.708.04-.972.25-.18.65-.18 1.022-.222-.318-.153-.773-.222-1.133-.125-.014-.25-.124-.403-.193-.597.622-.222 2.086-1.68 2.915-1.208.4.236.566 1.54.594 2.193.028.527-.055 1.055-.262 1.346" class="D"/><path d="M56.465 50.137c-1.105-.028-2.113-.167-2.984-.416.055-.36-.055-.708.04-.972.25-.18.65-.18 1.022-.222-.318-.153-.773-.222-1.133-.125-.014-.25-.124-.403-.193-.597.622-.222 2.086-1.68 2.915-1.208.4.236.566 1.54.594 2.193.028.527-.055 1.055-.262 1.346z" fill="#000" class="E F"/><path d="M51.175 48.318c0 .083 0 .166-.014.25-.345.222-.898.222-1.285.416.553.028.995.166 1.38.347l-.028.64c-.635.43-1.216 1.083-1.96 1.5-.36.194-1.588.694-1.96.597-.207-.056-.235-.32-.318-.57-.18-.527-.594-1.388-.635-2.193-.04-1.013-.152-2.72.94-2.513.884.167 1.906.57 2.583.944.428.25.663.527 1.3.583" class="D"/><path d="M51.175 48.318c0 .083 0 .166-.014.25-.345.222-.898.222-1.285.416.553.028.995.166 1.38.347l-.028.64c-.635.43-1.216 1.083-1.96 1.5-.36.194-1.588.694-1.96.597-.207-.056-.235-.32-.318-.57-.18-.527-.594-1.388-.635-2.193-.04-1.013-.152-2.72.94-2.513.884.167 1.906.57 2.583.944.428.25.663.527 1.3.583z" fill="#000" class="E F"/><path d="M51.796 49.526c-.097-.555-.207-.708-.166-1.194 1.478-.986 1.74 1.694.166 1.194" class="D"/><path d="M51.796 49.526c-.097-.555-.207-.708-.166-1.194 1.478-.986 1.74 1.694.166 1.194z" fill="#000" class="E F"/><path d="M53.923 49.97s-.456-.652-.124-.847.65 0 .843-.333 0-.527.07-.916.387-.458.718-.527 1.243-.194 1.367.125l-.387-1.18-.787-.264-2.472 1.444-.124.722v1.444m-5.953 2.5l-.25-3.068c-.138-1.527.36-1.263 1.685-1.263.207 0 1.243.236 1.312.39.36.736-.594.57.414 1.124.843.458 2.348-.278 2.003-1.32-.193-.236-.994-.07-1.285-.222l-1.533-.79c-.65-.333-2.14-.833-2.832-.36-1.754 1.194.11 4.192.732 5.44" fill="#ef3d3a"/><path d="M48.8 28.913c-1.782-.416-2.666.75-3.205 1.957-.483-.11-.3-.777-.166-1.1.318-.874 1.602-2.054 2.652-1.888.442.056 1.05.472.718 1.04m8.66 2.027h.083c.4.833.746 1.72 1.257 2.47-.345.805-2.57 1.5-2.542.083.483-.208 1.312-.042 1.74-.32-.25-.68-.594-1.263-.54-2.235m-7.763.028c.387.708.51 1.444 1.05 1.97.25.236.718.527.484 1.194-.055.153-.456.5-.69.57-.842.25-2.818.056-2.155-1.013.704.028 1.644.458 2.17-.056-.4-.638-1.12-1.916-.856-2.665m7.445 7.135c-1.27.82-2.694 1.72-4.793 1.513-.442-.39-.622-1.263-.18-1.832.22.39.083 1.1.718 1.22 1.188.208 2.57-.736 3.425-1.055.525-.902-.04-1.222-.525-1.805-.98-1.18-2.28-2.65-2.238-4.414.4-.292.428.444.483.57.51 1.194 1.796 2.735 2.72 3.762.235.25.608.5.65.666.124.472-.318 1.055-.262 1.374m-16.824-.86c-.4-.236-.497-1.235-.967-1.263-.677-.042-.553 1.305-.553 2.096-.456-.416-.54-1.72-.207-2.387-.387-.194-.553.208-.774.347.3-2.013 2.942-.93 2.5 1.208m17.625 1.707c-.594 1.138-1.437 2.388-3.177 2.43-.04-.36-.07-.93 0-1.152 1.34-.14 2.17-.82 3.177-1.277m-8.343.736c1.105.583 3.15.652 4.67.61.083.333.083.75.083 1.152-1.947.083-4.24-.403-4.75-1.763m-.207 1.083c.773 1.943 3.412 1.72 5.635 1.666-.097.25-.304.555-.58.652-.718.292-2.68.514-3.674-.014-.622-.333-1.036-1.097-1.38-1.54-.152-.208-.98-.75 0-.763" class="C"/><path d="M57.045 51.47l-2.83 4.51c.442-1.32.635-3.54.704-5.233.94-.444 1.74.097 2.127.722" fill="#81b0c4"/><path d="M61.893 57.05c-1.008.208-1.713 1.194-2.707 1.124.553-.764 1.492-1.097 2.707-1.124m.442 1.582c-.83.083-1.796.222-2.624.153.4-.61 1.92-.39 2.624-.153m.3 1.374c-.925.014-2.072 0-2.956-.07.525-.57 2.362-.208 2.956.07" class="C"/><path d="M55.305 63.754c.138 1.166.594 2.346.54 3.623-.51.166-.8.32-1.492.32l-.152-3.79c.33.028.83-.236 1.105-.153" class="B"/><path d="M53.813 46.542c-.47.305-.856.68-1.312 1.013-.994.056-1.533-.07-2.25-.638.014-.042.083-.028.083-.083 1.064.472 2.417-.194 3.48-.292" fill="#f0d6b7"/><path d="M48.26 53.8c.3-1.263 1.437-1.93 2.472-2.623 1.064 1.36 1.713 3.11 2.43 4.803-1.7-.514-3.426-1.332-4.904-2.18" fill="#81b0c4"/><path d="M54.2 63.92c-.04 1.04.097 2.693.152 3.79.69 0 .98-.153 1.492-.32.055-1.277-.4-2.457-.54-3.623-.276-.097-.774.167-1.105.153zm-10.663-5.885c.456 4.178 1.105 7.676 2.307 11.382 2.666.82 5.87.888 8.232.153-.428-2.082-.25-4.622-.497-6.857-.193-1.68-.097-3.36-.36-5.067-2.86-.597-6.892-.14-9.683.39zm10.36-.36c-.028 1.79.083 3.567.22 5.358a16.94 16.94 0 0 0 1.782-.319c-.207-1.72-.18-3.678-.608-5.205-.483.014-.912 0-1.395.166zm3.467-.292c-.33-.07-.704 0-1.008 0 .152 1.458.497 3.068.622 4.61.483.014.746-.222 1.146-.292.028-1.346-.11-3.207-.76-4.317zm5.263 4.83c1.022-.25 1.658-1.5 1.367-2.8-.193-.86-.525-2.5-.898-3.054-.262-.402-.994-.944-1.588-.57-.953.61-2.624.79-3.315 1.527.345 1.166.456 2.75.594 4.22 1.188.07 2.638-.333 3.633.097-.69.222-1.575.222-2.17.555.497.236 1.63.194 2.376.014zM53.15 55.98c-.718-1.693-1.367-3.442-2.43-4.803-1.036.694-2.17 1.36-2.472 2.623 1.492.847 3.218 1.666 4.904 2.18zm1.768-5.233c-.07 1.693-.262 3.914-.704 5.233 1.064-1.374 1.934-2.957 2.832-4.51-.387-.625-1.188-1.166-2.127-.722zm-2.003-.708c-.4-.042-.746.472-1.27.25-.124.14-.235.278-.36.416 1.16 1.416 1.7 3.415 2.597 5.067.483-1.596.428-3.33.54-5.067-.663.028-1.036-.625-1.506-.666zm-1.285-1.708c-.04.486.07.64.166 1.194 1.575.5 1.312-2.18-.166-1.194zm-1.754-.583c-.677-.375-1.7-.777-2.583-.944-1.09-.208-.98 1.5-.94 2.513.04.805.456 1.652.635 2.193.083.25.1.514.318.57.373.083 1.616-.402 1.96-.597.746-.402 1.326-1.055 1.96-1.5.014-.208.014-.43.028-.638-.387-.194-.815-.32-1.38-.347.373-.194.94-.194 1.285-.416 0-.083 0-.167.014-.25-.635-.07-.87-.347-1.3-.583zm-6.492-1.18c-.566.583 1.588 1.36 2.265 1.402 0-.36.207-.708.166-.972-.815-.14-1.878-.042-2.43-.43zm6.962.264c0 .056-.07.042-.083.083.732.57 1.27.694 2.25.638.442-.32.843-.708 1.312-1.013-1.077.097-2.43.764-3.48.292zm6.38 1.943c-.028-.64-.193-1.957-.594-2.193-.83-.486-2.293.986-2.914 1.208.07.194.18.347.193.597a1.75 1.75 0 0 1 1.133.125c-.373.042-.773.042-1.022.222-.083.264.028.61-.04.972.87.25 1.88.375 2.984.416.207-.278.3-.805.262-1.346zM42.43 47.125c-.18-.125-1.38-1.694-1.547-1.624-2.17.86-4.2 2.346-6.01 3.762 1.727 3.734 2.43 8.3 2.555 12.7 1.975.93 3.716 2.277 6.41 2.415-.318-2.207-.594-4.192-.773-6.274-.677-.29-1.644.014-2.28-.083 0-.763.967-.333 1.05-.847.055-.39-.54-.416-.345-1.027.497.18.76.583 1.285.736.483-1.055 0-2.93.07-3.817.014-.166.083-.916.456-.79.332.11-.014 2.013.014 2.846.028.777-.097 1.513.22 2 2.597-.36 5.235-.583 8.053-.666-.622-.264-1.354-.514-2.155-.972-.442-.25-1.81-.763-1.934-1.18-.207-.666.525-1.013.65-1.582-1.312.722-1.56-.694-1.878-1.68-.276-.902-.442-1.582-.51-2.096-1.146-.583-2.362-1.124-3.33-1.818zm13.15-1.444c1.8-.874 2.14 3.3 1.423 4.636.11.402.483.555.635.916-1.008 1.818-2.127 3.512-3.163 5.303.76-.486 1.865-.083 2.763-.444.332-.125.566-.888.815-1.5.7-1.666 1.41-3.776 1.727-5.358.07-.36.276-1.152.22-1.472-.083-.583-.856-1.013-1.257-1.36-.732-.666-1.188-1.235-1.96-1.86-.3.458-.953.763-1.202 1.138zM38.3 29.565c-.856.958-.677 2.735-.58 4.012 1.56-.985 3.62.083 3.605 1.75.746-.014.276-.93.138-1.527-.442-1.93.746-4.012.055-5.774-1.34.11-2.43.652-3.218 1.54zm6.16-5.538c-1.947.555-4.448 1.985-5.25 3.748.622-.097 1.05-.402 1.658-.444.235-.014.54.097.8.028.525-.14.98-1.333 1.38-1.777.387-.43.856-.625 1.174-1.013.207-.097.51-.097.525-.403-.083-.097-.18-.166-.3-.14zm10.152.527c-2.03-1.152-5.456-2.013-7.61-.93-1.74.874-4.088 2.318-4.9 4.137.746 1.763-.22 3.373-.3 5.164-.028.958.442 1.777.483 2.818-.262.43-1.036.472-1.575.444-.18-.916-.497-1.943-1.437-2.054-1.326-.153-2.307.958-2.362 2.1-.07 1.36 1.036 3.61 2.61 3.456.608-.056.76-.666 1.423-.666.36.722-.552.944-.65 1.457-.028.14.07.652.138.902.3 1.18.925 2.72 1.547 3.623.8 1.152 2.362 1.32 4.047 1.43.304-.652 1.41-.597 2.127-.43-.87-.347-1.67-1.18-2.334-1.916-.76-.847-1.533-1.75-1.575-2.86 1.45 2.013 2.638 3.776 5.263 4.664 1.99.666 4.3-.306 5.843-1.388.635-.444 1.008-1.166 1.464-1.805 1.685-2.443 2.472-5.913 2.307-9.286-.07-1.388-.07-2.776-.54-3.706-.483-.972-2.127-1.86-3.094-.972-.18-.958.8-1.54 1.947-1.194-.815-1.07-1.67-2.332-2.845-2.998zM58.4 55.94c1.588-.79 4.544-2.124 5.525 0 .373.79.8 2.1.98 2.93.262 1.138-.3 3.554-1.464 3.928-1.036.333-2.238.32-3.48.07-.152-.125-.304-.333-.428-.555-.884-.028-1.727.042-2.417.417.07.666-.373.763-.8.902-.304 1.235.622 2.845.4 3.956-.152.805-1.133.93-1.85 1.07-.028.444.028.82.083 1.194-.166.61-.898.958-1.602 1.04-2.307.278-5.8.402-8.01-.403-.622-1.527-1.105-3.373-1.616-5.108-2.155.236-3.91-.93-5.553-1.707-.566-.264-1.354-.416-1.575-.874-.207-.444-.124-1.29-.18-2.082-.124-2.04-.25-4.012-.773-6.094-.235-.944-.663-1.763-.953-2.665-.276-.833-.746-1.874-.87-2.707-.18-1.235.98-1.305 1.713-1.846 1.146-.833 2.044-1.29 3.287-2.04.373-.222 1.478-.777 1.602-1.04.25-.513-.428-1.235-.608-1.638-.3-.638-.442-1.18-.483-1.805-1.036-.166-1.837-.79-2.307-1.485-.787-1.166-1.34-3.318-.65-4.942.055-.125.318-.39.36-.583.083-.39-.152-.902-.166-1.32-.07-2.124.36-3.956 1.782-4.595.58-2.318 2.652-3.08 4.6-4.234.732-.43 1.533-.708 2.362-1.013 2.97-1.096 7.542-.888 10.014.986 1.05.79 2.72 2.47 3.315 3.692 1.588 3.207 1.464 8.578.36 12.493-.152.527-.36 1.29-.663 1.93-.207.444-.856 1.32-.787 1.707.083.403 1.492 1.47 1.796 1.763.54.527 1.575 1.222 1.657 1.888.097.708-.304 1.68-.51 2.36-.663 2.277-1.326 4.373-2.086 6.413z" class="C"/><path d="M47.832 40.17c.083-.11.552-.29 1.215.028 0 0-.787.125-.718 1.444l-.33-.07c.014.014-.33-1.18-.166-1.402" fill="#f7e4cd"/><path d="M53.55 51.442c0 .194-.166.36-.36.36s-.36-.167-.36-.36.166-.36.36-.36c.207 0 .36.166.36.36m.36 1.68c0 .194-.166.36-.36.36s-.36-.166-.36-.36.166-.36.36-.36c.207 0 .36.153.36.36" fill="#1d1919"/><path d="M84.724 42.746l-.497.072-.473.095c-.213.048-.33.143-.378.286s-.095.286-.095.476v5.8a3.46 3.46 0 0 1-.331 1.477 3.12 3.12 0 0 1-.875 1.119c-.378.286-.804.524-1.277.667a5.13 5.13 0 0 1-1.49.238c-.922 0-1.655-.214-2.222-.667s-.85-1.048-.85-1.834c0-.452.118-.834.378-1.143s.615-.452 1.064-.452c.426 0 .757.12 1.017.38s.378.57.378.93c0 .3-.118.62-.33.88s-.473.524-.757.738v.095c.047.095.142.2.284.262s.307.095.45.095c.59 0 1.064-.214 1.395-.643s.497-1.07.497-1.93v-5.954a1.3 1.3 0 0 0-.071-.452c-.047-.12-.19-.214-.402-.3-.142-.07-.33-.12-.544-.167l-.52-.095v-.572h5.58v.595h.07zm8.748 8.192c-.165.286-.378.547-.615.8s-.52.452-.828.643a4.46 4.46 0 0 1-.993.429c-.33.095-.733.143-1.16.143-.733 0-1.348-.095-1.89-.3-.52-.214-.97-.476-1.3-.833-.355-.357-.59-.762-.78-1.238a4.72 4.72 0 0 1-.26-1.548 3.79 3.79 0 0 1 .284-1.452c.19-.453.45-.88.78-1.238s.757-.643 1.277-.857a4.43 4.43 0 0 1 1.702-.334c.686 0 1.253.096 1.702.262s.804.405 1.088.69.473.62.615 1a4.08 4.08 0 0 1 .189 1.214v.476h-4.99c0 1.024.19 1.786.59 2.3.378.524 1.017.786 1.844.786.473 0 .875-.12 1.253-.38s.7-.6.946-.977l.544.405zm-2.813-2.834c0-.286-.024-.595-.047-.905s-.07-.57-.166-.762c-.095-.238-.19-.405-.355-.524-.142-.12-.33-.167-.544-.167-.378 0-.686.19-.898.572-.237.38-.355 1-.378 1.834l2.388-.048zM103.9 52.7h-4.445v-.548c.095 0 .213-.024.33-.048a2.03 2.03 0 0 0 .307-.071c.094-.048.165-.143.213-.238s.07-.262.07-.452v-3.477c0-.5-.095-.88-.284-1.143s-.45-.38-.828-.38c-.19 0-.378.024-.544.095-.166.048-.33.143-.497.262-.142.095-.26.19-.355.3a1.12 1.12 0 0 0-.213.286v3.977c0 .167.024.3.07.43s.142.215.236.262c.07.048.165.095.284.12l.355.072v.548H94.11v-.548c.118 0 .236-.024.378-.048l.33-.07a.54.54 0 0 0 .331-.262 1.17 1.17 0 0 0 .094-.452v-4.334c0-.143-.047-.3-.118-.452a1.12 1.12 0 0 0-.307-.357c-.095-.048-.19-.12-.33-.143a1.37 1.37 0 0 0-.449-.072v-.548l3.523-.19.118.12v1.072h.024l.496-.453.544-.43c.19-.12.426-.214.71-.3s.615-.12.946-.12c.804 0 1.395.238 1.797.69s.59 1.072.59 1.834v3.643c0 .19.024.334.07.43.047.12.166.19.307.262.07.024.166.072.284.095l.402.072v.57h.047zm10.167 0H110.6l-1.182-1.93-.993-1.453-.426.38v1.62a1.08 1.08 0 0 0 .071.429c.047.12.142.19.307.262.095.048.19.072.307.095s.236.048.355.048v.548h-4.587v-.548c.118 0 .237-.024.378-.048l.33-.07a.54.54 0 0 0 .331-.262c.047-.12.095-.262.095-.452v-8.287c0-.167-.047-.334-.118-.5s-.165-.3-.307-.405c-.095-.048-.236-.12-.426-.143-.19-.048-.355-.072-.52-.072v-.548l3.665-.19.118.12v7.668l1.23-1.143 1.088-1.072c.166-.167.26-.286.26-.38.024-.095.024-.143.024-.167 0-.095-.07-.167-.236-.214s-.378-.12-.71-.167v-.524h3.736v.524l-1.135.38c-.26.12-.544.286-.85.476l-.59.43-.662.548 1.324 1.953 1.277 1.905c.142.238.33.38.568.476.236.072.45.12.686.143v.57h.07zm4.73 0h-4.658v-.548a2.06 2.06 0 0 0 .378-.048l.307-.07a.54.54 0 0 0 .331-.262c.07-.12.094-.262.094-.452v-4.334c0-.167-.047-.334-.118-.452a.72.72 0 0 0-.284-.31c-.095-.048-.213-.12-.402-.167s-.355-.095-.497-.095v-.548l3.617-.19.118.12v5.906c0 .167.047.3.118.452.07.12.19.215.307.262a1.36 1.36 0 0 0 .331.119l.378.072v.548h-.024zm-1.064-10.12c0 .38-.142.7-.426.952s-.64.405-1.017.405c-.402 0-.733-.143-1.04-.405-.284-.262-.426-.595-.426-.953 0-.38.142-.7.426-.976a1.5 1.5 0 0 1 1.04-.405c.402 0 .733.143 1.017.405s.426.595.426.976zm11.49 10.12h-4.445v-.548c.095 0 .213-.024.33-.048.142-.024.236-.048.307-.07.095-.048.165-.143.213-.238s.07-.262.07-.452v-3.477c0-.5-.095-.88-.284-1.143s-.45-.38-.828-.38a1.38 1.38 0 0 0-.544.095c-.166.07-.33.143-.497.262-.142.095-.26.19-.355.3a1.12 1.12 0 0 0-.213.286v3.977c0 .167.024.3.07.43s.142.215.237.262c.07.048.165.095.284.12l.355.072v.548h-4.492v-.548c.118 0 .236-.024.378-.048l.33-.07a.54.54 0 0 0 .331-.262 1.17 1.17 0 0 0 .095-.452v-4.334c0-.143-.047-.3-.118-.452a1.12 1.12 0 0 0-.307-.357c-.095-.048-.19-.12-.33-.143a1.37 1.37 0 0 0-.449-.072v-.548l3.523-.19.118.12v1.072h.024l.496-.453.544-.43c.19-.12.426-.214.71-.3s.615-.12.946-.12c.804 0 1.395.238 1.797.69s.59 1.072.59 1.834v3.643c0 .19.024.334.07.43.047.12.166.19.307.262.07.024.166.072.284.095l.402.072v.57h.047zm4.1.262c-.473 0-.945-.07-1.395-.214s-.804-.286-1.064-.452l-.213.5h-.568l-.095-2.762h.544c.07.214.19.476.378.762.166.286.378.524.59.762a4.07 4.07 0 0 0 .804.572c.307.143.615.238.946.238.45 0 .78-.095.993-.262s.33-.452.33-.8c0-.19-.047-.357-.142-.5a1.44 1.44 0 0 0-.402-.334c-.19-.095-.402-.2-.64-.262l-.85-.262c-.33-.095-.615-.19-.85-.3-.236-.095-.496-.262-.733-.476-.213-.2-.402-.43-.52-.7-.142-.262-.19-.595-.19-.976a1.99 1.99 0 0 1 .875-1.691c.59-.43 1.348-.643 2.293-.643a4.99 4.99 0 0 1 1.23.143c.378.095.686.19.946.3l.165-.43h.567l.118 2.524h-.52c-.166-.524-.473-.953-.875-1.334-.426-.38-.875-.57-1.347-.57-.378 0-.686.07-.9.238s-.33.38-.33.667c0 .38.166.643.473.8s.757.334 1.324.476c.875.238 1.513.548 1.94.93.402.405.615.905.615 1.5 0 .8-.307 1.453-.946 1.882-.71.428-1.537.666-2.553.666z" class="C"/></g></svg>