<svg xmlns="http://www.w3.org/2000/svg" width="166" height="94" fill-rule="nonzero"><path d="M71.163 77.955c-1.533 0-2.98-.68-3.96-1.9L52.3 57.58c-.98-1.23-1.363-2.802-.98-4.33l5.323-23.05c.34-1.528 1.363-2.76 2.768-3.44l21.546-10.273c.68-.34 1.448-.51 2.214-.51a4.98 4.98 0 0 1 2.214.509l21.546 10.23c1.405.68 2.427 1.9 2.768 3.44l5.323 23.05c.34 1.528 0 3.1-.98 4.33L99.138 76.002c-.98 1.188-2.427 1.9-3.96 1.9l-24.016.042z" fill="#326de6"/><path d="M83.128 17.038c.596 0 1.192.127 1.746.382l21.546 10.23c1.107.552 1.96 1.57 2.214 2.76l5.323 23.05a3.96 3.96 0 0 1-.809 3.481L98.244 75.408c-.766.976-1.96 1.528-3.194 1.528H71.163c-1.235 0-2.427-.552-3.194-1.528L53.066 56.942a4.24 4.24 0 0 1-.809-3.481L57.58 30.4c.298-1.23 1.107-2.25 2.214-2.76L81.34 17.378a5.14 5.14 0 0 1 1.788-.34zm0-1.995c-.894 0-1.788.212-2.64.594L58.942 25.9a6.01 6.01 0 0 0-3.32 4.118L50.3 53.068c-.426 1.825 0 3.693 1.192 5.18l14.903 18.466c1.15 1.443 2.895 2.25 4.726 2.25h23.888c1.83 0 3.577-.807 4.726-2.25l14.903-18.466c1.192-1.443 1.618-3.353 1.192-5.18l-5.323-23.05a6.02 6.02 0 0 0-3.32-4.118l-21.46-10.274c-.8-.382-1.703-.594-2.597-.594zm21.588 36.592c-.043 0-.043 0 0 0h-.043c-.043 0-.085 0-.085-.042-.085 0-.17-.042-.255-.042l-.8-.085c-.128 0-.255 0-.426-.043h-.043c-.894-.085-1.618-.17-2.3-.382-.298-.127-.383-.297-.468-.467 0-.042-.043-.042-.043-.085l-.554-.17a16.74 16.74 0 0 0-.298-5.986c-.465-1.978-1.272-3.86-2.385-5.56l.426-.382v-.085a.96.96 0 0 1 .213-.637c.5-.467 1.15-.85 1.916-1.316.128-.085.255-.127.383-.212a6.38 6.38 0 0 0 .724-.424c.043-.042.128-.085.213-.17.043-.043.085-.043.085-.085.596-.5.724-1.358.298-1.9-.213-.297-.596-.467-.98-.467-.34 0-.64.127-.937.34l-.085.085c-.085.042-.128.127-.213.17l-.554.594c-.085.085-.17.212-.298.297-.596.637-1.15 1.146-1.703 1.528-.128.085-.255.127-.383.127-.085 0-.17 0-.255-.043h-.085l-.5.34c-.554-.594-1.15-1.104-1.746-1.613-2.567-2-5.656-3.223-8.9-3.524l-.043-.552-.085-.085c-.128-.127-.298-.255-.34-.552-.043-.68.043-1.443.128-2.292v-.042c0-.127.043-.297.085-.425l.128-.807v-.382c0-.764-.596-1.4-1.32-1.4-.34 0-.68.17-.937.424s-.383.594-.383.976v.34c0 .297.043.552.128.807.043.127.043.255.085.425v.042c.085.85.213 1.613.128 2.292-.043.297-.213.424-.34.552l-.085.085-.043.552-2.3.34a16.43 16.43 0 0 0-8.431 4.755l-.426-.297h-.085c-.085 0-.17.042-.255.042a.69.69 0 0 1-.383-.127c-.554-.382-1.107-.934-1.703-1.57-.085-.085-.17-.212-.298-.297-.17-.212-.34-.382-.554-.594-.043-.043-.128-.085-.213-.17-.043-.042-.085-.042-.085-.085a1.49 1.49 0 0 0-.937-.34c-.383 0-.766.17-.98.467-.426.552-.298 1.4.298 1.9.043 0 .043.043.085.043.085.042.128.127.213.17a6.46 6.46 0 0 0 .724.425 1.72 1.72 0 0 1 .383.212c.766.467 1.405.85 1.916 1.316.213.212.213.424.213.637v.085l.426.382c-.085.127-.17.212-.213.34-2.13 3.354-2.938 7.302-2.385 11.207l-.554.17c0 .043-.043.043-.043.085-.085.17-.213.34-.468.467-.64.212-1.405.297-2.3.382h-.043c-.128 0-.298 0-.426.042-.255 0-.5.042-.8.085-.085 0-.17.043-.255.043-.043 0-.085 0-.128.042-.766.17-1.235.9-1.107 1.57.128.595.68.977 1.363.977.128 0 .213 0 .34-.043.043 0 .085 0 .085-.042.085 0 .17-.042.255-.042a4.09 4.09 0 0 0 .767-.297c.128-.042.255-.127.383-.17h.043c.8-.297 1.533-.552 2.214-.637h.085c.255 0 .426.127.554.212.043 0 .043.042.085.042l.596-.085a16.79 16.79 0 0 0 5.578 7.981c.596.467 1.192.85 1.83 1.23l-.255.552c0 .043.043.043.043.085.085.17.17.382.085.68-.255.637-.64 1.274-1.107 1.995v.042c-.085.127-.17.212-.255.34-.17.212-.298.425-.47.68-.043.042-.085.127-.128.212 0 .042-.043.085-.043.085-.34.722-.085 1.528.554 1.825a1.13 1.13 0 0 0 .51.127c.5 0 1.022-.34 1.277-.807 0-.042.043-.085.043-.085.043-.085.085-.17.128-.212.128-.297.17-.5.255-.764l.128-.382c.298-.85.5-1.528.894-2.123.17-.255.383-.297.554-.382.043 0 .043 0 .085-.042l.298-.552a16.68 16.68 0 0 0 5.961 1.104c1.235 0 2.512-.127 3.705-.424a18.97 18.97 0 0 0 2.214-.637l.255.467c.043 0 .043 0 .085.042.213.042.383.127.554.382.34.594.596 1.316.894 2.123v.042l.128.382c.085.255.128.5.255.764.043.085.085.127.128.212 0 .042.043.085.043.085.255.5.766.807 1.277.807.17 0 .34-.043.5-.127.298-.17.554-.425.64-.764s.085-.722-.085-1.06c0-.042-.043-.042-.043-.085-.043-.085-.085-.17-.128-.212-.128-.255-.298-.467-.468-.68-.085-.127-.17-.212-.255-.34v-.043c-.47-.722-.895-1.358-1.107-1.995-.085-.297 0-.467.043-.68 0-.042.043-.042.043-.085l-.213-.5c2.257-1.316 4.173-3.184 5.62-5.476.766-1.2 1.363-2.505 1.788-3.82l.5.085c.043 0 .043-.042.085-.042.17-.085.298-.212.554-.212h.085c.68.085 1.405.34 2.214.637h.043c.128.042.255.127.383.17a4.11 4.11 0 0 0 .766.297c.085 0 .17.042.255.042.043 0 .085 0 .128.042.128.042.213.042.34.042.64 0 1.192-.424 1.363-.976 0-.5-.468-1.2-1.235-1.4zM85 49.555l-1.874.892-1.874-.892-.468-1.995 1.277-1.613h2.086l1.277 1.613L85 49.555zm11.114-4.415c.33 1.404.43 2.85.298 4.287l-6.515-1.868a1.15 1.15 0 0 1-.809-1.358 1.01 1.01 0 0 1 .255-.467l5.152-4.627a13.59 13.59 0 0 1 1.618 4.033zm-3.662-6.58l-5.578 3.948c-.468.297-1.107.212-1.5-.255-.128-.127-.17-.297-.213-.467l-.383-6.92a12.94 12.94 0 0 1 7.665 3.693zm-12.348-3.48l1.363-.254-.383 6.792c-.043.594-.5 1.104-1.15 1.104-.17 0-.383-.042-.5-.127L73.76 38.56a13 13 0 0 1 6.345-3.481zm-8.388 6.028l5.067 4.5c.468.382.5 1.104.128 1.57a.85.85 0 0 1-.511.34l-6.6 1.9c-.255-2.887.383-5.816 1.916-8.32zm-1.15 11.504l6.77-1.146c.554-.042 1.065.34 1.192.892.043.254.043.467-.043.68l-2.597 6.24a13.39 13.39 0 0 1-5.323-6.665zm15.542 8.448c-.98.212-1.96.34-2.98.34-1.5 0-2.938-.254-4.3-.68l3.364-6.07c.34-.382.894-.552 1.363-.297.2.12.372.28.5.467l3.28 5.9c-.383.127-.8.212-1.235.34zm8.303-5.9c-1.065 1.698-2.47 3.056-4.088 4.118l-2.683-6.4a1.14 1.14 0 0 1 .596-1.316 1.36 1.36 0 0 1 .596-.127l6.813 1.146c-.255.934-.68 1.783-1.235 2.6z" fill="#fff"/></svg>