<svg xmlns="http://www.w3.org/2000/svg" width="166" height="94" fill-rule="nonzero"><path d="M107.415 63.684l-22.83 13.39a3.11 3.11 0 0 1-3.171 0l-22.83-13.39c-.983-.58-1.585-1.64-1.585-2.768V34.138c0-1.16.602-2.188 1.585-2.768l22.83-13.39a3.11 3.11 0 0 1 3.171 0l22.83 13.39c.983.58 1.585 1.64 1.585 2.768v26.778c-.032 1.126-.634 2.188-1.585 2.768z" fill="#8d6748"/><path d="M82.968 21.62c-.476 0-.95.13-1.363.386L61.883 33.56c-.856.483-1.363 1.416-1.363 2.38v23.11c0 .998.507 1.9 1.363 2.382l19.722 11.554c.412.258.888.386 1.363.386s.95-.13 1.363-.386l19.722-11.555c.856-.483 1.363-1.416 1.363-2.38V35.94c0-.998-.507-1.9-1.363-2.38L84.332 22.005c-.412-.257-.888-.386-1.363-.386zm0 .965c.317 0 .602.097.888.258l19.722 11.554c.54.322.888.933.888 1.577v23.11c0 .644-.35 1.255-.888 1.577L83.856 72.213c-.285.16-.57.258-.888.258s-.62-.09-.888-.258L62.358 60.66c-.54-.322-.888-.933-.888-1.577v-23.11a1.86 1.86 0 0 1 .888-1.577L82.08 22.842c.285-.16.602-.258.888-.258zm-1.823 20.148h2.663c.095 0 .16-.032.222-.097 1.585-1.802 1.744-5.568 1.744-6.694a.32.32 0 0 0-.317-.322h-5.96a.32.32 0 0 0-.317.322c0 1.094.16 4.86 1.744 6.694.063.064.127.097.222.097zm-.73-6.115H84.6a.32.32 0 0 1 .317.322c0 .9-.16 3.444-1.237 4.763-.095.065-.158.097-.254.097h-1.87c-.095 0-.16-.032-.222-.097-1.078-1.287-1.205-3.862-1.237-4.763a.32.32 0 0 1 .317-.322zm2.663-1.64s1.142-.676.444-1.9c-.412-.644-.602-1.19-.444-1.416-.412.515-1.1 1.062-.35 2.22.254.3.38.9.35 1.094zm-1.268.096s.76-.45.285-1.287c-.285-.418-.412-.805-.285-.933-.285.354-.73.708-.222 1.513.16.16.222.58.222.708zm-.095 6.34H83.3c.063 0 .127-.032.2-.096.54-.644.793-1.64.92-2.51 0 0-.032.3-.793.58-1.046.386-2.885.13-2.885.13.158.676.412 1.32.793 1.802.032.064.127.096.2.096zm-11.922 9.044V44.02H68.62l-1.934 3.025-1.934-3.025H63.58v6.47h1.1v-4.602l1.966 2.993h.032l1.998-3.025v4.602h1.1zm7.103-6.308a3.64 3.64 0 0 0-1.332-.258c-.476 0-.92.064-1.332.258-.412.16-.76.418-1.046.708a3.24 3.24 0 0 0-.698 1.062 3.58 3.58 0 0 0-.254 1.287v.032a3.45 3.45 0 0 0 .254 1.287c.158.42.38.772.666 1.062s.634.547 1.046.708.856.258 1.332.258.92-.065 1.332-.258c.412-.16.76-.418 1.046-.708a3.24 3.24 0 0 0 .698-1.062c.158-.42.254-.837.254-1.288v-.032a3.45 3.45 0 0 0-.254-1.287c-.158-.418-.38-.772-.666-1.062s-.634-.547-1.046-.708zm.76 3.122c0 .3-.063.58-.16.87-.127.257-.254.515-.444.708a2.54 2.54 0 0 1-.666.483c-.254.13-.54.193-.856.193a1.96 1.96 0 0 1-.856-.193 2.54 2.54 0 0 1-.666-.482c-.2-.226-.35-.45-.444-.74s-.158-.58-.158-.9v-.032c0-.3.063-.58.158-.87.127-.258.254-.515.444-.708a2.54 2.54 0 0 1 .666-.483c.254-.13.54-.193.856-.193s.602.064.856.193a2.54 2.54 0 0 1 .666.483c.2.225.35.45.444.74s.158.58.158.9v.032zm4.693-.966c.127-.258.254-.515.444-.708s.42-.36.666-.483c.254-.13.507-.193.824-.193.38 0 .698.064.983.225s.54.354.793.58l.73-.837a5.58 5.58 0 0 0-.476-.419c-.158-.13-.35-.225-.54-.322l-.666-.193-.793-.064c-.507 0-.92.096-1.332.257s-.76.42-1.046.708a3.72 3.72 0 0 0-.666 1.062c-.166.408-.252.846-.254 1.287v.032c0 .45.095.87.254 1.287s.38.772.666 1.062.634.547 1.015.708a3.19 3.19 0 0 0 1.268.258c.285 0 .57 0 .856-.065.222-.032.476-.13.666-.225s.38-.193.57-.354.35-.3.507-.483l-.73-.74c-.285.258-.57.45-.824.612s-.602.225-.983.225c-.285 0-.57-.097-.824-.193s-.476-.3-.666-.482c-.2-.226-.35-.45-.444-.74a2.83 2.83 0 0 1-.159-.901v-.032c0-.3.064-.58.16-.87zm6.7-2.285v6.437h1.1v-2.704h3.044v2.704h1.1V44.02h-1.1v2.672H90.15V44.02h-1.1zm12.176 4.892l.634 1.545h1.173l-2.8-6.47h-1.015l-2.8 6.47h1.142l.666-1.545h2.98zm-1.5-3.573l1.078 2.575h-2.156l1.078-2.575zm-36.94 7.5h40.427v-.354H62.787v.354zm23.242-12.456c0 .13-.032.225-.032.354h17.217v-.354H86.028zm-7.07 0h-16.17v.354H78.99c0-.13-.032-.225-.032-.354z" fill="#fff"/></svg>