<svg xmlns="http://www.w3.org/2000/svg" xmlns:xlink="http://www.w3.org/1999/xlink" width="166" height="96"><g fill-rule="nonzero"><path d="M139.04 44.53c-.117.023-.234.283-.234.424l-.047 5.138c0 .047.07.14.14.14l1.92.047c1.008 0 1.593-.14 1.922-.282.843-.424 1.242-1.344 1.242-2.357 0-2.286-1.593-3.158-3.96-3.158-.164-.023-.632-.023-.984.047zm6.046 10.535c0-2.333-1.71-3.63-4.803-3.63-.14 0-1.125-.023-1.36.023-.07.024-.164.07-.164.142l.047 5.373c.047.448.375 1.084.773 1.273.42.236 1.382.283 2.038.283 1.85 0 3.468-1.037 3.468-3.464zm-10.825-11.83l2.74.07 4.733-.047c2.038 0 4.85.73 4.85 3.794 0 1.508-1.054 2.7-2.437 3.3-.07.023-.07.07 0 .094 1.968.495 3.702 1.72 3.702 4.03 0 2.263-1.406 3.7-3.444 4.596-1.242.542-2.788.73-4.358.73-1.195 0-4.405-.14-6.186-.094-.187-.07.164-.92.328-1.06.422-.024.75-.047 1.195-.19.633-.165.703-.353.797-1.32l.047-5.82V45.59c-.023-.73-.28-.966-.797-1.108l-1.594-.235c-.117-.118.28-.92.422-1.013zm-13.52 14.66c.563.447 1.664.636 2.648.636 1.265 0 2.53-.235 3.75-1.343 1.242-1.13 2.11-2.875 2.11-5.656 0-2.663-1.007-4.832-3.07-6.104-1.172-.73-2.67-1.037-4.405-1.037-.515 0-1.007.023-1.312.165-.07.047-.234.26-.234.377-.047.47-.047 4.1-.047 6.222l.047 5.61c0 .354.164.896.515 1.13zm-5.32-14.66l2.976.07 5.32-.07c2.343 0 4.31.636 5.717 1.838 1.7 1.485 2.6 3.535 2.6 6.033 0 3.56-1.617 5.61-3.234 6.788-1.616 1.202-3.725 1.91-6.724 1.91-1.593 0-4.335-.047-6.608-.07h-.023c-.117-.212.187-1.037.375-1.06.61-.07.773-.094 1.078-.212.492-.19.586-.448.656-1.32l.047-5.798-.024-5.656c-.07-.825-.42-1.037-1.125-1.178l-1.476-.235c-.094-.165.328-.896.445-1.037z" fill="#8e714e"/><path d="M87.07 58.813c-.586-.07-1.007-.165-1.523-.4-.07-.047-.188-.283-.188-.377l-.047-4.76c0-1.273-.21-2.38-.75-3.158a3.19 3.19 0 0 0-2.718-1.414c-1.03 0-2.413.707-3.562 1.697-.023.023-.21.19-.187-.07 0-.26.047-.778.07-1.13.024-.33-.164-.495-.164-.495-.75.377-2.858.872-3.632.942-.562.118-.703.66-.117.85h.023c.632.188 1.054.4 1.382.613.234.188.21.448.21.66l-.047 5.963c-.023.59-.187.8-.61.895l.047-.023-.984.188c-.14.14-.14.896 0 1.06l2.742-.07 2.74.07c.164-.188.21-.896.117-1.06-.445-.023-.773-.07-1.078-.165-.422-.094-.54-.306-.563-.8l-.046-5.68c0-.495.14-.73.28-.872.54-.47 1.406-.8 2.18-.8.75 0 1.242.236 1.617.542.515.424.68 1.037.75 1.485.117 1.013.07 3.017.07 4.76 0 .943-.07 1.178-.42 1.296-.164.07-.586.165-1.078.212-.164.165-.117.896 0 1.06l2.648-.07 2.765.07c.117-.14.164-.825.07-1.014zm6.5-9.003c-1.242 0-2.015.966-2.015 2.474 0 1.532.68 3.3 2.6 3.3.328 0 .937-.14 1.218-.47.445-.424.75-1.273.75-2.168 0-1.956-.96-3.134-2.554-3.134zm-.164 10.417c-.468 0-.797.14-1.007.26-.984.636-1.43 1.25-1.43 1.98 0 .683.258 1.225.82 1.697.68.59 1.617.872 2.812.872 2.4 0 3.444-1.296 3.444-2.57 0-.896-.445-1.485-1.36-1.815-.656-.283-1.85-.424-3.28-.424zm.164 6.128c-1.43 0-2.46-.306-3.35-1-.867-.66-1.242-1.65-1.242-2.333 0-.188.047-.707.47-1.178.257-.283.82-.825 2.156-1.744.047-.023.07-.047.07-.094s-.047-.094-.094-.117c-1.1-.424-1.43-1.108-1.523-1.485v-.047c-.023-.14-.07-.283.14-.424l.656-.424 1.078-.707c.047-.047.047-.094.047-.14s-.047-.094-.094-.118c-1.64-.542-2.46-1.768-2.46-3.606 0-1.202.54-2.286 1.5-2.97.656-.518 2.296-1.155 3.374-1.155h.07c1.1.023 1.7.26 2.577.566.47.165.914.235 1.523.235.914 0 1.312-.283 1.64-.612.024.047.07.165.094.47a1.79 1.79 0 0 1-.305 1.084c-.187.26-.61.448-1.03.448h-.117l-.61-.094-.093.047c-.023.047 0 .094.023.165l.024.047c.047.212.14.848.14 1.013 0 1.933-.773 2.78-1.593 3.417-.797.59-1.7.966-2.74 1.06-.023 0-.117 0-.328.023-.117 0-.28.024-.305.024h-.023c-.187.047-.656.283-.656.683 0 .353.21.778 1.218.85l.656.047c1.336.094 3 .212 3.772.47a2.64 2.64 0 0 1 1.757 2.522c0 1.744-1.242 3.37-3.304 4.384a7.5 7.5 0 0 1-3.116.684zm13.355-16.427c-.492 0-.937.117-1.265.353-.914.566-1.382 1.697-1.382 3.347 0 3.088 1.546 5.256 3.75 5.256.656 0 1.172-.19 1.617-.566.68-.566 1.03-1.697 1.03-3.276 0-3.064-1.523-5.114-3.75-5.114zm.422 10.087c-3.983 0-5.413-2.946-5.413-5.703 0-1.933.773-3.417 2.32-4.478 1.1-.683 2.414-1.06 3.585-1.06 3.046 0 5.178 2.192 5.178 5.35 0 2.145-.843 3.84-2.46 4.878-.773.518-2.11 1.013-3.2 1.013zM65.585 49.928c-.492 0-.937.118-1.265.353-.914.566-1.382 1.697-1.382 3.347 0 3.088 1.546 5.256 3.75 5.256.656 0 1.172-.19 1.617-.566.68-.566 1.03-1.697 1.03-3.276 0-3.064-1.5-5.114-3.75-5.114zm.422 10.087c-3.983 0-5.413-2.946-5.413-5.703 0-1.933.773-3.417 2.32-4.478 1.1-.683 2.414-1.06 3.585-1.06 3.046 0 5.178 2.192 5.178 5.35 0 2.145-.843 3.84-2.46 4.878-.75.518-2.085 1.013-3.2 1.013zm-26.782-.236c-.047-.07-.094-.283-.07-.542a.8.8 0 0 1 .07-.353c.492-.07.75-.142 1.03-.212.47-.118.656-.377.68-.966l.047-6c0-.212 0-.47-.258-.66-.375-.235-.82-.447-1.406-.613-.21-.07-.35-.188-.328-.33 0-.14.14-.306.445-.354.773-.07 2.788-.565 3.585-.92.047.047.117.19.117.377l-.023.26-.047.872c0 .094.094.165.187.165.047 0 .094-.023.14-.047 1.5-1.178 2.858-1.603 3.56-1.603 1.148 0 2.04.542 2.718 1.673.047.07.094.094.164.094.047 0 .117-.023.14-.07 1.383-1.06 2.765-1.697 3.68-1.697 2.18 0 3.468 1.626 3.468 4.384l-.023 2.7-.023 2.12c0 .117.164.495.42.565.328.165.773.236 1.36.33h.023c.047.165-.047.778-.14.896-.14 0-.352 0-.586-.023l-1.78-.047-2.93.07c-.046-.188-.07-.754 0-.896.422-.07.633-.14.89-.212.47-.14.586-.354.61-.966L54.9 52.59c-.14-.943-.843-2.05-2.4-2.05-.586 0-1.5.236-2.4.92-.047.047-.094.165-.094.236v.024c.094.495.094 1.06.094 1.933v4.336c0 .52.305.636.562.73l.35.07.75.165c.047.094.047.4-.023.66-.024.14-.07.212-.094.236l-2.812-.047-1.476.024-1.054.023c-.024-.047-.07-.212-.07-.47 0-.212.047-.377.094-.424.117-.023.21-.047.328-.047l.75-.14c.4-.118.54-.33.562-.848.07-1.178.14-4.55-.023-5.397-.28-1.367-1.054-2.05-2.296-2.05-.726 0-1.64.353-2.4.92-.117.094-.21.33-.21.542v1.39l.023 4.737c.024.282.117.613.656.73.117.023.305.07.54.094l.42.07c.047.14.024.707-.07.896-.234 0-.515-.023-.844-.023l-1.827-.047-1.875.047c-.328-.047-.586-.047-.867-.047z" fill="#442d22"/><use xlink:href="#B" fill="#fff"/><use xlink:href="#B" fill="#a6a385"/><use xlink:href="#C" fill="#fff"/><use xlink:href="#C" fill="#499d4a"/><use xlink:href="#D" fill="#fff"/><use xlink:href="#D" fill="#58aa50"/></g><defs ><path id="B" d="M26.9 65.435l-.96-.33s.117-4.925-1.64-5.28c-1.17-1.367.188-57.977 4.405-.19 0 0-1.453.73-1.71 1.98-.28 1.226-.094 3.818-.094 3.818z"/><path id="C" d="M27.416 60.675s8.412-5.562 6.443-17.134c-1.898-8.413-6.373-11.17-6.865-12.23-.54-.754-1.054-2.074-1.054-2.074l.352 23.402c0 .024-.726 7.165 1.125 8.037"/><path id="D" d="M25.448 60.98s-7.896-5.42-7.428-14.965c.445-9.545 6.022-14.235 7.1-15.083.703-.754.726-1.037.773-1.79.492 1.06.398 15.86.468 17.605.21 6.717-.375 12.963-.914 14.235z"/></defs></svg>