<svg xmlns="http://www.w3.org/2000/svg" width="166" height="96" fill-rule="nonzero"><path d="M31.976 70.375h3.345V57.052l5.224 11.616c.592 1.396 1.44 1.914 3.088 1.914s2.445-.518 3.062-1.914l5.198-11.616v13.323h3.37V57.052c0-1.293-.515-1.915-1.596-2.252-2.547-.776-4.246-.103-5.018 1.63l-5.12 11.487L38.6 56.43c-.746-1.733-2.47-2.405-5.044-1.63-1.055.336-1.57.958-1.57 2.252l-.001 13.323zm26.067-10.84h3.37v7.322c-.025.413.13 1.345 1.956 1.37h7.308v-8.744h3.37V71.46c0 2.95-3.628 3.596-5.327 3.622h-10.6v-2.25h10.627c2.162-.233 1.904-1.32 1.904-1.682v-.88h-7.128c-3.32-.026-5.455-1.5-5.48-3.182v-7.554zm72.307-8.486c-2.058-.052-3.654.155-4.992.725-.385.156-1.004.156-1.054.647.206.206.23.543.4.828.3.518.85 1.215 1.338 1.578l1.647 1.2c1.004.62 2.136.983 3.113 1.604.566.362 1.132.828 1.698 1.217.283.207.463.544.824.673v-.078c-.18-.232-.232-.568-.4-.828l-.773-.75a12.17 12.17 0 0 0-2.677-2.613c-.824-.57-2.625-1.345-2.96-2.303l-.05-.052c.565-.052 1.235-.26 1.775-.415.875-.232 1.673-.18 2.573-.413l1.236-.362v-.233c-.463-.466-.798-1.087-1.286-1.526-1.312-1.138-2.754-2.25-4.246-3.182-.798-.517-1.827-.854-2.675-1.293-.3-.155-.824-.233-1.004-.492-.464-.57-.72-1.32-1.055-1.992l-2.1-4.5c-.463-1-.747-2.018-1.312-2.95-2.65-4.398-5.533-7.063-9.96-9.676-.952-.543-2.084-.776-3.294-1.06l-1.93-.104c-.412-.18-.824-.673-1.184-.906-1.467-.93-5.25-2.95-6.33-.285-.695 1.682 1.03 3.337 1.62 4.2.438.595 1.004 1.268 1.313 1.94.18.44.23.906.4 1.37.4 1.138.798 2.406 1.338 3.467.283.543.6 1.113.952 1.604.206.285.566.414.643.88-.36.518-.385 1.294-.6 1.94-.927 2.924-.566 6.545.746 8.692.412.647 1.4 2.07 2.703 1.526 1.158-.466.9-1.94 1.235-3.234.078-.3.026-.517.18-.724v.052l1.055 2.147c.798 1.268 2.188 2.587 3.346 3.467.617.466 1.106 1.268 1.878 1.552V52.3h-.05c-.155-.232-.386-.336-.592-.517-.463-.466-.978-1.035-1.338-1.552-1.08-1.448-2.032-3.053-2.88-4.708-.412-.802-.773-1.682-1.106-2.483-.156-.3-.156-.776-.412-.93-.386.57-.952 1.06-1.236 1.76-.5 1.112-.54 2.483-.72 3.906-.104.026-.052 0-.104.052-.822-.206-1.106-1.06-1.415-1.785-.772-1.837-.9-4.786-.232-6.908.18-.543.953-2.25.644-2.768-.156-.492-.67-.776-.953-1.164-.335-.492-.694-1.112-.926-1.655-.617-1.45-.926-3.053-1.595-4.502-.3-.673-.85-1.37-1.287-1.992-.5-.7-1.028-1.2-1.415-2.018-.13-.285-.3-.75-.103-1.06.05-.207.155-.285.36-.336.335-.285 1.287.078 1.622.233.952.388 1.75.75 2.547 1.293.36.26.747.75 1.2.88h.54c.824.18 1.75.052 2.52.284 1.364.44 2.6 1.087 3.706 1.785 3.37 2.147 6.15 5.2 8.028 8.848.3.595.437 1.138.72 1.76.54 1.268 1.2 2.56 1.75 3.803.54 1.216 1.055 2.458 1.827 3.467.386.543 1.93.827 2.625 1.112.515.233 1.312.44 1.776.724.874.543 1.75 1.164 2.573 1.76.4.3 1.698.956 1.775 1.473zm-26.247-22.48c-.437 0-.746.052-1.054.13v.052h.05c.206.414.566.7.824 1.06l.592 1.242.05-.052c.36-.26.54-.673.54-1.294-.155-.18-.18-.362-.3-.543-.155-.26-.5-.388-.696-.595z" fill="#00678c"/><path d="M76.622 70.375h9.675c1.132 0 2.214-.232 3.088-.647 1.467-.673 2.162-1.578 2.162-2.768v-2.483c0-.957-.798-1.863-2.392-2.483-.824-.3-1.853-.492-2.857-.492h-4.065c-1.364 0-2.007-.415-2.188-1.32-.025-.103-.025-.207-.025-.3v-1.527c0-.078 0-.18.025-.284.18-.7.54-.88 1.724-1.01h9.907v-2.252h-9.42c-1.364 0-2.084.078-2.727.285-1.982.62-2.857 1.604-2.857 3.336v1.967c0 1.526 1.698 2.82 4.58 3.13.31.026.643.026.978.026h3.474c.13 0 .257 0 .36.026 1.055.103 1.52.284 1.827.67.206.207.258.388.258.622v1.966c0 .232-.155.544-.463.802s-.8.44-1.442.466c-.13 0-.205.026-.335.026h-9.288v2.25zm35.87-3.906c0 2.303 1.724 3.596 5.173 3.855l.978.05h8.75v-2.25h-8.826c-1.957 0-2.703-.492-2.703-1.682V54.8h-3.372l.001 11.668zm-18.8.103v-8.02c0-2.044 1.44-3.287 4.246-3.674l.9-.052h6.38c.335 0 .618.026.953.052 2.805.387 4.22 1.63 4.22 3.674v8.02c0 1.655-.59 2.536-1.982 3.13l3.294 3h-3.885l-2.677-2.43-2.703.155h-3.602c-.59 0-1.26-.077-1.956-.258-2.134-.596-3.2-1.734-3.2-3.597zm3.628-.18c0 .103.052.206.078.336.18.93 1.054 1.448 2.392 1.448h3.037l-2.78-2.536h3.885l2.444 2.225c.464-.26.747-.622.85-1.087.026-.103.026-.232.026-.336V58.76c0-.103 0-.206-.026-.3-.18-.88-1.054-1.37-2.367-1.37h-5.07c-1.493 0-2.47.647-2.47 1.68v7.633zm31.626 4.01h.49v-1.888h.643v-.388h-1.8v.388h.67v1.888zm3.73 0h.463v-2.276h-.694l-.566 1.553-.617-1.553h-.67v2.276h.437V68.67h.026l.643 1.733h.335l.643-1.733v1.733z" fill="#ce8b2c"/></svg>