<svg xmlns="http://www.w3.org/2000/svg" width="166" height="96" fill="none" fill-rule="evenodd"><g fill-rule="nonzero"><path d="M34.224 62.87h-5.47v-5.544h5.768c2.1 0 3.167.938 3.167 2.815 0 1.82-1.155 2.73-3.464 2.73zm3.932-5.6c-.75-.677-1.8-1.015-3.147-1.015l-7.835.044v13.263h1.578l-.015-5.646h5.83c1.462 0 2.613-.338 3.452-1.014s1.26-1.615 1.26-2.815-.375-2.14-1.124-2.815zm10.217 9.5a2.72 2.72 0 0 1-.749 1.128c-.707.696-1.786 1.043-3.237 1.043-1.3 0-2.316-.338-3.018-1.014s-1.053-1.58-1.053-2.714c0-.6.092-1.114.276-1.57s.45-.843.798-1.157c.726-.667 1.724-1 2.997-1 2.818 0 4.226 1.243 4.226 3.728 0 .6-.08 1.1-.24 1.557zm.286-4.893c-.962-.884-2.386-1.326-4.272-1.326-1.783 0-3.16.452-4.13 1.354-.877.817-1.315 1.92-1.315 3.307 0 1.378.453 2.5 1.358 3.335.5.456 1.082.787 1.747 1s1.445.306 2.34.306c1.877 0 3.305-.437 4.286-1.3.877-.798 1.316-1.905 1.316-3.32 0-1.425-.443-2.537-1.33-3.336zm11.94 5.275c0 1.785-1.587 2.678-4.762 2.678-.97 0-1.788-.062-2.452-.186s-1.203-.33-1.618-.617a2.39 2.39 0 0 1-.763-.855c-.188-.35-.3-.793-.367-1.325l1.477-.014c0 .703.258 1.22.776 1.553.555.4 1.537.598 2.948.598 2.22 0 3.328-.56 3.328-1.68 0-.655-.372-1.106-1.116-1.353-.15-.048-1.048-.173-2.692-.377s-2.668-.387-3.073-.548c-.876-.35-1.314-.983-1.314-1.895 0-.893.4-1.558 1.174-1.994.387-.18.87-.32 1.45-.42s1.252-.15 2.016-.15c3.056 0 4.584.966 4.584 2.898H58.8c0-1.358-1.074-2.037-3.222-2.037-1.093 0-1.908.138-2.445.413s-.805.698-.805 1.268c0 .532.363.916 1.088 1.154.424.124 1.4.266 2.926.428 1.366.124 2.304.3 2.813.527.97.38 1.456 1.026 1.456 1.937zm5.803 2.418l-.6.085-.375.028c-.962 0-1.655-.14-2.08-.42s-.638-.773-.638-1.477v-6.053h-1.752v-.9h1.738l.014-2.86h1.347v2.86H66.4v.905l-2.345-.015v5.9c0 .44.115.74.346.908s.643.25 1.237.25c.085.01.18.007.283-.01a4.94 4.94 0 0 0 .467-.107l.014.908zm9.314-2.007c-.367.304-.786.536-1.258.698s-1.013.242-1.625.242c-2.816 0-4.224-1.172-4.224-3.516 0-1.1.36-1.945 1.08-2.562s1.735-.925 3.045-.925c1.32 0 2.32.3 3.002.932s1.024 1.454 1.024 2.498c0 1.14-.35 2.016-1.046 2.633zm2.392-6.715h-1.347l-.014 1.496c-.594-.607-1.018-1-1.272-1.153-.754-.417-1.73-.626-2.926-.626-1.753 0-3.092.403-4.015 1.2-.877.74-1.315 1.813-1.315 3.218 0 .693.1 1.312.333 1.858a3.7 3.7 0 0 0 .97 1.388c.925.778 2.232 1.168 3.922 1.168 2.03 0 3.47-.56 4.318-1.678v1.55c0 .988-.3 1.752-.926 2.293s-1.633.812-3.047.812c-1.33 0-2.276-.185-2.84-.553-.424-.283-.716-.775-.876-1.475H67.69c.15.977.56 1.684 1.23 2.12.773.503 2.08.754 3.917.754 3.516 0 5.275-1.317 5.275-3.952v-8.43zm7.284.882c-.405-.066-.78-.1-1.13-.1-2.214 0-3.32 1.223-3.32 3.67v4.254H79.6l-.015-8.704 1.347.013v1.553h.07c.226-.612.584-1.076 1.074-1.4.537-.306 1.337-.46 2.4-.46h.904v1.165zm1.253 2.92c.17-1 .55-1.755 1.144-2.297a3.98 3.98 0 0 1 1.314-.706c.49-.156 1.04-.236 1.654-.236 1.196 0 2.173.33 2.932.992s1.137 1.4 1.137 2.247h-8.18zm8.313-2.685c-.472-.476-1.056-.83-1.754-1.057s-1.513-.343-2.447-.343c-1.745 0-3.098.4-4.06 1.226s-1.443 1.93-1.443 3.336.462 2.523 1.386 3.35c1 .912 2.408 1.368 4.228 1.368.725 0 1.397-.083 2.014-.248a5.56 5.56 0 0 0 1.62-.703c.8-.587 1.324-1.3 1.54-2.17h-1.456c-.5 1.488-1.743 2.232-3.73 2.232-1.404 0-2.483-.364-3.237-1.092-.65-.624-.975-1.432-.975-2.425h9.6c0-1.476-.43-2.634-1.287-3.473z" fill="#231f20"/><path d="M110.473 65.997c0 2.584-2.068 3.876-6.205 3.876-2.48 0-4.288-.445-5.428-1.335-.933-.732-1.4-1.847-1.4-3.348h1.665c0 2.412 1.72 3.618 5.16 3.618 1.65 0 2.843-.247 3.578-.74.622-.436.933-1.12.933-2.05 0-.92-.424-1.566-1.273-1.936-.48-.2-1.655-.45-3.522-.755-2.347-.36-3.87-.72-4.567-1.082-1-.532-1.513-1.433-1.513-2.705 0-1.186.43-2.07 1.287-2.648.923-.636 2.507-.954 4.752-.954 4.054 0 6.08 1.357 6.08 4.07h-1.68c0-2.033-1.505-3.05-4.516-3.05-1.5 0-2.614.204-3.312.613-.66.437-1 1.078-1 1.924 0 .884.424 1.506 1.273 1.867.452.2 1.782.5 3.988.87 2.075.314 3.474.68 4.2 1.097 1 .513 1.485 1.402 1.485 2.665zM124 67.316a6.48 6.48 0 0 1-2.109 1.131c-.784.25-1.66.377-2.633.377-1.982 0-3.583-.538-4.806-1.614s-1.832-2.5-1.832-4.302c0-1.868.606-3.323 1.818-4.366s2.82-1.565 4.82-1.565c2.03 0 3.624.545 4.784 1.636.613.53 1.066 1.152 1.36 1.863s.44 1.522.44 2.432c0 1.86-.614 3.328-1.84 4.4zm.885.88c.868-.616 1.5-1.364 1.925-2.24s.623-1.9.623-3.04c0-2.06-.68-3.7-2.037-4.954-.726-.683-1.603-1.2-2.63-1.523s-2.202-.498-3.522-.498c-2.565 0-4.578.626-6.04 1.88s-2.192 2.95-2.192 5.096c0 2.087.737 3.772 2.212 5.053s3.5 1.92 6.045 1.92c1 0 1.87-.068 2.615-.204s1.376-.346 1.895-.628l2.46 1.718 1.027-.95-2.382-1.628zm15.02 1.357h-11.38V56.275l1.564-.03v12.197h9.83z" fill="#367faf"/><path d="M90.662 45.584c.206-1.73.144-1.985 1.424-1.705l.325.03c.984.045 2.27-.16 3.027-.513 1.628-.76 2.593-2.032.988-1.698-3.66.76-3.913-.488-3.913-.488 3.866-5.78 5.482-13.118 4.087-14.913-3.805-4.9-10.39-2.582-10.5-2.522l-.035.007c-.724-.15-1.533-.242-2.443-.256-1.657-.027-2.914.438-3.867 1.166 0 0-11.75-4.877-11.203 6.134.116 2.343 3.332 17.725 7.168 13.08 1.402-1.7 2.757-3.135 2.757-3.135.673.45 1.478.68 2.323.598l.065-.056c-.02.21-.01.417.026.66-.988 1.112-.698 1.308-2.673 1.718-2 .415-.824 1.154-.058 1.347.93.234 3.08.566 4.532-1.483l-.058.234c.388.312.36 2.246.416 3.627s.147 2.67.426 3.43.61 2.717 3.206 2.157c2.17-.468 3.83-1.143 3.98-7.416" stroke="#231f20" stroke-width="2.723" fill="#231f20"/><path d="M96.427 41.697c-3.662.76-3.913-.488-3.913-.488 3.866-5.78 5.482-13.118 4.088-14.914-3.805-4.898-10.39-2.582-10.5-2.522l-.035.006a12.96 12.96 0 0 0-2.443-.256c-1.657-.027-2.913.438-3.867 1.166 0 0-11.75-4.877-11.203 6.134.116 2.343 3.332 17.725 7.168 13.08 1.402-1.7 2.757-3.135 2.757-3.135.673.45 1.478.68 2.323.598l.066-.056a2.6 2.6 0 0 0 .026.661c-.988 1.112-.698 1.308-2.673 1.718-2 .415-.825 1.154-.058 1.347.93.234 3.08.566 4.532-1.483l-.058.234c.387.312.66 2.032.613 3.592s-.076 2.63.23 3.466.61 2.717 3.206 2.157c2.17-.468 3.294-1.683 3.45-3.708.11-1.44.362-1.227.378-2.514l.202-.61c.232-1.952.037-2.582 1.374-2.29l.325.03c.984.045 2.272-.16 3.027-.513 1.628-.76 2.593-2.032.988-1.698z" fill="#417ba2"/></g><g stroke="#fff"><g stroke-width=".908"><g stroke-linecap="round"><path d="M82.85 42.816c-.1 3.632.025 7.3.378 8.178s1.108 2.618 3.705 2.057c2.17-.47 2.96-1.376 3.302-3.378l.8-6.402m-11.3-18.66s-11.758-4.842-11.2 6.17c.116 2.343 3.332 17.726 7.168 13.08 1.402-1.7 2.67-3.032 2.67-3.032m7.723-17.103c-.407.13 6.54-2.56 10.5 2.524 1.395 1.796-.222 9.134-4.088 14.914" stroke-linejoin="round"/><path d="M92.488 41.163s.252 1.25 3.914.488c1.604-.334.64.937-.988 1.698-1.335.624-4.33.785-4.378-.078-.126-2.226 1.576-1.55 1.453-2.108-.11-.502-.872-.996-1.375-2.225-.44-1.073-6.027-9.305 1.55-8.082.278-.058-1.976-7.26-9.067-7.38s-6.856 8.784-6.856 8.784" stroke-linejoin="bevel"/></g><g stroke-linejoin="round"><path d="M80.864 41.925c-.988 1.112-.698 1.308-2.673 1.718-2 .415-.824 1.154-.058 1.347.93.234 3.08.566 4.532-1.484.443-.624-.003-1.62-.6-1.874-.294-.122-.686-.276-1.19.293z"/><path d="M80.8 41.905c-.1-.654.213-1.432.55-2.343.504-1.366 1.666-2.733.736-7.066-.693-3.23-5.342-.672-5.345-.234s.2 2.22-.078 4.295c-.376 2.708 1.7 4.997 4.11 4.763" stroke-linecap="round"/></g></g><path d="M79.693 32.196c-.02.15.272.55.653.602s.707-.258.728-.408-.272-.314-.653-.368-.707.025-.728.174zm11.605-.306c.02.15-.272.55-.653.602s-.707-.258-.728-.408.272-.314.654-.368.707.024.728.174z" fill-rule="nonzero" stroke-width=".524" fill="#fff"/><path d="M92.662 30.856c.063 1.173-.25 1.972-.3 3.22-.06 1.815.86 3.893-.523 5.973" stroke-width=".908" stroke-linecap="round" stroke-linejoin="round"/></g></svg>