<svg xmlns="http://www.w3.org/2000/svg" width="166" height="94" fill-rule="nonzero"><path d="M98.073 28.67l-1.518-.476.235-1.03c1.15-5.546.398-10.014-2.168-11.485-2.46-1.41-6.483.06-10.546 3.576-.4.347-.792.704-1.174 1.07a28.65 28.65 0 0 0-.781-.718c-4.258-3.76-8.527-5.344-11.1-3.87-2.458 1.415-3.186 5.615-2.15 10.87.103.52.22 1.038.35 1.553a31.41 31.41 0 0 0-1.745.546c-4.992 1.73-8.18 4.443-8.18 7.257 0 2.906 3.423 5.82 8.623 7.588.422.143.847.275 1.275.396-.14.554-.263 1.113-.37 1.674-.986 5.165-.216 9.266 2.235 10.672 2.532 1.452 6.78-.04 10.918-3.637.327-.284.655-.586.984-.902.414.397.84.783 1.275 1.156 4.008 3.43 7.966 4.814 10.415 3.404 2.53-1.456 3.35-5.862 2.284-11.222a26.43 26.43 0 0 0-.283-1.253 27.78 27.78 0 0 0 .877-.272c5.406-1.78 8.923-4.66 8.923-7.605 0-2.824-3.29-5.554-8.384-7.298z" fill="#53c1de"/><path d="M96.9 41.67l-.792.246c-.597-1.88-1.402-3.876-2.388-5.94.94-2.015 1.715-3.987 2.295-5.853l1.402.44c4.364 1.493 7.026 3.702 7.026 5.404 0 1.813-2.875 4.166-7.542 5.704zm-1.937 3.816c.472 2.37.54 4.513.227 6.188-.28 1.505-.846 2.51-1.544 2.91-1.486.855-4.664-.256-8.092-3.19l-1.186-1.075c1.33-1.445 2.657-3.125 3.953-4.99 2.28-.2 4.434-.53 6.387-.98l.255 1.134zm-19.586 8.95c-1.452.5-2.608.524-3.307.124-1.488-.853-2.106-4.146-1.262-8.563l.344-1.557c1.93.425 4.07.73 6.355.915 1.305 1.825 2.67 3.503 4.048 4.973l-.898.823c-1.83 1.6-3.663 2.718-5.28 3.286zM68.576 41.66c-2.3-.78-4.198-1.797-5.5-2.905-1.17-.996-1.76-1.985-1.76-2.787 0-1.707 2.56-3.885 6.83-5.365l1.623-.508c.6 1.908 1.364 3.904 2.298 5.922-.946 2.048-1.73 4.075-2.327 6.006l-1.164-.362zm2.28-15.433c-.886-4.504-.298-7.9 1.183-8.753 1.578-.908 5.066.387 8.743 3.633l.707.65c-1.37 1.463-2.724 3.128-4.017 4.943-2.218.204-4.34.533-6.293.972l-.324-1.445zm20.34 4.994l-1.434-2.345 4.3.747c-.406 1.295-.913 2.65-1.51 4.038l-1.357-2.44zm-8.295-8.034c.93 1 1.86 2.118 2.775 3.33l-5.573-.001 2.798-3.33zm-8.348 8.047l-1.33 2.425-1.498-4.057 4.275-.73-1.446 2.362zm1.49 11.97l-4.346-.695a44.75 44.75 0 0 1 1.528-4.139l1.337 2.426 1.48 2.408zm6.915 5.683c-.955-1.024-1.907-2.157-2.837-3.376l2.76.053 2.847-.063-2.768 3.386zm9.615-10.6l1.584 4.125c-1.367.3-2.843.56-4.4.746l1.448-2.386 1.368-2.484zm-3.113 1.484l-2.262 3.63-4.318.15c-1.467 0-2.895-.045-4.27-.134l-2.305-3.635-2.012-3.778 2.006-3.78 2.286-3.62 4.294-.16 4.302.162 2.272 3.607 2.033 3.762-2.026 3.795zm4.156-22.368c1.58.906 2.193 4.557 1.2 9.346l-.212.932c-1.956-.45-4.08-.783-6.305-1-1.296-1.835-2.638-3.503-3.986-4.947l1.084-.99c3.48-3.013 6.735-4.202 8.218-3.352z" fill="#fff"/><path d="M82.88 31.78a4.2 4.2 0 0 1 4.211 4.187 4.2 4.2 0 0 1-8.422 0 4.2 4.2 0 0 1 4.211-4.187" fill="#53c1de"/><path d="M85.71 68.906l.012 10.16c.003.513-.11.696-.658.675-1.066-.042-1.067-.01-1.067-1.072l-.013-11.505c-.003-.514.172-.57.64-.64 1.327-.192 2.02.324 2.61 1.532 1.475 3.024 3.128 5.963 4.71 8.935.066.123.15.236.33.518v-.78l-.01-9.47c-.004-.523.076-.758.684-.728 1.033.053 1.035.01 1.035 1.055L94 79.1c.004.544-.177.594-.67.664-1.33.187-2.006-.333-2.59-1.54-1.442-2.97-3.07-5.85-4.628-8.764-.095-.178-.135-.4-.4-.544zm17.797 9.52c-1.17 1.488-2.672 1.766-4.35 1.43-1.188-.237-2.064-1.18-2.237-2.327-.228-1.517.256-2.738 1.353-3.377.812-.474 1.715-.614 2.636-.643.766-.024 1.533-.02 2.3-.004.3.006.397-.102.388-.406-.03-.99-.765-1.8-1.884-2.014-1.232-.237-2.418-.035-3.548.46-.47.206-.568.174-.607-.372-.052-.715.23-.99.884-1.166 1.166-.312 2.333-.46 3.533-.316 1.864.224 3.114 1.505 3.212 3.52.1 2.05.035 4.107.052 6.162.002.28-.102.383-.373.357-.397-.038-.884.162-1.173-.09s.01-.76-.185-1.214zm-2.937.18c1.81.106 3.124-1.45 3.03-3.532-.01-.206-.077-.31-.298-.308-1.19.017-2.386-.08-3.553.25-.62.177-1.042.542-1.188 1.193-.315 1.398.5 2.363 2.01 2.395zm38.992-.88c.053 1.824.3 1.446-1.302 1.95-1.02.32-2.09.4-3.16.264-3.148-.4-4.547-2.81-4.28-5.715.17-1.842.886-3.402 2.685-4.156 3.005-1.258 6.71-.02 6.483 4.758-.02.42-.28.34-.52.34-2.108.003-4.216.025-6.323-.013-.596-.01-.664.205-.578.7.285 1.64 1.44 2.654 3.11 2.74 1.352.07 2.61-.25 3.882-.868zm-4.137-3.816V73.9h2.166c.808-.001.867-.078.67-.865-.337-1.346-1.464-2.163-2.82-2.044-1.6.14-2.726 1.166-2.858 2.573-.03.312.107.35.36.348l2.484-.003zm-10.983 4.194l2.774-7.477c.22-.623.517-.902 1.18-.79.247.042.508.007.86.007l-1.15 3.055-2.383 6.352c-.128.347-.275.49-.672.492-1.725.001-1.722.015-2.325-1.588l-2.896-7.65c-.187-.485-.2-.705.437-.67 1.298.068.958-.207 1.415.98l2.516 6.7c.058.156.13.308.245.582zm-14.224-3.7c.047.835-.09 1.855.07 2.865.13.822.38 1.038 1.223 1.08.552.028 1.106.018 1.66.02.66.004.346.503.4.795.042.276.1.607-.4.58-.848-.046-1.7.048-2.546-.12-1.222-.24-1.813-.848-1.947-2.1-.203-1.88-.08-3.766-.082-5.65 0-.584-.104-.887-.752-.77-.54.097-.45-.296-.44-.6s-.15-.76.444-.66c.656.108.796-.193.742-.775-.048-.525.002-1.058-.014-1.587-.01-.318.092-.44.433-.456 1.22-.057 1.218-.07 1.218 1.12 0 .402.025.807-.007 1.207s.137.505.515.494c.787-.023 1.576.022 2.362-.016.56-.027.477.318.488.657.01.363.027.66-.508.63-.785-.043-1.575.01-2.362-.02-.405-.015-.506.13-.496.5.024.868.008 1.736.008 2.783zm7.145.374l.012 4.377c.01.472-.11.612-.595.597-1.054-.032-1.055-.004-1.056-1.088l-.016-8.117c-.006-.55.133-.795.705-.698.124.02.257.018.382 0 .437-.063.587.095.578.55-.03 1.46-.01 2.918-.01 4.377zm0-7.762c.001 1.047-.384 1.397-1.38 1.016-.6-.23-.162-.93-.244-1.408-.034-.2-.172-.56.243-.596.38-.032.765-.006 1.147-.008.208-.001.236.136.235.297v.698zm-83.917 6.533c2.057 1.57 2.558 4.053 3.92 6.19-.694 0-1.235-.003-1.775.001-.29.002-.316-.243-.406-.42l-1.63-3.23c-.643-1.356-1.657-1.998-3.193-1.933-1.56.066-1.56.014-1.56 1.543v3.557c.01.402-.123.49-.506.493-1.293.006-1.293.02-1.293-1.287L27 67.143c-.002-.47.1-.62.598-.606 1.51.046 3.022-.043 4.53.096 2.63.242 4.088 2.5 3.233 4.977-.316.918-.75 1.356-1.916 1.927zM28.8 70.36l-.003 1.97c-.004.257.065.397.355.384.89-.04 1.787.08 2.675-.085 1.17-.217 1.804-.965 1.83-2.163.03-1.297-.506-2.055-1.696-2.33-.965-.223-1.95-.064-2.926-.1-.264-.01-.234.19-.235.356v1.97zm27.195 7.958c-1.144 1.54-2.63 1.878-4.312 1.558-1.46-.278-2.298-1.296-2.41-2.8s.628-2.695 1.994-3.2a6.02 6.02 0 0 1 1.932-.367c.638-.018 1.277-.01 1.915-.01.997-.001 1.13-.193.735-1.12-.318-.75-.935-1.13-1.704-1.288-1.21-.25-2.365-.023-3.497.405-.193.073-.36.232-.59.192-.015-.045-.04-.083-.04-.122.03-1.51-.302-1.18 1.207-1.64 1.01-.308 2.048-.347 3.094-.24 1.72.174 2.957 1.274 3.207 3.023.32 2.23.083 4.482.143 6.724.006.22-.09.3-.303.297a.43.43 0 0 0-.064.001c-1.227.105-1.227.105-1.307-1.41zm-1.458-3.554c-.766-.005-1.53.017-2.274.222-1.007.278-1.44.932-1.343 1.992.08.882.74 1.512 1.685 1.61 1.806.185 3.052-.807 3.372-2.683.194-1.136.2-1.14-.93-1.14h-.5zm-7.748 3.028c.075 1.782.272 1.382-1.233 1.86-1.043.33-2.13.42-3.22.283-3.19-.4-4.545-2.857-4.283-5.7.174-1.894.932-3.47 2.796-4.21 1.615-.642 3.272-.656 4.725.46 1.442 1.107 1.69 2.7 1.642 4.4-.01.396-.297.286-.503.287-2.107.006-4.215.024-6.32-.01-.57-.01-.683.173-.594.69.28 1.633 1.44 2.665 3.104 2.748a7.38 7.38 0 0 0 3.295-.595c.19-.08.362-.23.59-.204zm-4.157-3.883V73.9h2.23c.756-.001.804-.06.653-.78-.287-1.364-1.446-2.24-2.818-2.13-1.612.127-2.834 1.243-2.9 2.613-.014.347.195.306.405.306h2.42zm28.35.515c0-1.05-.02-1.92.01-2.786.015-.415-.106-.57-.532-.54-.207.015-.544.146-.615-.138-.08-.316-.06-.68.016-1.002.05-.208.34-.132.513-.108.528.074.65-.16.618-.64-.038-.6.003-1.185-.014-1.777-.01-.304.107-.388.405-.404 1.25-.068 1.237-.08 1.256 1.143.008.542-.245 1.262.122 1.575.312.266 1.013.083 1.542.094.298.006.596.001.893.001.758.001.964.294.78 1.043-.072.29-.273.218-.445.22-.808.008-1.617.018-2.425-.003-.35-.01-.483.086-.48.458l.023 5.333c.018 1.118.345 1.417 1.466 1.455a21.09 21.09 0 0 0 1.404.007c.31-.01.452.06.465.414.035.96.054.962-.92.958-.7-.003-1.4.024-2.097-.12-1.108-.227-1.656-.767-1.865-1.884-.216-1.156-.07-2.323-.118-3.3zm-2.818-2.694c-.827-.398-1.6-.634-2.4-.727-1.78-.206-3.193.767-3.594 2.506-.203.88-.198 1.766.01 2.644.437 1.843 2.04 2.772 4.09 2.383.504-.096.996-.234 1.45-.472.39-.204.447-.065.45.308.012 1.05.024 1.06-.98 1.34-.9.254-1.84.36-2.778.22-2.265-.337-3.752-1.848-4.024-4.114-.127-1.055-.103-2.112.25-3.138.675-1.97 2.406-3.096 4.718-3.057.726.012 1.434.133 2.134.335.49.14.782.36.68.925-.044.245-.008.505-.008.846z" fill="#4db4cf"/></svg>