<svg xmlns="http://www.w3.org/2000/svg" width="166" height="94" fill-rule="nonzero"><path d="M102.876 37.9l-1.977-.623.305-1.348c1.496-7.263.518-13.114-2.823-15.04-3.203-1.847-8.442.08-13.732 4.683a41.07 41.07 0 0 0-1.529 1.403c-.333-.32-.672-.633-1.017-.94C76.56 21.112 71 19.038 67.664 20.97c-3.2 1.852-4.148 7.353-2.8 14.236a41.01 41.01 0 0 0 .454 2.034c-.786.223-1.546.46-2.273.715-6.5 2.266-10.652 5.818-10.652 9.503 0 3.805 4.457 7.622 11.228 9.936a34.9 34.9 0 0 0 1.66.519c-.18.726-.342 1.457-.482 2.192-1.284 6.764-.28 12.134 2.9 13.975 3.296 1.9 8.83-.053 14.217-4.762.426-.372.853-.767 1.28-1.18a40.31 40.31 0 0 0 1.66 1.514c5.218 4.5 10.372 6.304 13.56 4.458 3.293-1.907 4.364-7.676 2.974-14.695a34.78 34.78 0 0 0-.368-1.641c.39-.115.77-.233 1.142-.357 7.04-2.332 11.62-6.102 11.62-9.96 0-3.698-4.285-7.274-10.917-9.557z" fill="#53c1de"/><path d="M101.35 54.926l-1.03.323c-.777-2.46-1.826-5.076-3.11-7.78 1.225-2.64 2.233-5.22 2.988-7.665l1.825.576c5.682 1.956 9.148 4.848 9.148 7.076 0 2.374-3.743 5.455-9.82 7.47zm-2.522 4.997c.614 3.104.702 5.9.295 8.104-.366 1.97-1.1 3.285-2 3.812-1.935 1.12-6.073-.336-10.536-4.176-.512-.44-1.027-.9-1.544-1.408 1.73-1.892 3.46-4.092 5.147-6.535 2.968-.263 5.773-.694 8.316-1.282.125.505.236 1 .332 1.485zM73.325 71.645c-1.9.668-3.396.687-4.306.162-1.937-1.117-2.742-5.43-1.644-11.213a37.64 37.64 0 0 1 .448-2.039c2.515.556 5.3.957 8.274 1.198 1.7 2.4 3.478 4.588 5.27 6.512a32.3 32.3 0 0 1-1.17 1.077c-2.382 2.083-4.77 3.56-6.873 4.303zM64.468 54.91c-2.994-1.023-5.467-2.353-7.16-3.804-1.523-1.304-2.292-2.6-2.292-3.65 0-2.236 3.333-5.088 8.893-7.026.698-.242 1.403-.464 2.113-.665.768 2.5 1.776 5.112 2.993 7.755-1.232 2.682-2.254 5.336-3.03 7.865a32.31 32.31 0 0 1-1.516-.474zm2.97-20.21c-1.154-5.898-.388-10.346 1.54-11.462 2.054-1.19 6.596.507 11.384 4.757a34.29 34.29 0 0 1 .921.851c-1.784 1.915-3.546 4.096-5.23 6.473-2.888.268-5.652.698-8.193 1.273a38.46 38.46 0 0 1-.422-1.892zm26.486 6.54a83.42 83.42 0 0 0-1.867-3.071c1.96.247 3.836.576 5.6.98-.53 1.696-1.19 3.47-1.965 5.287a91.42 91.42 0 0 0-1.766-3.195zm-10.8-10.52c1.2 1.31 2.42 2.774 3.613 4.362a77.24 77.24 0 0 0-7.257-.002c1.193-1.573 2.415-3.035 3.644-4.36zM72.252 41.26a77.51 77.51 0 0 0-1.733 3.175c-.764-1.812-1.417-3.593-1.95-5.313 1.752-.392 3.62-.712 5.567-.956-.652 1.016-1.28 2.048-1.882 3.093zM74.2 56.935a55.85 55.85 0 0 1-5.659-.91c.542-1.75 1.2-3.57 2-5.42.555 1.073 1.136 2.132 1.74 3.177a77.52 77.52 0 0 0 1.928 3.153zm9.004 7.443c-1.243-1.342-2.483-2.825-3.694-4.42 1.176.046 2.374.07 3.592.07 1.252 0 2.49-.028 3.707-.082a55.78 55.78 0 0 1-3.605 4.434zM95.714 50.5c.82 1.87 1.513 3.68 2.062 5.4-1.78.406-3.702.733-5.728.976a91.72 91.72 0 0 0 1.885-3.124c.618-1.07 1.21-2.156 1.78-3.253zm-4.053 1.943a86 86 0 0 1-2.946 4.753c-1.822.13-3.704.197-5.623.197a86.09 86.09 0 0 1-5.559-.176 74.4 74.4 0 0 1-3.001-4.76 73.73 73.73 0 0 1-2.62-4.947 74.42 74.42 0 0 1 2.612-4.95 73.85 73.85 0 0 1 2.977-4.739c1.826-.138 3.698-.2 5.59-.2 1.9 0 3.776.073 5.6.212 1.04 1.54 2.028 3.115 2.958 4.724.936 1.613 1.818 3.256 2.647 4.927-.82 1.687-1.7 3.345-2.638 4.97zm5.41-29.29c2.056 1.186 2.856 5.968 1.564 12.24-.085.41-.177.815-.276 1.22-2.547-.588-5.314-1.025-8.2-1.297-1.687-2.402-3.435-4.587-5.2-6.478.46-.443.93-.875 1.412-1.295 4.533-3.945 8.77-5.503 10.7-4.39z" fill="#fff"/><path d="M83.093 41.974c3.028 0 5.483 2.455 5.483 5.483s-2.455 5.483-5.483 5.483-5.483-2.455-5.483-5.483 2.455-5.483 5.483-5.483" fill="#53c1de"/></svg>