<svg xmlns="http://www.w3.org/2000/svg" width="166" height="94" fill="#c00" fill-rule="nonzero"><path d="M75.076 60.637s4.85-.42 4.85-6.734S74.05 47 74.05 47H63.466v19.923h5.32v-4.806l4.6 4.806h7.87l-6.18-6.287zm-2.05-4.08h-4.24v-4.555h4.267s1.2.447 1.2 2.263-1.22 2.3-1.22 2.3zM93.06 47.14h-5.403c-3.85 0-5.154 3.52-5.154 5.197v14.586h5.403V63.43h5.07v3.493h5.237V52.338c0-4.247-3.824-5.197-5.154-5.197zm-.083 10.646h-5.098v-4.834s0-1.1 1.7-1.1h1.856c1.496 0 1.524 1.1 1.524 1.1v4.834h.028zm7.703-10.646h5.625v19.784h-5.625V47.14zM114.2 61.8V47.14h-5.597v19.784h13.16V61.8H114.2zm9.42.056v5.058h9.06c1.856 0 5.043-1.37 5.154-5.197V59.77c0-3.27-2.66-5.197-5.154-5.197h-4.516v-2.347h8.95V47.14h-8.6c-2.217 0-5.18 1.844-5.18 5.28v1.76c0 3.437 2.937 5.197 5.18 5.197 6.234.028-1.496 0 4.267 0v2.46l-9.17.028zm-93.68 5.03h21.9s-4.184-19.253 9.67-27.05c3.02-1.48 12.635-7.014 28.373 4.722.5-.42.97-.754.97-.754s-14.4-14.502-30.443-12.88c-8.063.727-17.982 8.13-23.8 17.9s-6.65 18.05-6.65 18.05zM75.547 32.5l.1-1.872c-.25-.14-.942-.475-2.688-.978l-.1 1.844a44.25 44.25 0 0 1 2.688 1.006zm-2.632 5.924l-.1 1.76c.914.028 1.83.14 2.743.335l.1-1.732c-.942-.196-1.856-.307-2.743-.363zm-10.252-8.718h.277L62.385 28c-.86 0-1.746.056-2.66.168l.526 1.65a23.15 23.15 0 0 1 2.41-.112zm1.33 10.283l.637 1.928c.804-.4 1.607-.727 2.4-.978l-.6-1.844a20.11 20.11 0 0 0-2.438.894zm-12.58-7.35l-1.247-1.94a43.96 43.96 0 0 0-2.161 1.202l1.275 1.956c.72-.447 1.413-.866 2.134-1.23zm5.68 12.574l1.33 2.012c.47-.7 1.025-1.34 1.635-1.984l-1.247-1.9a15.41 15.41 0 0 0-1.718 1.872zM53.076 54.2L55.32 56a22.16 22.16 0 0 1 .582-3.27l-1.995-1.593c-.36 1.034-.6 2.068-.83 3.074zM40.94 40.938l-1.967-1.732c-.72.7-1.413 1.397-2.05 2.096l2.134 1.844c.582-.754 1.22-1.5 1.884-2.207zm-8.368 12.5l-3.186-1.174c-.526 1.202-1.108 2.6-1.385 3.353l3.186 1.174c.36-.95.942-2.32 1.385-3.353zm20.088 7.88a28.64 28.64 0 0 0 .332 3.52l3.325 1.202c-.25-1.1-.5-2.32-.665-3.633l-2.992-1.1z"/></svg>