<svg xmlns="http://www.w3.org/2000/svg" width="166" height="94" fill-rule="nonzero"><path d="M76.38 23.58c2.74-2.877 6.55-4.662 10.768-4.662 5.605 0 10.496 3.152 13.1 7.83 2.263-1.02 4.768-1.587 7.404-1.587 10.1 0 18.306 8.337 18.306 18.62s-8.196 18.622-18.306 18.622a18.02 18.02 0 0 1-3.606-.362c-2.293 4.125-6.664 6.913-11.68 6.913-2.1 0-4.086-.49-5.855-1.36-2.325 5.515-7.742 9.38-14.055 9.38-6.574 0-12.177-4.195-14.328-10.078-.94.2-1.914.306-2.913.306-7.827 0-14.173-6.465-14.173-14.44 0-5.345 2.85-10.012 7.087-12.51a16.65 16.65 0 0 1-1.357-6.605c0-9.173 7.385-16.608 16.493-16.608 5.348 0 10.1 2.564 13.113 6.537" fill="#00a1e0"/><path d="M53.342 48.124c-.053.14.02.17.036.194.16.117.322.2.485.295.866.463 1.684.6 2.54.6 1.742 0 2.823-.934 2.823-2.438v-.03c0-1.4-1.22-1.896-2.366-2.26l-.15-.05c-.864-.283-1.6-.527-1.6-1.1v-.03c0-.5.435-.85 1.1-.85a4.99 4.99 0 0 1 2.214.571s.168.1.23-.055l.354-.96c.033-.093-.025-.16-.085-.198-.654-.4-1.56-.676-2.495-.676l-.174.001c-1.594 0-2.707.97-2.707 2.363v.03c0 1.467 1.228 1.943 2.378 2.275l.185.057c.838.26 1.56.483 1.56 1.078v.03c0 .544-.47.95-1.227.95a4.09 4.09 0 0 1-2.244-.651l-.288-.182c-.05-.032-.174-.087-.23.08l-.344.96zm25.5 0c-.053.14.02.17.036.194.16.117.322.2.485.295.866.463 1.684.6 2.54.6 1.742 0 2.823-.934 2.823-2.438v-.03c0-1.4-1.22-1.896-2.366-2.26l-.15-.05c-.864-.283-1.6-.527-1.6-1.1v-.03c0-.5.435-.85 1.1-.85a4.99 4.99 0 0 1 2.214.571s.168.1.23-.055l.354-.96c.033-.093-.025-.16-.085-.198-.654-.4-1.56-.676-2.495-.676l-.174.001c-1.594 0-2.707.97-2.707 2.363v.03c0 1.467 1.228 1.943 2.378 2.275l.185.057c.838.26 1.562.483 1.562 1.078v.03c0 .544-.47.95-1.228.95a4.09 4.09 0 0 1-2.244-.651l-.287-.182c-.032-.02-.18-.078-.23.08l-.344.96zm17.408-2.946c0 .85-.157 1.52-.467 1.993s-.77.697-1.415.697-1.108-.227-1.4-.697-.46-1.143-.46-1.993.155-1.517.46-1.986.762-.7 1.4-.7 1.1.226 1.416.7.466 1.137.466 1.986zm1.454-1.576a3.54 3.54 0 0 0-.662-1.273 3.2 3.2 0 0 0-1.117-.856c-.444-.2-.97-.315-1.558-.315s-1.115.106-1.56.315a3.22 3.22 0 0 0-1.118.856c-.295.36-.518.788-.662 1.273s-.213 1.014-.213 1.576a5.61 5.61 0 0 0 .213 1.576 3.56 3.56 0 0 0 .663 1.273 3.12 3.12 0 0 0 1.116.849c.445.204.97.307 1.56.307s1.113-.104 1.558-.307.82-.5 1.117-.85a3.54 3.54 0 0 0 .662-1.273 5.57 5.57 0 0 0 .214-1.576 5.58 5.58 0 0 0-.214-1.576zm11.94 4.04c-.048-.143-.185-.1-.185-.1-.212.082-.437.157-.676.195a5.15 5.15 0 0 1-.797.057c-.704 0-1.263-.2-1.663-.628s-.627-1.092-.624-2.004c.002-.83.2-1.455.558-1.93s.894-.716 1.614-.716c.6 0 1.057.07 1.536.222 0 0 .115.05.17-.1l.357-1.003c.04-.1-.056-.16-.1-.172a5.69 5.69 0 0 0-.97-.246 7.22 7.22 0 0 0-1.091-.074c-.6 0-1.155.105-1.62.315s-.86.496-1.17.855a3.68 3.68 0 0 0-.708 1.273 5.11 5.11 0 0 0-.237 1.578c0 1.216.325 2.2.968 2.92s1.6 1.1 2.87 1.1c.745 0 1.5-.152 2.06-.37 0 0 .105-.05.06-.174l-.357-.994zm2.544-3.277c.07-.472.198-.865.398-1.17.3-.465.76-.72 1.407-.72a1.52 1.52 0 0 1 1.379.72c.203.306.292.716.327 1.17h-3.5zm4.895-1.038a3.09 3.09 0 0 0-.63-1.161c-.317-.344-.627-.584-.934-.718-.402-.173-.883-.288-1.4-.288-.614 0-1.172.104-1.625.318s-.835.508-1.133.872-.524.796-.667 1.288a5.66 5.66 0 0 0-.216 1.584 5.35 5.35 0 0 0 .224 1.585c.15.483.4.9.714 1.26a3.23 3.23 0 0 0 1.237.827c.495.193 1.096.293 1.787.292 1.42-.005 2.17-.324 2.48-.496.054-.03.107-.084.04-.238l-.322-.9c-.048-.135-.185-.085-.185-.085-.352.132-.853.368-2.02.366-.763-.001-1.33-.228-1.684-.583-.364-.363-.542-.898-.573-1.652l4.922.005s.13-.002.143-.13c.005-.053.17-1.02-.146-2.138zM72.77 44.363c.07-.472.198-.865.398-1.17.3-.465.76-.72 1.407-.72s1.073.256 1.38.72c.202.306.3.716.325 1.17h-3.5zm4.894-1.038a3.09 3.09 0 0 0-.629-1.161c-.317-.344-.627-.584-.934-.718-.402-.173-.883-.288-1.4-.288-.613 0-1.172.104-1.625.318s-.835.508-1.133.872-.524.796-.666 1.288a5.66 5.66 0 0 0-.216 1.584 5.35 5.35 0 0 0 .224 1.585c.15.48.4.9.714 1.26a3.23 3.23 0 0 0 1.237.827c.495.193 1.096.293 1.787.292 1.42-.005 2.17-.324 2.48-.496.054-.03.106-.084.04-.238l-.32-.9c-.05-.135-.186-.085-.186-.085-.352.132-.852.368-2.02.366-.762-.001-1.328-.228-1.683-.583-.364-.363-.542-.898-.573-1.652l4.922.005s.13-.002.143-.13c.005-.053.17-1.02-.148-2.138zM62.13 47.613c-.192-.155-.22-.194-.284-.294-.097-.152-.146-.37-.146-.645 0-.437.143-.75.44-.96-.004.001.423-.372 1.427-.36a10.01 10.01 0 0 1 1.335.115v2.257h.001s-.625.135-1.33.178c-1.002.06-1.447-.3-1.443-.3zm1.958-3.487l-.768-.023a4.63 4.63 0 0 0-1.212.157 3.15 3.15 0 0 0-1.028.481 2.39 2.39 0 0 0-.714.818 2.41 2.41 0 0 0-.262 1.144c0 .44.075.82.225 1.133a2.04 2.04 0 0 0 .642.776 2.68 2.68 0 0 0 1.003.438 5.78 5.78 0 0 0 1.303.134 8.63 8.63 0 0 0 1.495-.126l1.24-.24.345-.1c.122-.03.113-.162.113-.162l-.002-4.54c0-.995-.264-1.733-.783-2.2s-1.277-.687-2.26-.687a8.04 8.04 0 0 0-1.319.123s-1.075.2-1.518.56c0 0-.097.06-.044.198l.348.944c.044.122.16.08.16.08s.037-.015.08-.04c.947-.52 2.145-.504 2.145-.504.532 0 .94.107 1.217.32.27.207.405.52.405 1.182v.2l-.812-.096zm39.697-2.557c.037-.112-.04-.166-.074-.178-.083-.033-.502-.122-.825-.143-.618-.038-.962.067-1.27.206s-.643.363-.832.618v-.604c0-.084-.06-.15-.142-.15H99.38c-.082 0-.14.067-.14.15v7.403a.15.15 0 0 0 .15.15h1.293a.15.15 0 0 0 .149-.151v-3.698c0-.496.054-.992.163-1.303s.252-.554.43-.73a1.51 1.51 0 0 1 .608-.368 2.35 2.35 0 0 1 .66-.094 2.73 2.73 0 0 1 .54.067c.094.01.148-.048.18-.134l.37-1.042zM91.65 38.137a4.19 4.19 0 0 0-.486-.117c-.2-.034-.414-.05-.67-.05-.9 0-1.592.254-2.084.754s-.823 1.255-1 2.252l-.06.335h-1.118s-.135-.005-.165.144l-.183 1.033c-.013.098.03.16.16.16h1.087l-1.103 6.2a7.78 7.78 0 0 1-.295 1.223c-.1.313-.213.538-.343.706-.126.16-.244.28-.45.35a1.83 1.83 0 0 1-.58.084 2.16 2.16 0 0 1-.394-.044 1.16 1.16 0 0 1-.266-.087s-.127-.05-.178.08l-.365 1c-.034.1.015.176.076.2l.45.133c.273.065.504.068.72.068.452 0 .866-.065 1.208-.2a2.19 2.19 0 0 0 .9-.64c.287-.32.467-.654.64-1.1.17-.45.317-1.012.433-1.666l1.1-6.327h1.62s.137.005.165-.145l.184-1.032c.012-.1-.03-.16-.16-.16H88.93c.008-.035.08-.594.26-1.12.077-.223.223-.405.345-.53s.26-.2.413-.26.334-.076.53-.076a2.05 2.05 0 0 1 .404.04l.252.062c.16.05.183.001.214-.077l.376-1.042c.04-.112-.057-.16-.1-.173zm-22 10.733c0 .083-.06.15-.142.15h-1.305c-.082 0-.14-.067-.14-.15v-10.6c0-.083.058-.15.14-.15h1.305c.082 0 .142.067.142.15v10.6z" fill="#fff"/></svg>