<svg xmlns="http://www.w3.org/2000/svg" width="166" height="94" fill-rule="evenodd"><path d="M37.62 31.297c.184 0 .37.062.547.184-1.367.64-2.832 2.25-3.45 5.466l-2.605.802c.725-2.453 2.445-6.45 5.508-6.45zm1.267 1.192c.262.653.433 1.59.433 2.856l-.001.184-3.296 1.015c.635-2.435 1.824-3.61 2.864-4.054zm3.146 2.205l-1.596.49.001-.342c0-1.048-.146-1.892-.38-2.562.944.118 1.572 1.185 1.976 2.413zm7.66 1.866c-.023-.165-.168-.257-.29-.267l-2.662-.197-1.96-1.935c-.194-.193-.572-.134-.72-.09l-.988.303c-.6-1.687-1.63-3.237-3.46-3.237l-.155.005c-.52-.685-1.165-.982-1.722-.982-4.264 0-6.302 5.3-6.94 7.993l-2.985.92c-.925.288-.954.317-1.076 1.184L24.224 59.52l18.858 3.513L53.3 60.836 49.7 36.56z" fill="#8db849"/><path d="M49.402 36.294l-2.662-.197-1.96-1.935c-.073-.072-.17-.11-.273-.125l-1.426 28.996L53.3 60.836 49.7 36.56c-.023-.165-.168-.257-.29-.267" fill="#5a863e"/><path d="M39.613 41.907l-1.26 3.726s-1.104-.586-2.457-.586c-1.984 0-2.084 1.238-2.084 1.55 0 1.702 4.462 2.354 4.462 6.34 0 3.136-2 5.155-4.698 5.155-3.237 0-4.893-2.003-4.893-2.003l.867-2.847s1.702 1.452 3.138 1.452a1.26 1.26 0 0 0 1.32-1.271c0-2.22-3.66-2.32-3.66-5.966 0-3.07 2.216-6.04 6.7-6.04 1.724 0 2.576.49 2.576.49" fill="#fffffe"/><path d="M65.2 48.892c-1.02-.55-1.543-1.013-1.543-1.65 0-.8.728-1.332 1.863-1.332a6.69 6.69 0 0 1 2.504.55l.932-2.837s-.857-.666-3.377-.666c-3.5 0-5.94 1.997-5.94 4.805 0 1.592 1.136 2.808 2.65 3.676 1.223.695 1.66 1.187 1.66 1.9 0 .753-.6 1.36-1.747 1.36-1.692 0-3.3-.868-3.3-.868l-1 2.837s1.476.984 3.96.984c3.6 0 6.202-1.766 6.202-4.95 0-1.708-1.3-2.924-2.882-3.82m14.403-5.96c-1.776 0-3.173.84-4.25 2.113l-.058-.03 1.543-8.018H72.8l-3.9 20.407h4.018l1.34-6.976c.524-2.634 1.892-4.255 3.173-4.255.903 0 1.252.608 1.252 1.476a9.04 9.04 0 0 1-.175 1.766l-1.514 8h4.018l1.572-8.25c.175-.87.3-1.9.3-2.605 0-2.258-1.194-3.618-3.3-3.618M90 54.624c-1.368 0-1.95-1.158-1.95-2.605 0-2.287 1.194-6.02 3.377-6.02 1.426 0 1.892 1.216 1.892 2.403 0 2.46-1.194 6.223-3.32 6.223zm1.98-11.694c-4.833 0-8.036 4.342-8.036 9.176 0 3.097 1.922 5.587 5.532 5.587 4.746 0 7.948-4.226 7.948-9.176 0-2.866-1.7-5.587-5.445-5.587zm11.878 11.75c-1.043 0-1.66-.58-1.66-.58l.67-3.734c.466-2.5 1.776-4.14 3.174-4.14 1.223 0 1.6 1.13 1.6 2.2 0 2.576-1.543 6.252-3.785 6.252zm3.843-11.752c-2.712 0-4.25 2.374-4.25 2.374h-.058l.233-2.142h-3.552l-.815 5.297-2.795 14.618h4.018l1.106-5.905h.087s.825.52 2.358.52c4.717 0 7.803-4.805 7.803-9.668 0-2.692-1.194-5.095-4.134-5.095zm9.87-5.73c-1.28 0-2.3 1.013-2.3 2.316 0 1.187.757 1.998 1.893 1.998h.058c1.252 0 2.33-.84 2.358-2.316 0-1.158-.786-1.998-2-1.998m-5.618 20.205h4.018l2.737-14.155h-4.047l-2.708 14.155m16.974-14.183h-2.795l.146-.666c.233-1.36 1.048-2.576 2.388-2.576a4.21 4.21 0 0 1 1.281.203l.786-3.126s-.7-.347-2.184-.347c-1.427 0-2.853.405-3.93 1.332-1.368 1.158-2 2.837-2.33 4.516l-.116.666H120.3l-.582 3h1.863l-2.126 11.173h4.018l2.126-11.173h2.766l.553-3m9.665.026s-2.5 6.292-3.64 9.726h-.058l-1-9.726h-4.222l2.417 12.997c.058.3.03.463-.087.666-.466.897-1.252 1.766-2.184 2.402-.757.55-1.6.897-2.27 1.13l1.106 3.387c.815-.174 2.504-.84 3.93-2.17 1.834-1.708 3.523-4.342 5.27-7.932l4.92-10.48h-4.193" fill="#1a1919"/></svg>