<svg xmlns="http://www.w3.org/2000/svg" width="166" height="94"><path d="M117.563 42.5c-1.67 0-1.495 2.048-1.564 4.234h2.782c0-2.464 0-4.234-1.217-4.234zM116 50.3c0 1.978.973 2.36 2.608 2.36 1.878 0 4.416-.556 5.4-.73v4.8c-.765.278-3.095.937-5.4.937-4.138 0-9.18-.66-9.18-9.475 0-7.774 3.964-9.614 8.137-9.614 4.277 0 7.372 2.187 7.372 9.544V50.3H116zm-16.312-6.872c-.382 0-1.147.312-1.564.556v8.884c.313.105.87.174 1.113.174 1.148 0 1.843-.972 1.843-5.032 0-4.13-.314-4.582-1.39-4.582zm.765 14.23c-.835 0-1.704-.243-2.33-.382v6.63h-6.607v-24.99h5.355l.974 1.145c1.008-.902 2.434-1.492 3.93-1.492 2.712 0 5.91.763 5.91 9.44 0 9.5-4.8 9.65-7.233 9.65zM85.43 36.66c-1.843 0-3.268-1.492-3.268-3.297s1.426-3.297 3.268-3.297 3.27 1.492 3.27 3.297-1.426 3.297-3.27 3.297zM82.125 57.3V38.915h6.607V57.3h-6.607zm-4-13.223c-1.043 0-1.843.417-2.19.625V57.3h-6.607V38.915h5.25l.974 1.77c.382-1.145 1.426-2.117 2.956-2.117 1.043 0 1.74.208 2.05.382v5.483c-.66-.173-1.53-.346-2.434-.346zM65.57 52.66c.417 0 1.878-.208 2.364-.278v4.685c-1.008.243-3.234.6-4.694.6-1.878 0-5.4-.208-5.4-5.3v-9.232h-2.434v-4.2h2.434l.835-4.165 5.772-1.388v5.553h3.477l-.87 4.2h-2.608v8.052c0 1.25.382 1.492 1.112 1.492zm-17.076-8.434c0 .73.487.972 1.634 1.492l.696.313c1.634.73 3.894 1.91 3.894 5.38 0 5.553-4.138 6.247-7.094 6.247-1.913 0-3.93-.45-5.286-.867v-4.755c1.182.313 3.234.798 4.138.798 1.008 0 1.773-.138 1.773-1.04 0-.694-.487-1.006-1.565-1.492l-.835-.382c-1.565-.73-3.8-1.978-3.8-5.345 0-4.928 3.86-6.004 7.094-6.004 2.434 0 4.034.555 4.868.868v4.616c-.974-.312-2.955-.73-4.138-.73-.8 0-1.39.208-1.39.902z" fill="#359ad5" fill-rule="nonzero"/></svg>