<svg xmlns="http://www.w3.org/2000/svg" width="166" height="94" fill-rule="nonzero"><path d="M113.672 38.224l-.1-.672-.16-.688-.172-.273c-.71-.558-1.475-.98-2.252-1.35l-1.952-.81c-1.837-5.103-4.995-9.628-9.147-12.78-4.292-3.26-9.34-4.984-14.596-4.984s-10.305 1.725-14.597 4.984c-4.152 3.153-7.3 7.678-9.147 12.783-.658.242-1.3.507-1.95.81-.778.372-1.543.794-2.253 1.35l-.173.273a9.6 9.6 0 0 0-.16.688c-.045.22-.078.446-.1.672-.063.446-.106.896-.13 1.346-.046.902-.02 1.805.08 2.703a17.16 17.16 0 0 0 .5 2.663 14.33 14.33 0 0 0 .435 1.298 9.6 9.6 0 0 0 .275.641c.05.106.104.21.16.318.123.216.146.258.198.335l.233.215c.152.078.278.137.415.203l.4.18.22.09c-1.822 1.687-3.802 3.878-5.516 6.585L52 58.22l3.04-2.67c.052-.045 2.6-2.253 6.85-4.754l.06.49c-.278.145-1.614.847-2.01 1.18-.658.547-.7 1.396-.514 2.98.1.812.395 2.388.805 3.834.707 2.487 1.225 2.927 1.68 3.03.205.05.47.072.768.072.814 0 1.857-.16 2.537-.364.798 2.484 1.928 4.726 3.306 6.694-.067.018-.132.04-.2.058l-4.7-2.167-2.036-.917 1.204 1.882c.088.136 2.166 3.38 3.862 5.566 1.587 2.04 3.76 4.126 7.86 4.126a14.13 14.13 0 0 0 1.542-.091l2.84-.34c4.304 1.583 9.05 1.68 13.554-.028 1.18-.45 2.314-1 3.387-1.674l4.574-1.134c.15-.04.34-.086.535-.132 1.307-.3 3.492-.808 4.657-3.14 1.174-2.354 3.09-5.96 3.11-5.997l.895-1.682-1.744.76c-.093.042-2.303 1.006-3.452 1.608.798-1.84 1.268-3.36 1.432-3.945.643.155 1.596.135 2.297.135a4.01 4.01 0 0 0 .929-.119c.456-.116.808-.42 1.47-2.985.385-1.492.662-3.116.737-3.95.147-1.625.1-2.496-.563-3.045-.33-.273-1.3-.795-1.79-1.052.276-.118.41-.083.42-.08l.447-1.698c.157-.067.324-.135.513-.208l.8-.33.4-.18.416-.203.233-.215c.05-.077.078-.12.108-.178.148-.266.2-.37.25-.475.1-.213.19-.427.275-.64.165-.425.3-.86.434-1.298.237-.873.404-1.764.5-2.663a16.8 16.8 0 0 0 .078-2.703 14.24 14.24 0 0 0-.13-1.346z" fill="#0e0f0d"/><path d="M88.102 73.185l-.984.116-.637.032-.076.002.593-1.343 1.104 1.193" fill="#e1c5a2"/><path d="M87.702 47.82c-.515.418-1.057.808-1.622 1.15l-1.884 1.138c-1.182.144-2.208.437-2.266.455a.32.32 0 0 0-.097.042c-.093.055-.163.143-.195.247l-1.92 6.33-10.258 2.284-3.232-2.265-.94-7.622 7.237-1.058-.913 1.192-1.755 2.52 2.555-1.705c.04-.027 1.665-1.098 4.326-2.402l8.714-.327 2.25.022zm-15.967 8.587c.73-.394 1.552-.336 2.842-.334l.43-.003.39-.006c1.33-.013 2.432.112 2.412-1.974s-.946-3.774-2.274-3.76S72.92 52.052 73 54.137c.02.543.102.936.23 1.217-1.157.29-1.477 1.008-1.494 1.053zm33.747-6.854l-.924 6.48-3.258 2.284-10.245-1.166-1.912-6.3a.43.43 0 0 0-.293-.289c-.063-.02-1.33-.382-2.676-.498l.246-.016c.212-.016 3.745-.45 7.965-1.904 4.672.36 8.488.933 11.096 1.41zm-6.546 6c-.013-.05-.294-.89-1.528-.742.14-.3.205-.73.16-1.304-.163-2.082-1.374-3.737-2.7-3.69s-2.177 1.772-2.103 3.862c.073 2.084 1.186 2.07 2.513 2.023 1.783-.034 2.762-.582 3.658-.15z" fill="#a89983"/><path d="M95.43 51.803a.68.68 0 0 1-.666.691c-.18.003-.353-.065-.483-.2a.68.68 0 0 1-.018-.96c.125-.13.296-.204.475-.208s.354.064.484.19.204.297.207.477m-19.016.5a.68.68 0 0 1-1.146.51.68.68 0 0 1-.025-.961c.124-.13.295-.206.475-.2a.68.68 0 0 1 .696.661" fill="#fff"/><g fill="#e1c5a2"><path d="M109.954 52.404c-.16-.132-.695-.438-1.217-.72l-.86 6.024a.44.44 0 0 1-.18.291l-1.23.86-.074.38c1.207.297 2.38-.574 3.038-1.202.304-1.187.57-2.596.66-3.604.14-1.563.016-1.9-.14-2.028M90.98 75.29c-.797-.284-1.528-.747-2.164-1.376l-.157-.16a13 13 0 0 1-1.507.217l-.647.028-.333.003-.128-.003c-.762 1.133-2.043 1.755-3.046 2.087 2.98.512 6.262-.272 7.983-.796M64.735 60.537l-.08-.272-1.596-1.118c-.1-.07-.165-.18-.18-.3L62.1 52.52l-1.42.836c-.154.127-.27.452-.105 1.96.126 1.133.524 2.874.93 4.18.808.62 2 1.27 3.228 1.043m23.86-.29a.43.43 0 0 1-.363-.304l-1.97-6.497c-.33-.043-.623-.067-.87-.067s-.54.024-.87.067l-1.914 6.3a.43.43 0 0 1-.318.294l-.915.204c-.077.324-.34.8-1.2 1.06-1.37.418-10.04 3.006-11.03 2.865-.577-.08-1.676-.688-2.488-1.178-.325-.767-.505-1.288-.546-1.41v-.002l-.002.002c.115.336 1.247 3.597 3.546 6.786l5.274-1.62c1.386-2.14 3.362-4.264 4.764-4.336a15.11 15.11 0 0 1 .742-.019 16.58 16.58 0 0 1 1.953.121c-.517-.47-.623-1.02-.698-1.264 0 0 1.79 1.403 4.07 1.108s3.698-1.608 3.698-1.608l.045-.405-.915-.104"/><path d="M90.447 61.07c-.473-.122-.77-.318-.96-.52l-.023.208s-.008.96-1 1.702c1.91-.58 2.7-.776 3.243-.776.596 0 .9.25 1.15.468l.156.13 3.753 2.977 3.692.396 1.922.116.556-.02c.63-1.208 1.2-2.544 1.727-4.018-.707.496-2.317 1.582-3.072 1.722-.98.184-9.76-2.024-11.144-2.384"/></g><path d="M112.536 38.35l-.065-.62-.066-.44c-.554-.467-1.185-.882-1.84-1.26-.7-.417-1.454-.79-2.214-1.134l-2.305-.992-1.175-.457-1.185-.44 2.478.54 1.59.457c-3.745-9.796-12.696-16.174-22.47-16.174s-18.725 6.38-22.468 16.174c.526-.166 1.056-.32 1.587-.457.82-.21 1.645-.4 2.48-.54l-1.19.44a40.82 40.82 0 0 0-1.173.457c-.778.314-1.55.636-2.307.992-.757.345-1.5.717-2.212 1.134-.656.376-1.285.792-1.84 1.26-.024.147-.046.294-.065.44a20.36 20.36 0 0 0-.066.621 15.87 15.87 0 0 0-.053 1.256 18.35 18.35 0 0 0 .154 2.509 18.38 18.38 0 0 0 .493 2.462c.11.398.237.79.384 1.177a10.26 10.26 0 0 0 .237.562 5.81 5.81 0 0 0 .127.267l.054.102.186.093.372.178.733.338c.013-.012.027-.024.037-.036l-.69-2.634c.147-.04 1.458-.38 3.72-.81-.183-.034-.365-.073-.547-.116a11.55 11.55 0 0 1-1.516-.484 6.96 6.96 0 0 1-.713-.346c-.23-.132-.454-.28-.63-.48 2.483.812 7.616.445 12.18-.028 4.172-.43 8.356-.71 12.56-.718 4.203.01 8.39.288 12.558.718 4.565.473 9.697.84 12.18.028-.173.2-.4.347-.627.48a7.2 7.2 0 0 1-.716.346 11.47 11.47 0 0 1-1.514.484l-.23.05c2.48.46 3.923.835 4.076.875l-.66 2.51.398-.177.373-.178.188-.093.05-.102c.045-.086.09-.176.13-.267.084-.182.163-.37.236-.562a13.55 13.55 0 0 0 .384-1.177c.226-.8.378-1.63.492-2.462a18.2 18.2 0 0 0 .157-2.509 15.25 15.25 0 0 0-.056-1.256" fill="#e0d896"/><path d="M95.566 33.478c.038 1.12.01 3.154-.51 5.056-.02.073-.018.15 0 .22l-1.993-.184c.745-1.564.908-3.23.944-3.816.573-.407 1.142-.896 1.56-1.276M76.56 34.754c.035.587.197 2.248.942 3.812l-1.992.184a.42.42 0 0 0 0-.215c-.52-1.9-.548-3.933-.512-5.056.42.38.988.87 1.562 1.275m27.164 5.552a.41.41 0 0 1-.014.056l.217.066 1.816.684c-.98-.638-1.602-2.477-1.95-3.883.095 1.84-.062 3.008-.07 3.077m-29.543-7.18l-6.34 1.805c-.38 2.47-.264 4.355-.203 5.01l.032-.02s.207-2.69.628-3.722c.217-.53 1.544-.868 2.556-1.1s2.63-.724 2.945.7c.194.88.46 1.613.716 2.153-.407-1.958-.38-3.873-.333-4.817m22.2 0c.052.98.076 3-.384 5.046.288-.553.608-1.37.83-2.382.313-1.425 1.93-.942 2.945-.7s2.34.58 2.557 1.1c.357.874.56 2.933.613 3.546.06-.788.127-2.558-.218-4.814l-6.343-1.805m-19.872.55l.7.512a.42.42 0 0 1 .181.338c.001.02.05 2.112.973 3.893a.6.6 0 0 1 .032.083l6.897-.22 6.896.226c.01-.03.018-.06.034-.09.922-1.78.972-3.872.972-3.893a.42.42 0 0 1 .182-.338l.664-.494.03-.08c.48-4.678-.4-8.99-.96-11.12-.03 1.456-.374 13.936-3.468 13.936h-8.54c-3.285 0-3.55-14.07-3.55-14.07l-.17.5c-.56 2.244-1.33 6.368-.864 10.817m-9.656 6.686c-.003-.018-.008-.036-.012-.055-.01-.07-.17-1.238-.073-3.08-.347 1.407-.97 3.25-1.952 3.887.587-.273 1.205-.484 1.82-.686l.217-.066" fill="#d7c184"/><path d="M106.397 59.24l-.182.826c.704.164 1.856.292 2.406.184.236-.256.54-1.145.813-2.213-.658.63-1.83 1.5-3.038 1.202M81.16 76.494c1.682.46 3.4.66 5.093.55a20.34 20.34 0 0 0 6.243-1.433c-.517-.038-1.027-.145-1.516-.318-1.72.525-5 1.31-7.982.797-.8.26-1.408.34-1.468.348l-.37.058m-16.314-15.58l-.11-.377c-1.23.228-2.42-.424-3.228-1.043.262.837.525 1.496.723 1.696.61.107 1.956-.08 2.616-.275M66.665 63c.812.5 1.91 1.097 2.488 1.178.99.14 9.66-2.447 11.03-2.865.85-.26 1.113-.735 1.2-1.06l-12.5 2.788c-.03.006-.062.01-.094.01h-.001c-.086 0-.173-.027-.246-.078l-.487-.34-1.46-1.024h0l-.6-.412c.01.033.022.067.033.1l.102.29v.002a20.38 20.38 0 0 0 .546 1.411m38.376-2.405l.23-.897-.434.305-2.434 1.707c-.065.045-.14.072-.218.078-.026.002-.05.001-.077-.002L89.5 60.352l-.02.197c.188.204.486.4.96.52 1.384.36 10.162 2.567 11.143 2.383.755-.14 2.365-1.226 3.07-1.722l.018-.05.36-1.085" fill="#9f8f78"/><path d="M91.71 43.606l-.325.416a27.26 27.26 0 0 1-2.409 2.669l-3.526-.056-5.73.14c2.57-1.066 5.657-2.11 9-2.734l3-.436m-15.036 1.152c-.92.645-1.953 1.468-2.958 2.466l-6.666.87c2.845-1.308 6.093-2.514 9.624-3.335m31.425 5.315l-1.047 7.325-5.012 3.515-13.07-1.488-1.967-6.486a.43.43 0 0 0-.343-.301c-.484-.078-.912-.116-1.27-.116s-.786.038-1.273.116c-.16.028-.293.144-.342.3l-1.92 6.328-12.997 2.895-5.15-3.61-1.016-8.22.673-.374 1.075-.217.957 7.758a.42.42 0 0 0 .181.297l3.544 2.486c.07.05.16.077.244.077a.51.51 0 0 0 .096-.011l10.686-2.38a.53.53 0 0 0 .107-.039.43.43 0 0 0 .209-.256l1.926-6.342c.516-.132 1.84-.442 3-.442s2.482.3 3 .442l1.924 6.342a.43.43 0 0 0 .362.303l10.688 1.216c.102.012.208-.016.293-.076l3.546-2.48a.44.44 0 0 0 .178-.293l.946-6.63 1.772.362m1.32-4.595l-.92 3.494c-1.882-.416-6.014-1.23-11.638-1.78 1.837-.784 3.708-1.767 5.418-2.998 3.347.473 5.805.98 7.14 1.284m-47.932 0l.256.967a32.29 32.29 0 0 1 1.924-1.421c-.9.173-1.636.33-2.18.454" fill="#6e6a67"/><path d="M97.576 43.53l-4.226-.206-.486.69c-.755 1.023-2.244 2.887-4.152 4.486 1.436-.455 7.13-2.368 10.016-4.9l-1.152-.07m-10.322-.372l.006-.001-2.144-.02-3.15.034-1.937.92c-.01.004-.02.01-.03.016-.292.142-2.835 1.426-5.23 3.72l.66-.34c1.3-.88 4.803-2.967 10.235-4.342l1.59.016m-11.906.234l-2.69.138-3.11.207-1.545.138-.44.05c-1.353.81-6.53 4.063-10.088 8.32l.187-.22c6.586-5.624 13.806-7.813 17.687-8.633m29.795 23.13l-.12.06c-.66.348-1.526.518-2.644.518-.666 0-1.32-.056-2.042-.12-1.445-.132-3.89-.42-3.916-.425l-.187-.02-.148-.12c-.023-.015-2.164-1.725-3.896-3.088l-.192-.158c-.183-.156-.183-.156-.292-.156-.556 0-2.17.502-5.707 1.598l-.217.07-.215-.082c-.024-.006-2.344-.867-5.125-.867-.228 0-.455.006-.676.016-.278.014-1.84.758-3.84 3.922l-.128.204-.23.074a249.92 249.92 0 0 1-7.123 2.167l-.235.067-.225-.104c-.023-.008-1.45-.672-2.807-1.295l.3.14 4.193 3.695a2.73 2.73 0 0 0 .16.16 6.93 6.93 0 0 1-.193-.23l-.002-.002c.59.56 1.252 1.046 1.973 1.388.36.17.737.3 1.12.364a3.54 3.54 0 0 0 .577.048c.198 0 .4-.006.604-.016a53.66 53.66 0 0 0 2.419-.181l2.42-.25c.805-.087 1.6-.188 2.407-.312.4-.058.797-.124 1.185-.2.19-.045.39-.095.54-.163.138-.066.305-.2.45-.325a16.77 16.77 0 0 0 .877-.832c.288-.288.57-.58.85-.88.473-.495.877-1.02 1.335-1.53l.18-.196.006.007a8.36 8.36 0 0 1 .284.211l1.667 1.24c.707.497 1.423.995 2.163 1.4a3.36 3.36 0 0 0 .558.26c.024.01.044.013.062.016a.26.26 0 0 0 .068.016c.036.005.084.008.13.01a5.25 5.25 0 0 0 .306-.008 14.95 14.95 0 0 0 1.265-.156c.846-.132 1.695-.285 2.54-.454l2.53-.522a67.78 67.78 0 0 0 2.517-.586c.414-.112.83-.215 1.2-.392.378-.176.728-.417 1.05-.694.65-.555 1.2-1.244 1.654-1.994l-.001.002c.224-.415.414-.848.57-1.293M89.355 26.684h1.49v-3.028h-10.89v3.028h1.49v-1.538h3.08v9.352h-1.268v1.736h4.287v-1.736h-1.268v-9.352h3.08v1.538" fill="#93232c"/><path d="M100.622 43.735l-1.894-.134c-2.885 2.53-8.58 4.443-10.016 4.9l-.083.07c1.848-.333 4.61-.993 7.475-2.264 1.41-.624 2.844-1.396 4.208-2.35.105-.073.208-.15.3-.223m-14.957-.593c-5.432 1.375-8.925 3.46-10.235 4.342a54.93 54.93 0 0 1 3.693-1.712l.454-.187.142-.058.38-.152.213-.083.348-.135.263-.1.324-.12.306-.112.302-.11.35-.122.278-.096.414-.138.228-.075.657-.208c.482-.148.974-.29 1.475-.425a42.81 42.81 0 0 1 1.997-.494l-1.59-.016m-10.317.25c-3.88.82-11.1 3.008-17.687 8.633l-.187.22c3.348-2.33 9.102-5.792 16.216-7.9l.693-.2c1.203-.337 2.418-.625 3.644-.864l-2.68.1M106.425 65.9l-.204.095-.1.05-.088.042-.135.064c-.018.01-.038.018-.057.028l-.15.072-.033.016-.16.08-.017.008-.328.165a8.98 8.98 0 0 1-.571 1.295l.002-.003c-.457.75-1.005 1.438-1.654 1.992-.323.277-.674.518-1.05.694-.37.178-.785.28-1.2.392-.833.2-1.673.407-2.517.586-.84.187-1.684.36-2.53.522-.844.17-1.693.322-2.54.454-.424.066-.847.127-1.265.156a4.95 4.95 0 0 1-.306.008 1.62 1.62 0 0 1-.131-.011c-.023-.002-.046-.007-.067-.016-.02-.003-.042-.008-.062-.016a3.33 3.33 0 0 1-.558-.259c-.74-.415-1.456-.913-2.163-1.4-.547-.384-1.117-.83-1.667-1.24l-.048.068.003.004c.034.03.07.06.103.1v-.001l-.073-.054.46.55.053.063a45.13 45.13 0 0 0 2.39 2.583c.89.884 1.965 1.33 3.197 1.33.42 0 .863-.055 1.3-.162l1.324-.32 3.884-.95.194-.05.386-.104c.196-.054.394-.103.593-.147 1.218-.283 2.884-.67 3.767-2.44l.802-1.58 1.425-2.74-.208.096m-19.95 3.82l-.08-.075c-.458.5-.863 1.036-1.335 1.532-.278.297-.56.6-.85.878s-.577.574-.877.832a2.34 2.34 0 0 1-.451.325 3.16 3.16 0 0 1-.54.163 16.33 16.33 0 0 1-1.185.211 51.43 51.43 0 0 1-2.407.312c-.806.098-1.613.18-2.42.25-.807.078-1.617.14-2.42.182a13.35 13.35 0 0 1-.604.016 3.46 3.46 0 0 1-.577-.048c-.384-.064-.76-.195-1.12-.364-.72-.34-1.38-.827-1.973-1.388l.002.002c.08.098.168.19.252.285l-.06-.055a2.75 2.75 0 0 1-.16-.16c-.285-.31-2.853-2.536-4.193-3.695l-.3-.14.768 1.123c.395.57.8 1.136 1.21 1.695l.54.714c1.457 1.877 3.292 3.612 6.812 3.612a12.44 12.44 0 0 0 1.391-.082l.63-.072c3.06-.352 3.9-.503 4.367-.583l.335-.056.135-.02c.017-.001 1.052-.135 2.064-.627.698-.34 1.383-.848 1.72-1.602l1.026-2.367.297-.8" fill="#731b2a"/><path d="M94.766 52.494a.68.68 0 0 0 .666-.691c-.003-.18-.077-.352-.207-.477a.68.68 0 0 0-.484-.19c-.18.003-.35.078-.476.208a.68.68 0 0 0 .501 1.15zm4.17 3.058c-.896-.433-1.875.115-3.658.15-1.328.048-2.44.062-2.513-2.023s.776-3.816 2.103-3.862 2.538 1.608 2.7 3.7c.045.575-.018.993-.16 1.304 1.233-.147 1.514.7 1.528.742zm-23.18-2.554a.68.68 0 1 0-.615-1.002.68.68 0 0 0 .615 1.002zm2.05 1.093c.02 2.086-1.084 1.96-2.412 1.974l-.4.006-.428.003c-1.3-.003-2.113-.06-2.842.334.017-.045.338-.76 1.494-1.053-.128-.282-.208-.674-.23-1.217-.08-2.085 1.206-3.795 2.533-3.808s2.254 1.675 2.274 3.76zm25.14-14.346l-.036.384-1.585-.398a52.52 52.52 0 0 0-5.312-.875l-.187-.02a.65.65 0 0 0 .031-.08L96 38.17c.46-2.036.436-4.064.384-5.046l6.343 1.805c.346 2.256.28 4.026.22 4.814zm-7.9-1.2a.41.41 0 0 0 0 .219l-1.993-.184c.745-1.564.908-3.23.944-3.816a17.5 17.5 0 0 0 1.56-1.276c.038 1.12.01 3.154-.5 5.056zm-19.544.215a.42.42 0 0 0 0-.215c-.52-1.9-.548-3.933-.512-5.056l1.562 1.276c.035.587.197 2.248.942 3.812l-1.992.184zm-.958.105l-2.667.368-2.645.507-1.586.397-.02-.2c-.06-.655-.177-2.54.203-5l6.34-1.806c-.048.945-.074 2.86.334 4.817l.195.815c.008.027.02.053.03.077l-.188.022zm31.8 2.563l-.158-.078-.265-.13a1.82 1.82 0 0 1-.177-.1c-.587-.272-1.202-.482-1.816-.684l-.217-.066a.51.51 0 0 0 .014-.056c.01-.07.167-1.237.07-3.077a24.23 24.23 0 0 0-.292-2.693c-.026-.16-.142-.288-.296-.333l-.904-.256c-.194-7.003-3.075-10.293-3.165-10.395 2.573 4.145 2.55 9.062 2.506 10.207l-5.605-1.595a.65.65 0 0 0-.085-.013c-.005 0-.01-.001-.02-.001-.03-.001-.062.001-.092.008a.39.39 0 0 0-.088.029c-.01.004-.017.01-.025.012l-.056.037c-.02.013-.02.017-.024.02s-.012.01-.016.013-.156.153-.4.375a25.57 25.57 0 0 0-.04-2.31l-.018-.283c-.176-2.464-.758-5.924-2.497-8.954a20.86 20.86 0 0 1 .409 1.393c.56 2.13 1.44 6.44.96 11.12l-.006.064c-.007.006-.015.012-.023.017a10.98 10.98 0 0 1-.664.494.42.42 0 0 0-.183.338c0 .02-.05 2.112-.97 3.893-.016.03-.025.058-.034.1a101.79 101.79 0 0 0-6.896-.226 102.52 102.52 0 0 0-6.897.221c-.01-.028-.018-.057-.032-.084-.924-1.78-.97-3.872-.973-3.893a.42.42 0 0 0-.181-.338 13.55 13.55 0 0 1-.7-.512c-.466-4.45.303-8.574.863-10.818.266-1.065.485-1.7.503-1.758-2.523 4.394-2.6 9.696-2.554 11.545l-.4-.375c-.013-.005-.012-.008-.017-.013l-.01-.01a.64.64 0 0 0-.07-.043c-.01-.005-.016-.01-.027-.015-.02-.012-.045-.02-.07-.023a.33.33 0 0 0-.109-.014c-.008 0-.016.001-.024.001a.54.54 0 0 0-.069.011l-5.617 1.597c-.045-1.146-.07-6.062 2.504-10.207-.1.103-2.97 3.393-3.165 10.396l-.9.256c-.156.043-.273.173-.3.333a24.42 24.42 0 0 0-.292 2.69c-.095 1.842.063 3 .073 3.08.004.018.01.036.012.055l-.217.066c-.615.202-1.232.413-1.82.686a1.81 1.81 0 0 1-.166.094l-.01.005-.265.13-.138.067c-.03.017-.06.032-.088.05a10.02 10.02 0 0 1 1.276-.388 23.59 23.59 0 0 1 1.3-.285c.873-.162 1.747-.304 2.627-.4a56.36 56.36 0 0 1 2.642-.285l2.65-.2c3.54-.2 7.087-.276 10.637-.277s7.1.058 10.637.276c.885.05 1.767.125 2.65.2s1.762.172 2.64.287a40.53 40.53 0 0 1 2.628.41 21.97 21.97 0 0 1 1.298.286c.433.106.86.225 1.278.4-.023-.014-.047-.026-.07-.04zm-20.068-16.27V34.5h1.268v1.736h-4.287V34.5h1.268v-9.352h-3.08v1.538h-1.5v-3.028h10.888v3.028h-1.5v-1.538h-3.08zm5.7 2.657v-5.27H78.838v5.27h3.728v-1.538h.837v7.1H82.14v3.975h6.525v-3.976h-1.27v-7.1h.84v1.538h3.73z" fill="#0e0f0d"/></svg>