<svg id="Layer_5" enable-background="new 0 0 64 64" height="512" viewBox="0 0 64 64" width="512" xmlns="http://www.w3.org/2000/svg" xmlns:xlink="http://www.w3.org/1999/xlink"><linearGradient id="SVGID_1_" gradientUnits="userSpaceOnUse" x1="32" x2="32" y1="63" y2="1"><stop offset="0" stop-color="#9f2fff"/><stop offset="1" stop-color="#0bb1d3"/></linearGradient><path d="m60 1h-26c-1.654 0-3 1.346-3 3v8h-2.721l-.869 2.606c-1.561.411-3.057 1.032-4.46 1.852l-1.95-.976v-14.482h-20v22h15.431c-.805 1.389-1.418 2.868-1.824 4.41l-2.607.869v6.721h-8c-1.654 0-3 1.346-3 3v16c0 1.654 1.346 3 3 3h6v.172c0 1.424-.513 2.767-1.441 3.828h-2.559v2h22v-2h-2.559c-.928-1.062-1.441-2.404-1.441-3.828v-.172h6c1.654 0 3-1.346 3-3v-2h2.721l.869-2.606c1.561-.411 3.057-1.032 4.46-1.852l1.95.976v14.482h20v-22h-15.431c.805-1.389 1.418-2.868 1.824-4.41l2.607-.869v-6.721h6v-2h-2.559c-.928-1.062-1.441-2.404-1.441-3.828v-.172h6c1.654 0 3-1.346 3-3v-16c0-1.654-1.346-3-3-3zm-26 2h26c.551 0 1 .448 1 1v11h-28v-11c0-.552.449-1 1-1zm4.559 24h-2.559v2h7.615c.252.975.385 1.98.385 3 0 6.28-4.851 11.438-11 11.949v-5.949c0-1.654-1.346-3-3-3h-9.615c-.252-.976-.385-1.981-.385-3 0-6.281 4.853-11.441 11.005-11.95.028 1.631 1.358 2.95 2.995 2.95h6v.172c0 1.424-.513 2.766-1.441 3.828zm-35.559-24h16v13.716l-2 2v-5.716h-12v6h11.716l-1.489 1.489.255.511h-12.482zm12 12v2h-8v-2zm-1 14.721 2.294-.765.125-.548c.396-1.725 1.078-3.367 2.026-4.881l.298-.477-1.083-2.167 3.223-3.224 2.168 1.084.476-.298c1.514-.948 3.156-1.63 4.881-2.026l.547-.126.766-2.293h1.279v4.051c-7.253.516-13 6.567-13 13.949 0 1.015.116 2.018.331 3h-4.331zm-10 7.279h26c.551 0 1 .448 1 1v11h-28v-11c0-.552.449-1 1-1zm19.003 24h-12.006c.651-1.156 1.003-2.464 1.003-3.828v-.172h10v.172c0 1.364.352 2.672 1.003 3.828zm6.997-6h-26c-.551 0-1-.448-1-1v-3h28v3c0 .552-.449 1-1 1zm31 6h-16v-13.715l2-2.001v5.716h12v-6h-11.716l1.489-1.489-.255-.511h12.482zm-12-12v-2h8v2zm1-14.721-2.294.765-.125.548c-.396 1.725-1.078 3.367-2.026 4.881l-.298.477 1.083 2.167-3.223 3.224-2.168-1.084-.476.298c-1.514.948-3.156 1.63-4.881 2.026l-.547.126-.766 2.293h-1.279v-4.051c7.253-.516 13-6.567 13-13.949 0-1.016-.116-2.019-.33-3h4.33zm3.003-7.279h-12.006c.651-1.156 1.003-2.464 1.003-3.828v-.172h10v.172c0 1.364.352 2.672 1.003 3.828zm6.997-6h-26c-.551 0-1-.448-1-1v-3h28v3c0 .552-.449 1-1 1zm-13 32h12v2h-12zm0 4h2v2h-2zm4 0h8v2h-8zm-34-46h-12v-2h12zm0-4h-2v-2h2zm-4 0h-8v-2h8zm27.498 30.273-1.698-1.057c.313-.503.57-1.041.763-1.601l1.891.653c-.244.702-.565 1.376-.956 2.005zm-2.942 3.042-1.112-1.662c.453-.304.876-.653 1.258-1.041l1.426 1.402c-.478.485-1.006.923-1.572 1.301zm2.395-7.428c.032-.291.049-.587.049-.887 0-.301-.017-.598-.049-.889l1.987-.223c.041.366.062.737.062 1.112 0 .374-.021.742-.061 1.105z" fill="url(#SVGID_1_)"/></svg>