<?xml version="1.0" encoding="iso-8859-1"?>
<!-- Generator: Adobe Illustrator 19.0.0, SVG Export Plug-In . SVG Version: 6.00 Build 0)  -->
<svg version="1.1" id="Capa_1" xmlns="http://www.w3.org/2000/svg" xmlns:xlink="http://www.w3.org/1999/xlink" x="0px" y="0px"
	 viewBox="0 0 512.001 512.001" style="enable-background:new 0 0 512.001 512.001;" xml:space="preserve">
<ellipse style="fill:#FE3F4E;" cx="256" cy="256.499" rx="254.998" ry="255.498"/>
<path style="fill:#666666;" d="M292.894,509.325c18.61-6.52,31.998-24.281,31.998-45.124c0-98.599,0-320.593,0-416.405
	c0-26.355-21.4-47.797-47.704-47.797H98.098C71.793,0.001,50.393,21.443,50.393,47.798c0,15.062,0,343.727,0,359.823v0.006
	C106.583,484.24,199.467,522.892,292.894,509.325z"/>
<path style="fill:#5A5B5B;" d="M50.393,47.798v359.823c7.997,10.906,16.839,21.149,26.426,30.64V47.798
	c0-26.355,21.4-47.797,47.704-47.797H98.098C71.793,0.001,50.393,21.443,50.393,47.798z"/>
<path style="fill:#F9F6ED;" d="M277.188,26.483h-24.573c-3.153,0-5.708,2.561-5.708,5.719v7.315c0,6.786-5.542,12.339-12.315,12.339
	h-93.899c-6.773,0-12.315-5.552-12.315-12.339v-5.058c0-4.405-3.564-7.976-7.961-7.976h-22.32c-11.75,0-21.274,9.543-21.274,21.315
	v390.467c18.732,18.542,40.311,34.202,64.027,46.253h136.338c11.749,0,21.273-9.543,21.273-21.315V47.798
	C298.461,36.026,288.937,26.483,277.188,26.483z"/>
<path style="fill:#EAE4D6;" d="M98.098,26.483c-11.75,0-21.274,9.543-21.274,21.315v390.467
	c7.963,7.882,16.441,15.243,25.379,22.027V47.798c0-11.133,8.522-20.26,19.385-21.22C120.35,26.395,121.665,26.523,98.098,26.483z"
	/>
<g>
	<path style="fill:#7F7E7D;" d="M218.618,34.195h-40.186c-4.251,0-7.697-3.452-7.697-7.712s3.446-7.712,7.697-7.712h40.186
		c4.251,0,7.697,3.452,7.697,7.712S222.869,34.195,218.618,34.195z"/>
	<path style="fill:#7F7E7D;" d="M149.954,32.896c-5.51-3.629-4.175-12.5,2.76-13.974c4.718-0.975,9.206,2.686,9.206,7.557
		c0,3.582-2.467,6.792-6.199,7.568C155.229,34.14,151.52,33.957,149.954,32.896z"/>
</g>
<path style="fill:#0EB0FF;" d="M126.343,462.189h-20.589c-1.89,0-3.436-1.546-3.436-3.436v-20.643c0-1.89,1.546-3.436,3.436-3.436
	h20.589c1.89,0,3.436,1.546,3.436,3.436v20.643C129.779,460.643,128.233,462.189,126.343,462.189z"/>
<path style="fill:#FFC30A;" d="M174.83,462.189h-20.589c-1.89,0-3.436-1.546-3.436-3.436v-20.643c0-1.89,1.546-3.436,3.436-3.436
	h20.589c1.89,0,3.436,1.546,3.436,3.436v20.643C178.266,460.643,176.719,462.189,174.83,462.189z"/>
<path style="fill:#E0D5BD;" d="M223.316,462.189h-20.589c-1.89,0-3.436-1.546-3.436-3.436v-20.643c0-1.89,1.546-3.436,3.436-3.436
	h20.589c1.89,0,3.436,1.546,3.436,3.436v20.643C226.752,460.643,225.206,462.189,223.316,462.189z"/>
<path style="fill:#FE3F4E;" d="M271.802,462.189h-20.589c-1.89,0-3.436-1.546-3.436-3.436v-20.643c0-1.89,1.546-3.436,3.436-3.436
	h20.589c1.89,0,3.436,1.546,3.436,3.436v20.643C275.238,460.643,273.692,462.189,271.802,462.189z"/>
<path id="SVGCleanerId_0" style="fill:#0EB0FF;" d="M510.911,341.878c0-20.083,0-118.675,0-135.469l0,0v-18.821l0,0v-42.7
	c0-5.671-4.64-10.311-10.311-10.311h-3.662c-14.711,0-324.07,0-340.085,0c-5.671,0-10.311,4.64-10.311,10.311v42.7l0,0
	c0,13.165,0,24.477,0,37.642l0,0v116.648c0,5.671,4.64,10.311,10.311,10.311h49.422h4.031c4.855,0,280.282,0,290.295,0
	C506.271,352.189,510.911,347.549,510.911,341.878z"/>
<g>
	<path id="SVGCleanerId_0_1_" style="fill:#0EB0FF;" d="M510.911,341.878c0-20.083,0-118.675,0-135.469l0,0v-18.821l0,0v-42.7
		c0-5.671-4.64-10.311-10.311-10.311h-3.662c-14.711,0-324.07,0-340.085,0c-5.671,0-10.311,4.64-10.311,10.311v42.7l0,0
		c0,13.165,0,24.477,0,37.642l0,0v116.648c0,5.671,4.64,10.311,10.311,10.311h49.422h4.031c4.855,0,280.282,0,290.295,0
		C506.271,352.189,510.911,347.549,510.911,341.878z"/>
</g>
<path style="fill:#009CF7;" d="M200.775,341.878c0-24.755,0-172.358,0-196.989c0-5.671,4.64-10.311,10.311-10.311
	c-16.493,0-37.793,0-54.234,0c-5.671,0-10.311,4.64-10.311,10.311c0,8.91,0,192.491,0,196.989c0,5.671,4.64,10.311,10.311,10.311
	h49.422h4.031h0.781C205.415,352.189,200.775,347.549,200.775,341.878z"/>
<path style="fill:#FE3F4E;" d="M426.071,307.075c-7.988-13.835-4.255-31.211,8.105-40.661c-9.785-7.499-23.508-8.826-34.849-2.278
	c-15.034,8.68-20.185,27.904-11.505,42.939c8.68,15.034,27.904,20.185,42.938,11.505c1.199-0.692,2.328-1.459,3.4-2.278
	C430.973,313.861,428.203,310.768,426.071,307.075z"/>
<path style="fill:#FA243A;" d="M403.82,303.075c-8.68-15.034-3.529-34.259,11.505-42.939c0.119-0.069,0.243-0.124,0.363-0.191
	c-5.55-0.121-11.202,1.212-16.361,4.191c-15.034,8.68-20.185,27.904-11.505,42.939c8.607,14.907,27.578,20.089,42.554,11.714
	C419.759,318.553,409.518,312.944,403.82,303.075z"/>
<path style="fill:#FFC30A;" d="M480.514,275.642c-8.68-15.034-27.904-20.185-42.939-11.505c-1.199,0.692-2.328,1.459-3.4,2.278
	c3.186,2.442,5.957,5.535,8.089,9.228c7.988,13.835,4.255,31.211-8.106,40.661c9.785,7.499,23.508,8.826,34.849,2.278
	C484.043,309.9,489.194,290.676,480.514,275.642z"/>
<path style="fill:#FF7110;" d="M442.265,275.642c-2.132-3.693-4.903-6.786-8.089-9.228c-12.361,9.449-16.093,26.826-8.105,40.661
	c2.132,3.693,4.903,6.786,8.089,9.228C446.52,306.853,450.253,289.477,442.265,275.642z"/>
<path style="fill:#E6E6E6;" d="M188.727,301.273c7.727,0,15.458,0,23.17,0c5.453,0,9.914-4.461,9.914-9.914
	c0-5.452-4.461-9.914-9.914-9.914c-7.052,0-16.012,0-23.17,0c-5.452,0-9.914,4.461-9.914,9.914
	C178.814,296.812,183.275,301.273,188.727,301.273z"/>
<path style="fill:#CCCCCC;" d="M195.907,291.359c0-5.452,4.461-9.914,9.914-9.914c-6.658,0-14.179,0-17.093,0
	c-5.452,0-9.914,4.461-9.914,9.914s4.461,9.914,9.914,9.914c2.929,0,10.373,0,17.093,0
	C200.368,301.273,195.907,296.812,195.907,291.359z"/>
<path style="fill:#E6E6E6;" d="M248.551,301.273c25.559,0,19.199,0,23.17,0c5.453,0,9.914-4.461,9.914-9.914
	c0-5.452-4.461-9.914-9.914-9.914h-3.631c-4.083,0-16.804,0-19.539,0c-5.452,0-9.914,4.461-9.914,9.914
	S243.098,301.273,248.551,301.273z"/>
<path style="fill:#CCCCCC;" d="M255.73,291.359c0-5.452,4.461-9.914,9.914-9.914c-6.658,0-14.179,0-17.093,0
	c-5.452,0-9.914,4.461-9.914,9.914s4.461,9.914,9.914,9.914c2.929,0,10.373,0,17.093,0
	C260.191,301.273,255.73,296.812,255.73,291.359z"/>
<path style="fill:#E6E6E6;" d="M308.375,301.273h1.877c7.94,0,13.505,0,21.293,0c5.453,0,9.914-4.461,9.914-9.914
	c0-5.452-4.461-9.914-9.914-9.914c-8.306,0-14.824,0-23.17,0c-5.453,0-9.914,4.461-9.914,9.914S302.923,301.273,308.375,301.273z"/>
<path style="fill:#CCCCCC;" d="M315.554,291.359c0-5.452,4.461-9.914,9.914-9.914c-6.658,0-14.179,0-17.093,0
	c-5.453,0-9.914,4.461-9.914,9.914s4.461,9.914,9.914,9.914c2.929,0,10.373,0,17.093,0
	C320.016,301.273,315.554,296.812,315.554,291.359z"/>
<path style="fill:#FFC30A;" d="M230.336,217.204h-41.775c-5.361,0-9.747-4.386-9.747-9.747v-20.783c0-5.361,4.386-9.747,9.747-9.747
	h41.775c5.361,0,9.747,4.386,9.747,9.747v20.783C240.082,212.818,235.696,217.204,230.336,217.204z"/>
<path style="fill:#FFA01A;" d="M205.814,207.457v-20.783c0-5.361,4.386-9.747,9.747-9.747h-27c-5.361,0-9.747,4.386-9.747,9.747
	v20.783c0,5.361,4.386,9.747,9.747,9.747h27C210.2,217.204,205.814,212.818,205.814,207.457z"/>
<path style="fill:#50D1DC;" d="M484.731,157.067c-3.713,0-6.75,3.037-6.75,6.75v69.499c0,3.712,3.037,6.75,6.75,6.75
	c3.712,0,6.75-3.038,6.75-6.75v-69.499C491.48,160.104,488.443,157.067,484.731,157.067z"/>
<g>
</g>
<g>
</g>
<g>
</g>
<g>
</g>
<g>
</g>
<g>
</g>
<g>
</g>
<g>
</g>
<g>
</g>
<g>
</g>
<g>
</g>
<g>
</g>
<g>
</g>
<g>
</g>
<g>
</g>
</svg>
