<svg height="512pt" viewBox="0 -17 512 512" width="512pt" xmlns="http://www.w3.org/2000/svg"><path d="m488.183594 478.914062h-464.367188c-13.152344 0-23.816406-10.664062-23.816406-23.816406v-428.808594c0-14.519531 11.769531-26.289062 26.289062-26.289062h459.398438c14.53125 0 26.3125 11.78125 26.3125 26.3125v428.785156c0 13.152344-10.664062 23.816406-23.816406 23.816406zm0 0" fill="#f4f4f4"/><path d="m485.6875 0h-10.726562c.292968 1.59375.457031 3.230469.457031 4.910156v469.09375c0 1.679688-.164063 3.316406-.457031 4.910156h13.222656c13.152344 0 23.816406-10.664062 23.816406-23.816406v-428.785156c0-14.53125-11.78125-26.3125-26.3125-26.3125zm0 0" fill="#e8e8e8"/><path d="m0 92.164062h512v-67.628906c0-13.550781-10.984375-24.535156-24.535156-24.535156h-462.929688c-13.550781 0-24.535156 10.984375-24.535156 24.535156zm0 0" fill="#fba826"/><path d="m487.464844 0h-12.503906c.296874 1.59375.457031 3.230469.457031 4.910156v87.253906h36.582031v-67.628906c0-13.550781-10.984375-24.535156-24.535156-24.535156zm0 0" fill="#e09721"/><path d="m79.640625 46.082031c0 10.042969-8.140625 18.1875-18.1875 18.1875-10.042969 0-18.183594-8.144531-18.183594-18.1875s8.140625-18.1875 18.183594-18.1875c10.046875 0 18.1875 8.144531 18.1875 18.1875zm0 0" fill="#fa5d72"/><path d="m141.207031 46.082031c0 10.042969-8.144531 18.1875-18.1875 18.1875-10.046875 0-18.1875-8.144531-18.1875-18.1875s8.140625-18.1875 18.1875-18.1875c10.042969 0 18.1875 8.144531 18.1875 18.1875zm0 0" fill="#4c7eb0"/><path d="m202.769531 46.082031c0 10.042969-8.144531 18.1875-18.1875 18.1875s-18.1875-8.144531-18.1875-18.1875 8.144531-18.1875 18.1875-18.1875 18.1875 8.144531 18.1875 18.1875zm0 0" fill="#279463"/><path d="m395.019531 379.5625h-278.039062c-11.082031 0-20.0625-8.984375-20.0625-20.0625v-130.578125c0-11.082031 8.980469-20.066406 20.0625-20.066406h278.039062c11.082031 0 20.0625 8.984375 20.0625 20.066406v130.578125c0 11.078125-8.980469 20.0625-20.0625 20.0625zm0 0" fill="#f6d867"/><path d="m395.019531 208.855469h-22.691406c4.160156 4.03125 6.75 9.675781 6.75 15.929687v138.847656c0 6.253907-2.589844 11.894532-6.75 15.929688h22.691406c11.082031 0 20.0625-8.984375 20.0625-20.0625v-130.578125c0-11.082031-8.980469-20.066406-20.0625-20.066406zm0 0" fill="#e0c55e"/><path d="m230.761719 208.855469h-76.234375v-33.789063c0-6.445312 5.222656-11.664062 11.664062-11.664062h52.90625c6.441406 0 11.664063 5.21875 11.664063 11.664062zm0 0" fill="#fba826"/><path d="m219.097656 163.402344h-20.402344c2.902344 2.53125 4.746094 6.25 4.746094 10.40625v35.046875h27.320313v-33.792969c0-6.441406-5.222657-11.660156-11.664063-11.660156zm0 0" fill="#e09721"/><path d="m357.472656 208.855469h-76.234375v-33.789063c0-6.445312 5.222657-11.664062 11.664063-11.664062h52.90625c6.441406 0 11.664062 5.21875 11.664062 11.664062zm0 0" fill="#fba826"/><path d="m345.808594 163.402344h-20.386719c3.746094 2.285156 6.253906 6.402344 6.253906 11.113281v34.339844h25.796875v-33.792969c0-6.441406-5.222656-11.660156-11.664062-11.660156zm0 0" fill="#e09721"/><path d="m270.078125 53.808594h188.179687c4.269532 0 7.726563-3.457032 7.726563-7.726563 0-4.265625-3.457031-7.726562-7.726563-7.726562h-188.179687c-4.265625 0-7.726563 3.460937-7.726563 7.726562 0 4.269531 3.460938 7.726563 7.726563 7.726563zm0 0" fill="#495663"/></svg>