<svg id="Layer_1" data-name="Layer 1" xmlns="http://www.w3.org/2000/svg" viewBox="0 0 1010.24 480.99"><defs><style>.cls-1{fill:#f7931e;}</style></defs><title>logo_hape</title><path class="cls-1" d="M84.48,114.57V43.7A26.7,26.7,0,0,0,57.78,17h0c-14.18.28-25.72,12.52-25.72,27.29V156.12A107.32,107.32,0,0,1,84.48,114.57Z" transform="translate(-32.06 -17)"/><path class="cls-1" d="M136.91,125.63c-1.88,0-3.76,0-5.65.14-54.7,3-99.2,54.24-99.2,114.35v97.15c0,15.8,12.45,28.68,27.75,28.68s27.75-12.88,27.75-28.68l0-104.62c.32-27.77,22.45-50.36,49.32-50.36,27.23,0,49.38,22.87,49.38,51l-.05,1.58v102.4c0,15.8,12.44,28.68,27.75,28.68s27.74-12.88,27.74-28.68V233.9C241.72,174.2,194.7,125.63,136.91,125.63Z" transform="translate(-32.06 -17)"/><path class="cls-1" d="M361.59,361.68a117.89,117.89,0,0,1-27.92-3.58,81.21,81.21,0,0,1-26.6-11.84A67.46,67.46,0,0,1,287,324.57c-5.28-8.87-8-20-8-33.19,0-16.88,4.65-30.47,13.81-40.41s21.44-17.88,36.09-23.22A200,200,0,0,1,378.3,217c17.15-1.65,26.81-2.52,42.19-2.63h3.15l0-1.59c-.4-30.1-16.27-32.59-33.92-32.59-2.59,0-14,.26-17.1.26H340.5A26.39,26.39,0,0,1,314.38,150c1.92-12.59,13.9-22.14,27.86-22.2,18.93-.08,34.78-.14,41.52-.14,66,0,95.38,30.28,95.38,98.14v9.39l-.12,1.24c-.1,5.14-.28,11.07-.45,16.92-.39,12.8-.77,24.91-.29,28.57a64.63,64.63,0,0,0,4.85,17.62,33.69,33.69,0,0,0,10.5,13.38c4.3,3.19,10,4.89,17.05,5.05a22,22,0,0,1,22.21,22.19c0,12.24-9.63,22.21-21.48,22.21h-19l-1.78-.21c-5.82-.23-26.17-2.55-43.48-22.35-16.58-18.95-24.2-47.87-22.05-83.66l.11-1.7H411.09a131.16,131.16,0,0,0-14.37.67l-6.29.54A114.54,114.54,0,0,0,362.51,261C335,270.31,332,284.68,332,290.42s1.26,10.67,3.75,14.61a28.85,28.85,0,0,0,9.63,9.43,41.05,41.05,0,0,0,13.08,5A65.37,65.37,0,0,0,371.92,321a90.24,90.24,0,0,0,19.21-2.12,17.91,17.91,0,0,1,4.17-.48A18.51,18.51,0,0,1,412,329.25a21.09,21.09,0,0,1,.18,18.22,19.14,19.14,0,0,1-13,10.8C386.16,361.28,372.87,361.68,361.59,361.68Z" transform="translate(-32.06 -17)"/><path class="cls-1" d="M579.32,498c-14.43,0-26.19-12.37-26.19-27.57V203c0-10.76-1.88-19.85-5.6-27-3.62-7-11.71-10.66-24-11H510.28S489,157.05,489,144.75s9.54-22.32,21.27-22.92h26.45l1.36.86c14.23.2,25.78,2.32,34.31,6.3a55.19,55.19,0,0,1,21.91,17.61,66.48,66.48,0,0,1,11.1,25.81,168.64,168.64,0,0,1,3.22,31.76v52.38a53.89,53.89,0,0,0,2,15.43A79.46,79.46,0,0,0,623,296.73a63.4,63.4,0,0,0,20.91,17.83c8.4,4.5,18.53,6.78,30.11,6.78s21.71-2.28,30.12-6.78A63,63,0,0,0,725,296.71,78.43,78.43,0,0,0,737.38,272a96.62,96.62,0,0,0,4.1-27.65,99.1,99.1,0,0,0-4.1-27.9,77.91,77.91,0,0,0-12.36-25,64.7,64.7,0,0,0-20.87-18.07c-8.42-4.68-18.56-7.05-30.13-7.05s-21.71,2.37-30.14,7.05a62.8,62.8,0,0,0-14.34,11.06,148,148,0,0,0-2.63-22,70,70,0,0,0-11.67-27.07l-1.93.64a122.7,122.7,0,0,1,12.93-6.27,128.93,128.93,0,0,1,95.56,0A116.29,116.29,0,0,1,786.62,194c6.35,15.06,9.6,32,9.6,50.29s-3.23,35.12-9.6,50a117.68,117.68,0,0,1-26,38.4,114.39,114.39,0,0,1-38.84,24.64,135.28,135.28,0,0,1-95.62,0A121.51,121.51,0,0,1,607,347.84l-1.4-1.44v124c0,15.17-11.73,27.54-26.14,27.57Z" transform="translate(-32.06 -17)"/><path class="cls-1" d="M937.5,368.61a133.81,133.81,0,0,1-48.29-8.49,113.46,113.46,0,0,1-38.14-23.91,108.25,108.25,0,0,1-25.21-37.87c-6.06-14.94-9.14-32.11-9.14-51,0-18.58,3.08-35.77,9.15-51a116.69,116.69,0,0,1,25-39.12A112.19,112.19,0,0,1,888.53,132a123.32,123.32,0,0,1,47.07-9,116,116,0,0,1,43.29,8,93.81,93.81,0,0,1,34.29,23.62,101.73,101.73,0,0,1,22.63,39,183.19,183.19,0,0,1,6,26.25,37.41,37.41,0,0,1-8.11,29.54c-7,8.5-28,11.12-28,11.12H942.06l-1.56,3.08h-6.91c-10.7,0-19.4-9-19.4-20s8.7-20,19.4-20h43.09s7.45-1.09,9.51-4c4.38-6.14,1.8-16.32.91-19.29a51.91,51.91,0,0,0-10-18.7,49.23,49.23,0,0,0-17.37-12.9c-7-3.19-15.23-4.79-24.57-4.79-17.36,0-32.3,5.48-44.4,16.32s-22.16,31.47-22.16,66.17c0,16.46,4.8,34.85,8.52,42A60.58,60.58,0,0,0,892,307.06a72.51,72.51,0,0,0,20.81,12.24A66.55,66.55,0,0,0,937,323.83c14.85,0,39.12,0,56.17-20.25.76-.92,1.63-2.19,2.64-3.65,4.08-6,10.25-15,20.73-15a23,23,0,0,1,7.82,1.49c5.4,2,9.08,5.23,10.94,9.67,3.59,8.54-.41,19.32-1.73,22.42C1014.85,362.91,972.4,368.61,937.5,368.61Z" transform="translate(-32.06 -17)"/></svg>