<?xml version="1.0" encoding="utf-8"?>
<!-- Generator: Adobe Illustrator 24.0.0, SVG Export Plug-In . SVG Version: 6.00 Build 0)  -->
<svg version="1.1" id="Layer_1" xmlns="http://www.w3.org/2000/svg" xmlns:xlink="http://www.w3.org/1999/xlink" x="0px" y="0px"
	 viewBox="0 0 1063 508" style="enable-background:new 0 0 1063 508;" xml:space="preserve">
<style type="text/css">
	.st0{fill:#DB4140;}
</style>
<g>
	<g>
		<path class="st0" d="M84.48,114.57V43.7c0-14.75-11.95-26.7-26.7-26.7h0C43.6,17.28,32.06,29.52,32.06,44.29v111.82
			C44.88,136.88,63.29,122.26,84.48,114.57z"/>
		<path class="st0" d="M136.91,125.63c-1.88,0-3.75,0.05-5.65,0.14c-54.7,2.96-99.2,54.24-99.2,114.35v97.15
			c0,15.8,12.45,28.68,27.75,28.68s27.75-12.88,27.75-28.68l0.02-104.62c0.32-27.77,22.45-50.36,49.32-50.36
			c27.23,0,49.38,22.87,49.38,51l-0.05,1.59v102.4c0,15.8,12.45,28.67,27.75,28.67c15.3,0,27.75-12.88,27.75-28.67V233.9
			C241.72,174.2,194.7,125.63,136.91,125.63z"/>
	</g>
	<path class="st0" d="M361.59,361.68c-8.85,0-18.25-1.21-27.92-3.58c-9.61-2.35-18.56-6.35-26.6-11.84
		c-8.03-5.46-14.78-12.77-20.08-21.69c-5.28-8.87-7.96-20.03-7.96-33.19c0-16.88,4.65-30.47,13.81-40.41
		c9.3-10.06,21.44-17.88,36.08-23.22c14.69-5.4,31.3-9.03,49.37-10.79c17.15-1.66,26.81-2.52,42.19-2.63h3.15l-0.02-1.59
		c-0.4-30.1-16.27-32.59-33.92-32.59c-2.59,0-14.02,0.26-17.1,0.26h-32.1c-7.72-0.02-15.03-3.37-20.06-9.19
		c-5.02-5.82-7.22-13.57-6.06-21.26c1.92-12.59,13.9-22.14,27.86-22.2c18.93-0.08,34.78-0.14,41.53-0.14
		c65.96,0,95.37,30.28,95.37,98.14v9.38l-0.11,1.24c-0.1,5.14-0.28,11.07-0.46,16.92c-0.39,12.8-0.76,24.91-0.28,28.57
		c0.85,6.39,2.48,12.3,4.84,17.61c2.42,5.44,5.96,9.95,10.51,13.38c4.3,3.19,10.04,4.89,17.05,5.05c12.58,0,22.21,9.96,22.21,22.19
		c0,12.24-9.63,22.21-21.48,22.21h-19.04l-1.78-0.2c-5.82-0.24-26.17-2.55-43.49-22.35c-16.58-18.95-24.2-47.87-22.05-83.66
		l0.11-1.7h-14.07c-6.77,0-9.38,0.23-14.37,0.67l-6.29,0.54c-10.6,0.85-19.73,2.62-27.92,5.39c-27.52,9.3-30.49,23.67-30.49,29.41
		c0,5.76,1.27,10.67,3.75,14.61c2.45,3.89,5.69,7.06,9.63,9.43c3.83,2.32,8.24,4.01,13.08,5c4.84,1.01,9.24,1.49,13.44,1.49
		c7.41-0.11,13.58-0.82,19.21-2.12c1.38-0.32,2.78-0.48,4.17-0.48c7.13,0,13.54,4.18,16.72,10.9c2.86,6.01,2.86,12.51,0.19,18.22
		c-2.59,5.56-7.34,9.51-13.03,10.81C386.16,361.28,372.87,361.68,361.59,361.68z"/>
	<path class="st0" d="M579.32,497.99c-14.43,0-26.18-12.37-26.18-27.57V202.98c0-10.77-1.89-19.85-5.6-27.01
		c-3.62-6.96-11.71-10.66-24.04-10.97h-13.22c0,0-21.27-7.95-21.27-20.25c0-12.3,9.54-22.31,21.27-22.91h26.45l1.36,0.85
		c14.24,0.2,25.78,2.32,34.32,6.3c9.2,4.29,16.57,10.21,21.9,17.61c5.38,7.46,9.13,16.15,11.1,25.82
		c2.02,9.76,3.06,20.44,3.22,31.76v52.38c-0.16,5.88,1.01,11.99,2.03,15.43c2.75,9.15,6.91,17.47,12.34,24.75
		c5.48,7.31,12.52,13.31,20.92,17.83c8.4,4.49,18.53,6.77,30.1,6.77c11.58,0,21.71-2.28,30.12-6.77
		c8.43-4.54,15.44-10.54,20.89-17.85c5.46-7.27,9.63-15.6,12.35-24.73c2.72-9.11,4.11-18.41,4.11-27.65
		c0-9.24-1.38-18.64-4.11-27.91c-2.72-9.29-6.88-17.69-12.35-24.98c-5.45-7.34-12.47-13.42-20.87-18.07
		c-8.43-4.68-18.56-7.06-30.14-7.06c-11.58,0-21.71,2.37-30.13,7.06c-5.05,2.8-9.78,6.43-14.34,11.06c-0.44-8.34-1.31-15.57-2.63-22
		c-2.11-10.2-6.04-19.29-11.67-27.07l-1.93,0.64c4.14-2.28,8.4-4.41,12.93-6.27c14.92-6.08,31-9.18,47.78-9.18
		c16.79,0,32.87,3.1,47.78,9.18c14.92,6.13,27.99,14.66,38.85,25.39c10.88,10.75,19.61,23.84,25.97,38.9s9.6,31.99,9.6,50.3
		c0,18.29-3.23,35.12-9.6,50.03c-6.37,14.93-15.11,27.84-25.95,38.4c-10.89,10.61-23.96,18.89-38.84,24.64
		c-14.95,5.8-31.03,8.74-47.81,8.74c-16.76,0-32.84-2.94-47.81-8.74c-6.57-2.55-13.05-5.77-19.26-9.55l-1.4-1.44v124.02
		c0,15.17-11.73,27.54-26.14,27.57H579.32z"/>
	<path class="st0" d="M937.5,368.61c-17.43,0-33.69-2.86-48.29-8.49c-14.55-5.58-27.38-13.62-38.14-23.91
		c-10.68-10.23-19.17-22.97-25.21-37.87c-6.06-14.94-9.13-32.12-9.13-51.05c0-18.59,3.07-35.78,9.14-51.05
		c6.05-15.24,14.47-28.41,25.02-39.12c10.56-10.75,23.24-19.2,37.65-25.13c14.47-5.94,30.3-8.96,47.07-8.96
		c15.51,0,30.07,2.69,43.29,7.98c13.14,5.26,24.67,13.2,34.29,23.62c10.5,11.38,18.12,24.51,22.64,39.03
		c2.61,8.37,4.64,17.21,6.05,26.26c1.64,10.54-1.32,21.31-8.12,29.54c-7.01,8.5-28.01,11.12-28.01,11.12h-63.68l-1.56,3.08h-6.91
		c-10.7,0-19.4-8.99-19.4-20.04c0-11.05,8.7-20.04,19.4-20.04h43.09c0,0,7.46-1.09,9.51-3.98c4.38-6.14,1.8-16.33,0.91-19.3
		c-2.12-7.04-5.48-13.32-10.03-18.7c-4.56-5.39-10.4-9.73-17.36-12.9c-6.96-3.19-15.23-4.79-24.57-4.79
		c-17.36,0-32.3,5.48-44.4,16.33c-12.13,10.81-22.16,31.47-22.16,66.16c0,16.46,4.8,34.85,8.52,42.05
		c3.72,7.2,8.72,13.45,14.85,18.62c6.05,5.12,13.06,9.24,20.81,12.24c7.73,3,15.9,4.53,24.27,4.53c14.85,0,39.12,0,56.17-20.25
		c0.76-0.91,1.64-2.18,2.64-3.65c4.08-5.99,10.25-15.02,20.73-15.02c2.46,0,5.1,0.5,7.82,1.49c5.4,1.98,9.08,5.23,10.94,9.66
		c3.59,8.55-0.41,19.33-1.73,22.42C1014.85,362.91,972.4,368.61,937.5,368.61z"/>
</g>
</svg>
